<?xml version="1.0" encoding="UTF-8"?>
<!DOCTYPE svg PUBLIC "-//W3C//DTD SVG 1.1//EN" "http://www.w3.org/Graphics/SVG/1.1/DTD/svg11.dtd">
<svg version="1.1" xmlns="http://www.w3.org/2000/svg" xmlns:xlink="http://www.w3.org/1999/xlink" width="488" height="292" viewBox="0 0 488 292" fill="none">
<path d="M5.057 13.099H3.848V11.864H4.979V9.498C5.408 10.33 5.798 11.37 5.902 12.072L6.786 11.682V12.501C6.786 12.735 6.786 12.982 6.773 13.229C6.162 13.593 5.564 13.918 5.057 14.191V13.099ZM2.301 8.9H3.679V10.59H2.301V8.9ZM6.786 10.2C6.578 9.706 6.331 9.186 6.058 8.744L4.979 9.225V7.613H1.053V11.864H2.613V16.492L2.093 16.622V12.67H1.027V16.869L0.377 17.012L0.689 18.416C2.028 18.065 3.757 17.597 5.382 17.142L5.2 15.855C4.745 15.972 4.303 16.076 3.848 16.193V14.451H4.55L4.524 14.464L5.356 15.881C5.772 15.556 6.201 15.192 6.643 14.828C6.448 16.128 5.954 17.337 4.719 18.026C5.044 18.273 5.525 18.819 5.733 19.144C7.865 17.675 8.19 14.958 8.19 12.501V6.976H6.786V10.2ZM10.556 17.584C10.335 17.584 10.296 17.506 10.296 16.934V14.269C10.855 14.776 11.401 15.322 11.713 15.712L12.727 14.62C12.259 14.074 11.258 13.255 10.556 12.696L10.296 12.956V11.656L11.024 12.059C11.492 11.357 12.038 10.252 12.571 9.316L11.128 8.627C10.933 9.277 10.621 10.083 10.296 10.785V6.976H8.853V16.921C8.853 18.52 9.165 18.949 10.27 18.949H11.271C12.207 18.949 12.571 18.325 12.714 16.752C12.298 16.661 11.765 16.401 11.44 16.141C11.401 17.259 11.362 17.584 11.154 17.584H10.556ZM15.223 8.783H16.809V10.46H15.223V8.783ZM18.252 16.024L16.913 16.375V14.594H18.291V13.255H16.913V11.76H18.161V7.483H13.949V11.76H15.561V16.713L15.067 16.843V12.852H13.871V17.142C13.663 17.194 13.481 17.233 13.299 17.272L13.663 18.728C15.015 18.338 16.796 17.818 18.447 17.337L18.252 16.024ZM25.402 13.047V11.617H22.737V8.9C23.582 8.731 24.401 8.51 25.09 8.263L23.985 7.041C22.698 7.535 20.605 7.938 18.733 8.185C18.915 8.523 19.11 9.069 19.162 9.433C19.825 9.368 20.514 9.277 21.216 9.16V11.617H18.668V13.047H21.177C21.021 14.75 20.436 16.739 18.018 18.117C18.382 18.39 18.889 18.91 19.11 19.222C20.748 18.169 21.671 16.843 22.152 15.491C22.711 17.077 23.504 18.364 24.687 19.17C24.921 18.767 25.402 18.182 25.753 17.896C24.193 16.999 23.296 15.166 22.828 13.047H25.402ZM33.605 17.025H31.356V16.18H33.605V17.025ZM37.765 13.281H27.339V19.131H28.847V14.568H36.205V17.467C36.205 17.623 36.153 17.662 35.958 17.675C35.815 17.688 35.412 17.688 34.97 17.675V15.153H30.004V18.65H31.356V18.065H34.71C34.853 18.403 34.97 18.806 35.009 19.105C35.945 19.105 36.634 19.092 37.115 18.858C37.622 18.624 37.765 18.208 37.765 17.493V13.281ZM34.476 11.695H30.42V10.902H34.476V11.695ZM28.951 9.875V12.735H36.049V9.875H28.951ZM33.202 8.068V6.976H31.629V8.068H26.819V9.381H38.181V8.068H33.202ZM41.951 9.537H51.324V8.159H46.709V7.002H45.097V8.159H40.469V11.799C40.469 13.697 40.391 16.401 39.312 18.247C39.663 18.403 40.313 18.832 40.573 19.092C41.756 17.09 41.951 13.905 41.951 11.799V9.537ZM47.853 11.851V12.709H45.487V11.851H47.853ZM49.387 13.879V11.851H51.259V10.629H49.387V9.771H47.853V10.629H45.487V9.771H44.031V10.629H42.276V11.851H44.031V13.879H49.387ZM48.334 15.608C47.905 16.024 47.372 16.388 46.774 16.674C46.163 16.375 45.643 16.024 45.253 15.608H48.334ZM49.647 14.334L49.374 14.399H42.367V15.608H44.304L43.693 15.829C44.109 16.388 44.616 16.869 45.188 17.272C44.161 17.571 43.017 17.753 41.821 17.857C42.055 18.182 42.328 18.767 42.445 19.157C43.992 18.962 45.448 18.65 46.722 18.143C47.853 18.65 49.179 18.988 50.674 19.17C50.869 18.767 51.272 18.169 51.584 17.844C50.414 17.74 49.335 17.558 48.386 17.285C49.322 16.661 50.089 15.855 50.609 14.815L49.647 14.334Z" fill="white" fill-opacity="0.5"/>
<path d="M6.812 48.161V54.245H8.086V49.331H10.79V54.206H12.116V48.161H9.75C9.906 47.823 10.049 47.446 10.205 47.056H12.519V45.717H6.708V47.056H8.827C8.71 47.433 8.567 47.823 8.45 48.161H6.812ZM2.873 55.493V54.219H4.511V55.493H2.873ZM2.067 53.023C2.691 52.737 3.289 52.386 3.848 51.996C4.537 52.36 5.187 52.737 5.616 53.023H2.067ZM8.827 49.812C8.762 53.452 8.671 55.116 5.928 56.052V53.023H5.785L6.799 52.035C6.331 51.749 5.655 51.398 4.953 51.034C5.538 50.462 6.019 49.773 6.37 49.032L5.629 48.525H6.5V46.263H4.576C4.407 45.873 4.186 45.405 3.991 45.041L2.522 45.34C2.652 45.613 2.795 45.951 2.925 46.263H0.598V48.525H1.924V47.485H5.109V48.499H3.549C3.666 48.317 3.783 48.122 3.887 47.927L2.535 47.68C2.132 48.447 1.365 49.305 0.273 49.955C0.546 50.15 0.936 50.631 1.131 50.943C1.729 50.54 2.236 50.111 2.665 49.643H4.407C4.186 49.916 3.939 50.176 3.653 50.41C3.341 50.254 3.029 50.098 2.743 49.968L1.742 50.865L2.418 51.216C1.794 51.554 1.092 51.827 0.39 52.009C0.585 52.308 0.858 53.049 0.923 53.465C1.118 53.4 1.326 53.335 1.521 53.257V57.027H2.873V56.689H4.511V57.001H5.928V56.247C6.175 56.52 6.448 56.91 6.552 57.196C9.802 56.065 10.062 53.946 10.127 49.812H8.827ZM9.607 55.194C10.387 55.766 11.427 56.585 11.908 57.118L12.74 56.039C12.233 55.545 11.167 54.765 10.4 54.245L9.607 55.194ZM18.668 48.343C18.46 49.357 18.187 50.28 17.836 51.112C17.316 50.696 16.627 50.228 15.977 49.851C16.263 49.37 16.523 48.876 16.757 48.343H18.668ZM23.14 45.015H21.528V49.37C21.216 48.967 20.943 48.538 20.722 48.122L20.241 48.304C20.306 47.94 20.371 47.563 20.436 47.173L19.422 46.822L19.149 46.874H17.342C17.524 46.354 17.68 45.834 17.823 45.288L16.289 44.989C15.717 47.316 14.664 49.487 13.234 50.787C13.611 51.008 14.248 51.515 14.521 51.775C14.755 51.541 14.976 51.294 15.184 51.008C15.873 51.463 16.627 52.022 17.134 52.49C16.224 53.998 15.041 55.116 13.611 55.857C13.988 56.104 14.586 56.676 14.846 57.014C17.16 55.701 18.967 53.218 19.942 49.539C20.41 50.28 20.943 50.995 21.528 51.632V57.105H23.14V53.14C23.647 53.53 24.18 53.881 24.726 54.167C24.986 53.764 25.48 53.14 25.857 52.815C24.908 52.399 23.972 51.801 23.14 51.073V45.015ZM34.203 47.004C33.943 46.458 33.423 45.652 32.968 45.028L31.733 45.6C32.162 46.237 32.695 47.121 32.929 47.68L34.203 47.004ZM26.741 46.926H29.107V48.369H26.936C26.936 49.76 26.871 51.515 26.767 52.633H29.107C29.003 54.453 28.873 55.22 28.678 55.441C28.548 55.558 28.418 55.584 28.223 55.584C27.963 55.584 27.43 55.571 26.871 55.532C27.131 55.935 27.313 56.559 27.339 57.027C27.963 57.053 28.561 57.04 28.912 57.001C29.341 56.936 29.614 56.819 29.887 56.468C30.264 56.039 30.42 54.804 30.55 51.905C30.563 51.71 30.576 51.307 30.576 51.307H28.171C28.197 50.813 28.21 50.28 28.223 49.747H30.589V45.548H26.741V46.926ZM32.695 51.619V50.839H33.852V51.619H32.695ZM32.695 48.967H33.852V49.721H32.695V48.967ZM36.66 49.721H35.451V48.967H36.66V49.721ZM36.66 51.619H35.451V50.839H36.66V51.619ZM38.584 53.608H35.451V52.828H38.129V47.771H36.361C36.803 47.095 37.284 46.237 37.687 45.431L36.127 44.989C35.828 45.86 35.282 46.991 34.801 47.771H31.291V52.828H33.852V53.608H30.615V54.947H33.852V57.131H35.451V54.947H38.584V53.608ZM41.691 47.732C41.236 48.785 40.469 49.825 40.222 50.111C39.975 50.397 39.754 50.592 39.533 50.644C39.676 51.008 39.897 51.645 39.975 51.931C40.183 51.853 40.495 51.788 41.665 51.697C41.288 52.139 40.963 52.464 40.781 52.62C40.365 53.01 40.066 53.257 39.741 53.322C39.897 53.66 40.105 54.323 40.17 54.57C40.521 54.414 41.08 54.297 44.499 53.868C44.499 53.569 44.538 52.984 44.616 52.594L42.159 52.841C43.069 51.983 43.953 50.956 44.707 49.89L43.498 49.24C43.251 49.63 42.991 50.033 42.705 50.423L41.483 50.462C42.042 49.799 42.601 49.045 43.043 48.278L41.691 47.732ZM39.884 56.832C41.249 56.598 43.043 56.286 44.746 55.987L44.668 54.687C42.835 54.973 40.898 55.272 39.624 55.428L39.884 56.832ZM45.864 51.918C46.358 52.711 46.826 53.79 46.969 54.479L48.334 53.959C48.178 53.257 47.671 52.243 47.138 51.463L45.864 51.918ZM47.281 49.071C47.411 48.733 47.528 48.395 47.632 48.057L46.189 47.732C45.812 49.084 45.11 50.436 44.265 51.255C44.629 51.45 45.24 51.853 45.526 52.087C45.929 51.632 46.319 51.047 46.67 50.384H49.517C49.4 53.764 49.231 55.116 48.971 55.441C48.828 55.61 48.698 55.636 48.477 55.636C48.217 55.636 47.671 55.636 47.047 55.584C47.307 56 47.489 56.611 47.528 57.053C48.165 57.079 48.802 57.079 49.205 57.014C49.66 56.949 49.985 56.806 50.284 56.39C50.713 55.857 50.882 54.18 51.051 49.721C51.064 49.539 51.064 49.071 51.064 49.071H47.281ZM48.451 45.847V45.002H46.943V45.847H43.966V45.002H42.458V45.847H39.754V47.199H42.458V47.914H43.966V47.199H46.943V47.888H48.451V47.199H51.272V45.847H48.451Z" fill="white" fill-opacity="0.5"/>
<path d="M12.467 89.411C11.843 88.917 10.686 88.28 9.62 87.76C10.53 87.019 11.531 86.07 12.337 85.186L10.946 84.432C10.413 85.147 9.62 85.992 8.84 86.72C8.801 85.771 8.788 84.731 8.801 83.626H0.728V85.238H7.228C7.345 91.127 8.034 94.884 10.933 94.884C12.012 94.884 12.441 94.182 12.597 92.024C12.246 91.816 11.804 91.413 11.453 91.049C11.414 92.44 11.284 93.259 10.985 93.259C9.854 93.272 9.256 91.673 8.983 88.93C10.023 89.502 11.102 90.152 11.687 90.659L12.467 89.411ZM25.129 83.73H18.811V85.199H25.129V83.73ZM16.315 82.989C15.691 83.899 14.456 85.069 13.377 85.758C13.65 86.057 14.04 86.681 14.235 87.019C15.47 86.161 16.874 84.822 17.81 83.6L16.315 82.989ZM16.809 85.797C15.977 87.266 14.56 88.774 13.234 89.684C13.546 90.009 14.066 90.711 14.287 91.023C14.638 90.737 14.989 90.412 15.353 90.061V95.144H16.9V88.358C17.42 87.708 17.901 87.032 18.291 86.369L16.809 85.797ZM25.454 87.305H18.265V88.774H22.1V93.298C22.1 93.493 22.009 93.545 21.775 93.545C21.541 93.558 20.683 93.558 19.942 93.519C20.15 93.974 20.345 94.637 20.41 95.092C21.567 95.092 22.399 95.066 22.945 94.832C23.517 94.598 23.673 94.169 23.673 93.337V88.774H25.454V87.305ZM32.37 85.901H33.839V85.147H35.347V85.901H36.855V85.147H38.311V83.873H36.855V83.002H35.347V83.873H33.839V83.002H32.37V83.873H30.849V85.147H32.37V85.901ZM31.031 89.658C30.797 89.281 29.835 87.799 29.445 87.292V86.837H30.615V85.407H29.445V82.989H27.976V85.407H26.572V86.837H27.976V87.175C27.612 88.644 26.988 90.295 26.273 91.231C26.52 91.647 26.858 92.349 27.014 92.791C27.352 92.245 27.69 91.53 27.976 90.724V95.118H29.445V89.268C29.718 89.814 29.965 90.36 30.108 90.737L31.031 89.658ZM32.643 88.748H36.218V89.32H32.643V88.748ZM32.643 87.188H36.218V87.747H32.643V87.188ZM38.363 92.414V91.14H35.113C35.152 90.893 35.191 90.659 35.217 90.399H37.713V86.122H31.213V90.399H33.696C33.67 90.659 33.631 90.906 33.592 91.14H30.615V92.414H33.098C32.617 93.09 31.759 93.571 30.134 93.896C30.42 94.195 30.784 94.754 30.914 95.131C33.059 94.611 34.112 93.805 34.658 92.687C35.308 93.883 36.296 94.702 37.752 95.105C37.96 94.715 38.376 94.13 38.701 93.831C37.544 93.597 36.673 93.103 36.088 92.414H38.363ZM43.693 89.684H45.773V88.189H40.196V89.684H42.159V92.817C41.223 92.973 40.365 93.103 39.702 93.207L40.131 94.767C41.808 94.403 44.096 93.935 46.228 93.467L46.111 92.089C45.318 92.245 44.486 92.401 43.693 92.544V89.684ZM51.324 86.707V85.199H50.102L50.986 84.432C50.635 84.003 49.868 83.392 49.283 82.989L48.256 83.834C48.776 84.224 49.426 84.757 49.777 85.199H47.723C47.697 84.497 47.697 83.769 47.71 83.054H46.046C46.046 83.769 46.059 84.497 46.085 85.199H39.702V86.707H46.163C46.475 91.283 47.45 95.131 49.673 95.131C50.908 95.131 51.428 94.533 51.662 92.076C51.233 91.907 50.661 91.53 50.31 91.166C50.245 92.817 50.089 93.506 49.816 93.506C48.867 93.506 48.074 90.503 47.801 86.707H51.324Z" fill="white" fill-opacity="0.5"/>
<path d="M10.673 123.16V123.732H9.776V123.16H10.673ZM10.673 125.474H9.776V124.863H10.673V125.474ZM8.385 123.732H5.915V124.863H8.385V125.474H6.76V126.592H8.385V127.203H6.604V128.321H8.385V128.958H6.279V130.076H8.385V131.259H9.776V130.076H12.363V128.958H9.776V128.321H12.051V127.203H9.776V126.592H11.973V124.863H12.61V123.732H11.973V122.042H9.776V121.08H8.385V122.042H6.76V123.16H8.385V123.732ZM2.977 123.836C3.172 123.394 3.354 122.952 3.523 122.497V123.277H4.563C4.134 124.382 3.549 125.812 3.042 126.943L4.303 127.229L4.537 126.696H5.161C5.057 127.528 4.914 128.295 4.706 128.997C4.537 128.568 4.394 128.074 4.277 127.502L3.107 127.84C3.354 128.971 3.679 129.855 4.056 130.557C3.757 131.103 3.393 131.545 2.977 131.857V123.836ZM5.733 125.552L5.499 125.578H5.018C5.512 124.408 5.993 123.199 6.344 122.224L5.382 121.977L5.161 122.029H3.692C3.757 121.834 3.822 121.639 3.887 121.444L2.509 121.028C2.002 122.809 1.144 124.577 0.182 125.734C0.416 126.137 0.754 127.034 0.858 127.411C1.118 127.099 1.378 126.735 1.625 126.358V133.105H2.977V132.065C3.25 132.364 3.562 132.806 3.705 133.105C4.186 132.728 4.602 132.273 4.953 131.727C5.954 132.676 7.28 132.949 8.983 132.949H12.233C12.298 132.546 12.506 131.896 12.714 131.558C11.986 131.584 9.659 131.584 9.061 131.584C7.631 131.571 6.461 131.337 5.603 130.453C6.11 129.192 6.409 127.619 6.539 125.695L5.733 125.552ZM21.125 126.787H22.919V127.424H21.125V126.787ZM21.125 125.11H22.919V125.708H21.125V125.11ZM24.388 128.451V126.787H25.545V125.708H24.388V124.083H21.125V123.446H25.402V122.094H20.709V121.002H19.097V122.094H14.456V125.864C14.456 127.775 14.378 130.479 13.312 132.338C13.65 132.494 14.3 132.923 14.56 133.183C15.73 131.168 15.925 127.97 15.925 125.864V123.446H19.63V124.083H16.913V125.11H19.63V125.708H16.172V126.787H19.63V127.424H16.77V128.451H16.952L16.159 129.231C16.796 129.582 17.589 130.115 17.992 130.479L18.876 129.569C18.473 129.218 17.693 128.763 17.069 128.451H19.63V131.597C19.63 131.805 19.565 131.87 19.331 131.87C19.162 131.883 18.629 131.883 18.083 131.857C18.473 131.675 18.876 131.493 19.266 131.298L18.993 130.193C17.745 130.674 16.471 131.155 15.613 131.415L16.328 132.65C16.77 132.468 17.251 132.247 17.745 132.013C17.914 132.377 18.083 132.819 18.135 133.144C19.201 133.144 19.942 133.131 20.436 132.923C20.943 132.715 21.125 132.377 21.125 131.61V130.349C21.905 131.558 22.984 132.468 24.401 132.988C24.609 132.598 25.025 132.039 25.337 131.74C24.453 131.493 23.699 131.09 23.075 130.57C23.699 130.245 24.401 129.829 25.038 129.413L23.907 128.503C23.478 128.867 22.841 129.348 22.243 129.712C21.944 129.322 21.697 128.906 21.502 128.451H24.388Z" fill="white" fill-opacity="0.5"/>
<path d="M4.42 166.971H6.136V165.632H4.42V164.215H6.292V163.617C6.591 163.838 6.929 164.098 7.098 164.267C8.281 163.526 8.983 162.395 9.282 160.757H10.66C10.595 161.914 10.504 162.395 10.387 162.564C10.283 162.668 10.166 162.694 10.01 162.694C9.815 162.694 9.412 162.694 8.957 162.642C9.165 162.993 9.321 163.539 9.334 163.942C9.919 163.968 10.452 163.955 10.777 163.916C11.128 163.864 11.414 163.76 11.648 163.474C11.96 163.11 12.077 162.161 12.168 160.003C12.181 159.821 12.181 159.47 12.181 159.47H6.448V160.757H7.839C7.618 161.836 7.15 162.629 6.292 163.175V162.85H4.225V161.654H6.071V160.315H4.225V159.002H2.795V160.315H0.897V161.654H2.795V162.85H0.598V164.215H3.042V168.102C2.743 167.764 2.509 167.309 2.314 166.724C2.34 166.152 2.366 165.554 2.366 164.956L1.014 164.865C1.001 167.075 0.897 169.168 0.247 170.455C0.572 170.585 1.222 170.949 1.482 171.131C1.742 170.533 1.937 169.831 2.08 169.025C3.107 170.481 4.654 170.806 7.072 170.806H12.116C12.22 170.338 12.48 169.636 12.701 169.272C11.531 169.337 8.06 169.337 7.072 169.324C6.006 169.324 5.122 169.259 4.42 169.025V166.971ZM8.216 165.684H10.335V167.296H8.216V165.684ZM6.773 168.518H11.869V164.436H6.773V168.518ZM16.094 165.684C16.9 164.67 17.68 163.513 18.33 162.369L17.095 161.589C16.861 162.044 16.601 162.525 16.328 162.967L15.184 163.058C15.938 162.031 16.64 160.757 17.147 159.574L15.743 158.911C15.249 160.432 14.352 162.044 14.053 162.46C13.767 162.876 13.559 163.149 13.273 163.227C13.455 163.63 13.689 164.332 13.754 164.618C13.962 164.527 14.287 164.436 15.483 164.293C15.028 164.969 14.625 165.476 14.417 165.697C14.001 166.191 13.702 166.477 13.364 166.555C13.533 166.932 13.754 167.621 13.832 167.894C14.17 167.66 14.716 167.452 18.044 166.49C17.992 166.178 17.953 165.58 17.979 165.19L16.094 165.684ZM22.321 161.225C22.035 162.382 21.697 163.578 21.424 164.436H23.569C23.296 165.45 22.919 166.347 22.425 167.127C21.723 166.191 21.177 165.099 20.787 163.981C20.878 163.11 20.956 162.187 21.008 161.225H22.321ZM24.336 163.045L24.076 163.11H23.335C23.634 162.07 23.946 160.848 24.206 159.782H18.226V161.225H19.5C19.37 164.085 19.045 166.581 18.2 168.466L17.953 167.374C16.328 167.998 14.638 168.661 13.546 168.999L13.91 170.533C15.119 170.039 16.627 169.402 18.057 168.778C17.784 169.311 17.472 169.805 17.082 170.234C17.446 170.429 18.174 170.936 18.434 171.17C19.383 169.961 20.007 168.388 20.384 166.503C20.722 167.153 21.099 167.751 21.515 168.323C20.878 168.999 20.15 169.558 19.331 169.974C19.669 170.208 20.202 170.793 20.41 171.131C21.177 170.715 21.866 170.169 22.503 169.467C23.14 170.117 23.881 170.65 24.687 171.079C24.908 170.689 25.376 170.117 25.701 169.831C24.856 169.454 24.102 168.921 23.426 168.271C24.271 166.984 24.921 165.359 25.298 163.422L24.336 163.045ZM36.335 163.292V164.423H34.892V163.292H36.335ZM32.019 163.292H33.384V164.423H32.019V163.292ZM33.384 162.109H30.589V165.593H32.695C31.993 166.451 30.901 167.231 29.835 167.673C30.16 167.946 30.589 168.479 30.81 168.843C31.746 168.362 32.669 167.569 33.384 166.672V169.051H34.892V166.763C35.646 167.595 36.569 168.349 37.427 168.804C37.661 168.427 38.142 167.894 38.467 167.595C37.401 167.166 36.205 166.399 35.425 165.593H37.843V162.109H34.892V161.407H38.285V160.12H34.892V159.002H33.384V160.12H30.186V161.407H33.384V162.109ZM29.939 161.251C29.497 160.64 28.548 159.834 27.768 159.288L26.624 160.224C27.391 160.796 28.314 161.654 28.717 162.278L29.939 161.251ZM29.614 164.033H26.611V165.45H28.106V168.193C27.534 168.635 26.884 169.064 26.325 169.389L27.079 171.001C27.794 170.455 28.366 169.948 28.938 169.441C29.783 170.455 30.849 170.819 32.448 170.884C33.995 170.949 36.608 170.923 38.168 170.845C38.246 170.403 38.48 169.649 38.649 169.285C36.92 169.415 33.995 169.454 32.474 169.389C31.122 169.337 30.147 168.986 29.614 168.115V164.033ZM41.951 161.537H51.324V160.159H46.709V159.002H45.097V160.159H40.469V163.799C40.469 165.697 40.391 168.401 39.312 170.247C39.663 170.403 40.313 170.832 40.573 171.092C41.756 169.09 41.951 165.905 41.951 163.799V161.537ZM47.853 163.851V164.709H45.487V163.851H47.853ZM49.387 165.879V163.851H51.259V162.629H49.387V161.771H47.853V162.629H45.487V161.771H44.031V162.629H42.276V163.851H44.031V165.879H49.387ZM48.334 167.608C47.905 168.024 47.372 168.388 46.774 168.674C46.163 168.375 45.643 168.024 45.253 167.608H48.334ZM49.647 166.334L49.374 166.399H42.367V167.608H44.304L43.693 167.829C44.109 168.388 44.616 168.869 45.188 169.272C44.161 169.571 43.017 169.753 41.821 169.857C42.055 170.182 42.328 170.767 42.445 171.157C43.992 170.962 45.448 170.65 46.722 170.143C47.853 170.65 49.179 170.988 50.674 171.17C50.869 170.767 51.272 170.169 51.584 169.844C50.414 169.74 49.335 169.558 48.386 169.285C49.322 168.661 50.089 167.855 50.609 166.815L49.647 166.334Z" fill="white" fill-opacity="0.5"/>
<path d="M8.853 207.493C8.281 207.493 8.203 207.428 8.203 206.973V203.476H6.682C6.721 203.307 6.76 203.138 6.786 202.969H12.402V201.487H6.968C7.02 200.772 7.046 200.031 7.072 199.264H11.687V197.795H1.404V199.264H5.486C5.473 200.044 5.447 200.785 5.395 201.487H0.637V202.969H5.187C4.745 205.153 3.575 206.817 0.416 207.818C0.78 208.143 1.209 208.728 1.391 209.157C4.576 208.065 5.954 206.271 6.565 203.983V206.986C6.565 208.533 6.994 209.014 8.632 209.014H10.582C11.999 209.014 12.428 208.442 12.61 206.206C12.194 206.102 11.466 205.842 11.128 205.569C11.05 207.246 10.985 207.493 10.439 207.493H8.853ZM17.277 197.483L17.056 197.548H13.988V209.131H15.431V198.926H16.575C16.341 199.836 16.042 201.006 15.769 201.838C16.536 202.709 16.731 203.515 16.731 204.126C16.731 204.49 16.653 204.737 16.497 204.854C16.38 204.932 16.263 204.971 16.12 204.971C15.951 204.971 15.756 204.971 15.509 204.958C15.73 205.348 15.847 205.946 15.86 206.336C16.185 206.336 16.497 206.349 16.757 206.31C17.043 206.258 17.316 206.18 17.524 206.011C17.94 205.725 18.135 205.179 18.122 204.321C18.122 203.567 17.966 202.67 17.121 201.669C17.524 200.655 17.966 199.225 18.33 198.094L17.277 197.483ZM20.189 201.188H23.205V202.28H20.189V201.188ZM23.205 198.9V199.927H20.189V198.9H23.205ZM24.141 203.697C23.842 204.1 23.4 204.568 22.971 204.984C22.776 204.555 22.607 204.087 22.477 203.606H24.739V197.561H18.707V207.22C18.2 207.298 17.745 207.376 17.355 207.428L17.862 208.923C19.084 208.65 20.683 208.325 22.178 207.974L22.061 206.622C21.437 206.739 20.8 206.856 20.189 206.96V203.606H21.125C21.71 206.141 22.724 208.078 24.635 209.092C24.843 208.676 25.298 208.091 25.636 207.779C24.791 207.402 24.115 206.817 23.595 206.076C24.154 205.647 24.791 205.088 25.35 204.555L24.141 203.697ZM31.616 204.828V207.428H29.861L30.927 206.973C30.732 206.375 30.225 205.491 29.731 204.828H31.616ZM30.147 200.863C31.083 200.083 31.889 199.238 32.448 198.458C33.02 199.238 33.878 200.083 34.84 200.863H30.147ZM35.048 204.828C34.762 205.517 34.242 206.466 33.813 207.077L34.658 207.428H33.241V204.828H37.245V203.502H33.241V202.215H35.724V201.539C36.374 202.007 37.05 202.436 37.7 202.774C37.986 202.293 38.337 201.773 38.727 201.383C36.673 200.551 34.58 198.913 33.176 196.95H31.577C30.615 198.51 28.535 200.46 26.325 201.539C26.663 201.864 27.092 202.423 27.287 202.787C27.95 202.436 28.613 202.02 29.224 201.578V202.215H31.616V203.502H27.664V204.828H29.653L28.47 205.335C28.925 205.972 29.354 206.843 29.549 207.428H27.014V208.754H38.012V207.428H35.074C35.529 206.882 36.036 206.089 36.53 205.374L35.048 204.828ZM50.687 198.237C50.31 197.912 49.582 197.431 49.049 197.119L48.152 197.925C48.672 198.276 49.4 198.809 49.764 199.147L50.687 198.237ZM42.848 206.557V204.698H44.395V203.32H42.848V202.046H44.2V200.668H40.82C41.041 200.356 41.275 200.044 41.483 199.693H44.395V198.224H42.25C42.367 197.964 42.471 197.691 42.562 197.444L41.21 197.028C40.82 198.172 40.118 199.264 39.351 199.979C39.572 200.343 39.949 201.162 40.066 201.5C40.196 201.37 40.326 201.24 40.456 201.097V202.046H41.47V203.32H39.767V204.698H41.47V206.687C41.47 207.376 41.028 207.857 40.755 208.065C40.963 208.286 41.34 208.793 41.47 209.092C41.73 208.819 42.172 208.533 44.707 207.038C44.59 206.726 44.421 206.128 44.382 205.699L42.848 206.557ZM50.18 203.437C49.803 204.087 49.309 204.685 48.724 205.231C48.607 204.698 48.477 204.087 48.373 203.45L51.389 202.878L51.168 201.552L48.191 202.098C48.139 201.695 48.1 201.292 48.061 200.876L51.064 200.395L50.817 199.043L47.97 199.485C47.931 198.653 47.918 197.795 47.931 196.95H46.449C46.449 197.86 46.475 198.796 46.527 199.706L44.772 199.979L45.032 201.357L46.618 201.11C46.657 201.526 46.696 201.942 46.748 202.358L44.499 202.761L44.746 204.126L46.93 203.723C47.086 204.633 47.268 205.465 47.489 206.193C46.54 206.83 45.461 207.337 44.343 207.714C44.707 208.065 45.084 208.572 45.279 208.962C46.241 208.572 47.177 208.117 48.022 207.545C48.516 208.507 49.14 209.092 49.933 209.092C50.947 209.092 51.324 208.663 51.571 207.09C51.259 206.934 50.804 206.609 50.518 206.258C50.453 207.298 50.336 207.636 50.089 207.636C49.79 207.636 49.478 207.272 49.205 206.661C50.102 205.907 50.882 205.01 51.48 203.996L50.18 203.437Z" fill="white" fill-opacity="0.5"/>
<path d="M12.714 240.254C12.09 239.851 10.998 239.318 9.984 238.876C10.816 238.096 11.492 237.186 11.973 236.133L10.881 235.561L10.595 235.626H5.512V237.03H9.581C8.463 238.434 6.578 239.552 4.641 240.124C4.953 240.449 5.369 241.047 5.564 241.45C6.695 241.047 7.787 240.527 8.775 239.838C9.893 240.371 11.167 241.034 11.804 241.502L12.714 240.254ZM3.081 241.775C3.991 240.787 4.862 239.617 5.577 238.473L4.225 237.602C4.004 238.044 3.731 238.499 3.445 238.928L2.223 239.019C2.938 238.005 3.653 236.783 4.16 235.613L2.704 234.937C2.236 236.419 1.339 238.018 1.053 238.434C0.767 238.863 0.533 239.123 0.273 239.201C0.442 239.591 0.689 240.345 0.767 240.631C0.988 240.527 1.313 240.449 2.483 240.306C2.041 240.878 1.651 241.333 1.456 241.528C1.014 241.996 0.715 242.269 0.351 242.347C0.533 242.75 0.78 243.491 0.858 243.79C1.209 243.595 1.755 243.439 4.966 242.802C4.94 242.477 4.966 241.866 5.018 241.45L3.081 241.775ZM4.849 243.985C3.211 244.375 1.547 244.791 0.416 244.986L0.715 246.533C1.95 246.195 3.536 245.766 5.018 245.324L4.849 243.985ZM9.516 243.023H11.908V241.619H5.629V243.023H7.956V245.415H4.849V246.845H12.558V245.415H9.516V243.023ZM16.64 243.114C15.392 243.387 14.17 243.66 13.299 243.816L13.546 245.012C14.508 244.791 15.652 244.518 16.757 244.258L16.64 243.114ZM20.085 238.954C20.657 238.395 21.216 237.784 21.697 237.108C22.243 237.745 22.867 238.369 23.53 238.954H20.085ZM19.877 240.254H23.881V239.253C24.284 239.591 24.674 239.877 25.064 240.137C25.207 239.708 25.506 238.993 25.766 238.603C24.609 237.979 23.335 236.913 22.477 235.925C22.594 235.717 22.711 235.509 22.802 235.301L21.463 234.833C20.657 236.484 19.214 237.992 17.693 238.915C17.784 237.771 17.862 236.523 17.914 235.457H13.624V236.757H16.562C16.484 238.239 16.367 239.838 16.224 240.995H15.21C15.301 239.955 15.392 238.733 15.444 237.706L14.131 237.628C14.079 239.084 13.949 241.021 13.793 242.191H17.147C17.03 244.466 16.874 245.402 16.64 245.662C16.51 245.792 16.393 245.818 16.185 245.818C15.951 245.818 15.405 245.805 14.82 245.753C15.041 246.104 15.184 246.611 15.21 246.988C15.834 247.014 16.445 247.014 16.796 246.975C17.212 246.923 17.511 246.819 17.784 246.481C18.174 246.039 18.343 244.765 18.499 241.541C18.512 241.372 18.525 240.982 18.525 240.982H17.524C17.589 240.397 17.654 239.669 17.706 238.915C17.966 239.214 18.421 239.864 18.59 240.163C19.032 239.864 19.448 239.526 19.877 239.149V240.254ZM22.958 243.985C22.88 243.14 22.646 241.905 22.412 240.93L21.242 241.099C21.437 242.061 21.658 243.335 21.723 244.167L22.958 243.985ZM20.93 244.18C20.8 243.361 20.501 242.113 20.176 241.151L19.006 241.463C19.279 242.425 19.591 243.699 19.682 244.531L20.93 244.18ZM24.037 241.008C23.738 242.321 23.114 244.076 22.568 245.259H18.681V246.559H25.415V245.259H23.868C24.401 244.141 24.973 242.62 25.441 241.307L24.037 241.008ZM29.107 235.028C28.483 236.874 27.417 238.707 26.299 239.89C26.559 240.28 26.975 241.125 27.118 241.502C27.352 241.229 27.586 240.943 27.82 240.631V247.118H29.25V238.33C29.731 237.407 30.173 236.445 30.511 235.496L29.107 235.028ZM32.279 244.856H36.127V245.584H32.279V244.856ZM36.127 239.513V240.228H32.279V239.513H36.127ZM36.127 243.049V243.79H32.279V243.049H36.127ZM36.127 242.009H32.279V241.294H36.127V242.009ZM37.557 245.584V238.382H34.554C34.632 238.109 34.697 237.823 34.775 237.498H38.246V236.172H35.048C35.113 235.795 35.191 235.431 35.243 235.067L33.605 235.015C33.579 235.379 33.54 235.756 33.501 236.172H30.368V237.498H33.319C33.267 237.81 33.215 238.109 33.163 238.382H30.914V245.584H29.796V246.884H38.545V245.584H37.557ZM42.107 235.028C41.444 236.887 40.326 238.733 39.156 239.903C39.416 240.267 39.832 241.125 39.975 241.502C40.274 241.19 40.573 240.839 40.859 240.462V247.105H42.328V238.174C42.809 237.303 43.238 236.393 43.576 235.496L42.107 235.028ZM49.257 243.413V245.155H45.526V243.413H49.257ZM44.018 247.131H45.526V246.585H49.257V247.066H50.83V242.009H44.018V247.131ZM48.724 237.667C48.594 238.239 48.334 238.993 48.126 239.513L48.815 239.643H45.708L46.397 239.461C46.319 238.98 46.098 238.252 45.825 237.667H48.724ZM49.556 239.643C49.777 239.175 50.024 238.525 50.284 237.849L49.257 237.667H51.363V236.289H48.113V235.002H46.527V236.289H43.433V237.667H45.266L44.421 237.862C44.668 238.421 44.863 239.123 44.941 239.643H42.952V241.06H51.623V239.643H49.556ZM58.968 242.984V241.736C59.046 241.814 59.098 241.879 59.15 241.931C59.358 241.645 59.566 241.333 59.748 240.995C59.982 241.931 60.268 242.789 60.632 243.556C60.06 244.362 59.306 245.012 58.344 245.519C58.045 245.298 57.668 245.064 57.265 244.83C57.59 244.323 57.811 243.712 57.954 242.984H58.968ZM55.237 242.984H56.498C56.381 243.452 56.212 243.842 56.004 244.167C55.627 243.985 55.25 243.829 54.86 243.673L55.237 242.984ZM62.231 238.759C62.088 239.903 61.854 240.93 61.529 241.814C61.178 240.878 60.918 239.851 60.736 238.759H62.231ZM64.558 238.759V237.329H61.1C61.269 236.64 61.412 235.925 61.516 235.197L59.956 234.989C59.644 237.303 59.02 239.513 57.915 240.839C58.201 241.034 58.669 241.437 58.968 241.736H55.874L56.186 241.112L55.627 240.995H56.459V239.422C56.966 239.825 57.512 240.28 57.798 240.553L58.617 239.487C58.331 239.292 57.408 238.746 56.784 238.395H58.916V237.173H57.681C57.993 236.77 58.396 236.224 58.799 235.665L57.499 235.145C57.291 235.639 56.927 236.328 56.628 236.796L57.486 237.173H56.459V234.989H55.042V237.173H53.95L54.782 236.809C54.678 236.354 54.34 235.691 54.002 235.197L52.884 235.665C53.157 236.133 53.443 236.731 53.56 237.173H52.572V238.395H54.6C53.976 239.071 53.105 239.695 52.312 240.02C52.598 240.293 52.923 240.8 53.092 241.138C53.742 240.774 54.444 240.228 55.042 239.63V240.878L54.756 240.813C54.626 241.099 54.47 241.411 54.314 241.736H52.429V242.984H53.664C53.339 243.608 53.014 244.193 52.728 244.648L54.08 245.064L54.223 244.817C54.47 244.921 54.717 245.038 54.951 245.168C54.34 245.519 53.534 245.727 52.481 245.87C52.728 246.182 53.001 246.702 53.092 247.144C54.483 246.858 55.523 246.481 56.29 245.909C56.823 246.247 57.291 246.585 57.642 246.884L58.227 246.286C58.435 246.598 58.63 246.949 58.721 247.17C59.852 246.598 60.749 245.896 61.464 245.038C62.049 245.883 62.764 246.572 63.648 247.105C63.882 246.676 64.363 246.078 64.714 245.766C63.765 245.272 63.011 244.531 62.413 243.608C63.115 242.295 63.557 240.683 63.83 238.759H64.558Z" fill="white" fill-opacity="0.5"/>
<path d="M9.23 274.926H3.718V274.393H9.23V274.926ZM9.23 276.408H3.718V275.862H9.23V276.408ZM10.777 273.405H2.236V277.396H10.777V273.405ZM10.036 280.763C9.802 281.231 9.503 281.66 9.152 282.037C8.801 281.66 8.502 281.231 8.281 280.763H10.036ZM3.146 282.31H4.836V282.817C4.264 282.869 3.692 282.908 3.146 282.947V282.31ZM3.146 280.698H4.836V281.244H3.146V280.698ZM4.836 279.099V279.619H3.146V279.099H4.836ZM10.946 279.528L10.686 279.58H6.643V280.763H7.839L6.981 280.997C7.293 281.712 7.696 282.362 8.164 282.921C7.618 283.324 6.981 283.636 6.318 283.857V279.099H12.272V277.877H0.715V279.099H1.729V283.051C1.326 283.09 0.936 283.103 0.598 283.129L0.715 284.455C1.859 284.351 3.341 284.221 4.836 284.078V285.131H6.318V284.078C6.578 284.39 6.864 284.819 7.007 285.118C7.813 284.819 8.554 284.416 9.217 283.909C9.906 284.442 10.712 284.845 11.635 285.118C11.843 284.754 12.246 284.195 12.545 283.909C11.687 283.701 10.907 283.376 10.257 282.947C10.985 282.128 11.544 281.114 11.895 279.892L10.946 279.528ZM20.605 283.025H18.356V282.18H20.605V283.025ZM24.765 279.281H14.339V285.131H15.847V280.568H23.205V283.467C23.205 283.623 23.153 283.662 22.958 283.675C22.815 283.688 22.412 283.688 21.97 283.675V281.153H17.004V284.65H18.356V284.065H21.71C21.853 284.403 21.97 284.806 22.009 285.105C22.945 285.105 23.634 285.092 24.115 284.858C24.622 284.624 24.765 284.208 24.765 283.493V279.281ZM21.476 277.695H17.42V276.902H21.476V277.695ZM15.951 275.875V278.735H23.049V275.875H15.951ZM20.202 274.068V272.976H18.629V274.068H13.819V275.381H25.181V274.068H20.202ZM31.421 273.288C31.33 275.004 31.512 280.906 26.325 283.779C26.845 284.143 27.352 284.611 27.625 285.014C30.368 283.337 31.733 280.828 32.435 278.488C33.163 280.88 34.619 283.558 37.557 285.014C37.804 284.598 38.272 284.065 38.753 283.701C33.904 281.426 33.254 275.823 33.15 274.029C33.163 273.756 33.176 273.496 33.189 273.288H31.421ZM44.317 278.722L43.121 279.06V276.967H44.2V275.498H43.121V273.002H41.704V275.498H41.093C41.171 274.978 41.236 274.471 41.288 273.951L40.001 273.73C39.884 275.264 39.663 276.889 39.26 277.916C39.546 278.085 40.118 278.436 40.352 278.631C40.534 278.163 40.69 277.604 40.833 276.967H41.704V279.45C40.82 279.697 40.027 279.905 39.377 280.048L39.754 281.517C40.352 281.361 41.002 281.153 41.704 280.945V285.144H43.121V280.516C43.602 280.373 44.057 280.217 44.525 280.087L44.317 278.722ZM46.631 275.004C46.813 274.432 46.982 273.847 47.112 273.249L45.708 272.989C45.318 274.9 44.603 276.759 43.576 277.89C43.888 278.085 44.499 278.514 44.746 278.761C45.253 278.137 45.708 277.331 46.085 276.434H46.748C46.176 278.319 45.162 280.243 43.875 281.257C44.278 281.478 44.772 281.829 45.058 282.128C46.371 280.88 47.463 278.553 48.035 276.434H48.646C47.996 279.476 46.696 282.427 44.616 283.922C45.045 284.143 45.578 284.52 45.877 284.819C47.97 283.09 49.309 279.71 49.946 276.434H50.011C49.803 281.101 49.569 282.869 49.244 283.285C49.088 283.48 48.958 283.532 48.763 283.532C48.516 283.532 48.087 283.532 47.606 283.48C47.84 283.909 47.996 284.546 48.035 284.988C48.594 285.014 49.14 285.014 49.504 284.949C49.933 284.858 50.219 284.715 50.518 284.273C51.012 283.623 51.246 281.504 51.493 275.706C51.506 275.524 51.519 275.004 51.519 275.004H46.631ZM62.803 278.826C63.999 278.826 64.402 278.345 64.571 276.681C64.155 276.59 63.518 276.343 63.206 276.109C63.154 277.24 63.063 277.435 62.647 277.435H61.23C60.736 277.435 60.658 277.383 60.658 276.915V276.148C61.789 275.81 62.998 275.394 63.986 274.926L62.998 273.808C62.387 274.146 61.529 274.549 60.658 274.887V273.028H59.124V276.941C59.124 278.371 59.488 278.826 61.009 278.826H62.803ZM54.626 281.517V280.75H56.576V281.517H54.626ZM56.576 278.93V279.606H54.626V278.93H56.576ZM58.097 277.656H53.196V285.118H54.626V282.661H56.576V283.532C56.576 283.688 56.524 283.727 56.368 283.727C56.199 283.74 55.679 283.753 55.224 283.727C55.406 284.091 55.64 284.689 55.718 285.092C56.498 285.092 57.096 285.079 57.538 284.832C57.967 284.611 58.097 284.234 58.097 283.558V277.656ZM56.147 274.341C56.355 274.679 56.563 275.043 56.758 275.407L55.029 275.485C55.354 274.796 55.705 274.016 56.004 273.262L54.392 272.937C54.171 273.73 53.807 274.731 53.443 275.55C53.079 275.563 52.741 275.576 52.429 275.576L52.559 277.045C53.885 276.967 55.653 276.863 57.369 276.746C57.473 276.993 57.551 277.227 57.603 277.435L59.02 276.863C58.773 276.018 58.084 274.783 57.447 273.86L56.147 274.341ZM61.243 283.688C60.736 283.688 60.645 283.623 60.645 283.168V282.128C61.828 281.764 63.115 281.296 64.116 280.75L63.089 279.619C62.465 280.035 61.568 280.464 60.645 280.841V279.086H59.124V283.168C59.124 284.598 59.501 285.04 61.022 285.04H62.868C64.116 285.04 64.506 284.533 64.675 282.7C64.272 282.596 63.648 282.362 63.323 282.128C63.258 283.441 63.167 283.688 62.725 283.688H61.243ZM71.63 275.693V273.015H69.979V275.693H66.001V277.279H69.914C69.693 279.554 68.822 282.18 65.598 283.935C65.975 284.221 66.56 284.806 66.807 285.196C70.46 283.129 71.37 279.97 71.578 277.279H75.218C75.01 281.14 74.75 282.843 74.36 283.246C74.178 283.415 74.022 283.454 73.749 283.454C73.411 283.454 72.644 283.454 71.825 283.389C72.124 283.831 72.332 284.52 72.358 284.988C73.151 285.027 73.957 285.027 74.438 284.962C74.997 284.884 75.374 284.741 75.764 284.234C76.336 283.558 76.596 281.608 76.856 276.434C76.882 276.226 76.895 275.693 76.895 275.693H71.63ZM81.107 273.028C80.483 274.874 79.417 276.707 78.299 277.89C78.559 278.28 78.975 279.125 79.118 279.502C79.352 279.229 79.586 278.943 79.82 278.631V285.118H81.25V276.33C81.731 275.407 82.173 274.445 82.511 273.496L81.107 273.028ZM84.279 282.856H88.127V283.584H84.279V282.856ZM88.127 277.513V278.228H84.279V277.513H88.127ZM88.127 281.049V281.79H84.279V281.049H88.127ZM88.127 280.009H84.279V279.294H88.127V280.009ZM89.557 283.584V276.382H86.554C86.632 276.109 86.697 275.823 86.775 275.498H90.246V274.172H87.048C87.113 273.795 87.191 273.431 87.243 273.067L85.605 273.015C85.579 273.379 85.54 273.756 85.501 274.172H82.368V275.498H85.319C85.267 275.81 85.215 276.109 85.163 276.382H82.914V283.584H81.796V284.884H90.545V283.584H89.557Z" fill="white" fill-opacity="0.5"/>
<path d="M118 89C118 83.4772 122.477 79 128 79H162C167.523 79 172 83.4772 172 89V89C172 94.5228 167.523 99 162 99H128C122.477 99 118 94.5228 118 89V89Z" fill="white" fill-opacity="0.2"/>
<rect x="118" y="79" width="40" height="20" rx="10" fill="white" fill-opacity="0.5"/>
<path d="M132.908 83.336C132.668 84.02 132.188 84.932 131.792 85.544L132.968 86C133.4 85.46 133.94 84.632 134.408 83.84L132.908 83.336ZM134.996 90.224V88.88H131.66V87.344H134.624V86H129.212L130.196 85.472C129.956 84.896 129.44 84.068 128.924 83.444L127.748 84.044C128.192 84.632 128.66 85.424 128.888 86H127.388V87.344H130.196V88.88H127.028V90.224H130.064C129.776 91.388 128.948 92.612 126.548 93.476C126.872 93.752 127.34 94.268 127.544 94.58C129.536 93.74 130.592 92.636 131.132 91.496C131.852 92.912 132.896 93.956 134.42 94.544C134.624 94.148 135.056 93.572 135.38 93.272C133.724 92.768 132.62 91.676 131.96 90.224H134.996ZM141.184 85.196C140.884 84.644 140.2 83.888 139.624 83.36L138.508 84.068C139.06 84.644 139.732 85.448 139.984 85.988L141.184 85.196ZM138.328 94.532H139.756V86.216H138.328V94.532ZM146.836 88.604V87.248H145.468V85.7H143.992V87.248H140.38V88.604H143.116C142.324 89.66 141.136 90.656 139.84 91.316C140.14 91.556 140.608 92.072 140.812 92.372C142.036 91.676 143.14 90.752 143.992 89.66V91.964C143.992 92.144 143.92 92.192 143.716 92.204C143.512 92.204 142.828 92.204 142.216 92.168C142.408 92.564 142.612 93.152 142.672 93.56C143.632 93.56 144.34 93.524 144.82 93.308C145.324 93.092 145.468 92.732 145.468 92V88.604H146.836ZM148.732 83.9H141.652V85.22H147.328V92.984C147.328 93.164 147.268 93.224 147.088 93.236C146.92 93.236 146.332 93.236 145.84 93.212C146.02 93.56 146.212 94.136 146.26 94.496C147.136 94.508 147.748 94.472 148.168 94.256C148.6 94.028 148.732 93.692 148.732 93.008V83.9Z" fill="#111111"/>
<path d="M118 203C118 197.477 122.477 193 128 193H162C167.523 193 172 197.477 172 203V203C172 208.523 167.523 213 162 213H128C122.477 213 118 208.523 118 203V203Z" fill="white" fill-opacity="0.2"/>
<rect x="118" y="193" width="40" height="20" rx="10" fill="white" fill-opacity="0.5"/>
<path d="M132.908 197.336C132.668 198.02 132.188 198.932 131.792 199.544L132.968 200C133.4 199.46 133.94 198.632 134.408 197.84L132.908 197.336ZM134.996 204.224V202.88H131.66V201.344H134.624V200H129.212L130.196 199.472C129.956 198.896 129.44 198.068 128.924 197.444L127.748 198.044C128.192 198.632 128.66 199.424 128.888 200H127.388V201.344H130.196V202.88H127.028V204.224H130.064C129.776 205.388 128.948 206.612 126.548 207.476C126.872 207.752 127.34 208.268 127.544 208.58C129.536 207.74 130.592 206.636 131.132 205.496C131.852 206.912 132.896 207.956 134.42 208.544C134.624 208.148 135.056 207.572 135.38 207.272C133.724 206.768 132.62 205.676 131.96 204.224H134.996ZM141.184 199.196C140.884 198.644 140.2 197.888 139.624 197.36L138.508 198.068C139.06 198.644 139.732 199.448 139.984 199.988L141.184 199.196ZM138.328 208.532H139.756V200.216H138.328V208.532ZM146.836 202.604V201.248H145.468V199.7H143.992V201.248H140.38V202.604H143.116C142.324 203.66 141.136 204.656 139.84 205.316C140.14 205.556 140.608 206.072 140.812 206.372C142.036 205.676 143.14 204.752 143.992 203.66V205.964C143.992 206.144 143.92 206.192 143.716 206.204C143.512 206.204 142.828 206.204 142.216 206.168C142.408 206.564 142.612 207.152 142.672 207.56C143.632 207.56 144.34 207.524 144.82 207.308C145.324 207.092 145.468 206.732 145.468 206V202.604H146.836ZM148.732 197.9H141.652V199.22H147.328V206.984C147.328 207.164 147.268 207.224 147.088 207.236C146.92 207.236 146.332 207.236 145.84 207.212C146.02 207.56 146.212 208.136 146.26 208.496C147.136 208.508 147.748 208.472 148.168 208.256C148.6 208.028 148.732 207.692 148.732 207.008V197.9Z" fill="#111111"/>
<path d="M118 279C118 273.477 122.477 269 128 269H162C167.523 269 172 273.477 172 279V279C172 284.523 167.523 289 162 289H128C122.477 289 118 284.523 118 279V279Z" fill="white" fill-opacity="0.2"/>
<rect x="118" y="269" width="40" height="20" rx="10" fill="white" fill-opacity="0.5"/>
<path d="M132.908 273.336C132.668 274.02 132.188 274.932 131.792 275.544L132.968 276C133.4 275.46 133.94 274.632 134.408 273.84L132.908 273.336ZM134.996 280.224V278.88H131.66V277.344H134.624V276H129.212L130.196 275.472C129.956 274.896 129.44 274.068 128.924 273.444L127.748 274.044C128.192 274.632 128.66 275.424 128.888 276H127.388V277.344H130.196V278.88H127.028V280.224H130.064C129.776 281.388 128.948 282.612 126.548 283.476C126.872 283.752 127.34 284.268 127.544 284.58C129.536 283.74 130.592 282.636 131.132 281.496C131.852 282.912 132.896 283.956 134.42 284.544C134.624 284.148 135.056 283.572 135.38 283.272C133.724 282.768 132.62 281.676 131.96 280.224H134.996ZM141.184 275.196C140.884 274.644 140.2 273.888 139.624 273.36L138.508 274.068C139.06 274.644 139.732 275.448 139.984 275.988L141.184 275.196ZM138.328 284.532H139.756V276.216H138.328V284.532ZM146.836 278.604V277.248H145.468V275.7H143.992V277.248H140.38V278.604H143.116C142.324 279.66 141.136 280.656 139.84 281.316C140.14 281.556 140.608 282.072 140.812 282.372C142.036 281.676 143.14 280.752 143.992 279.66V281.964C143.992 282.144 143.92 282.192 143.716 282.204C143.512 282.204 142.828 282.204 142.216 282.168C142.408 282.564 142.612 283.152 142.672 283.56C143.632 283.56 144.34 283.524 144.82 283.308C145.324 283.092 145.468 282.732 145.468 282V278.604H146.836ZM148.732 273.9H141.652V275.22H147.328V282.984C147.328 283.164 147.268 283.224 147.088 283.236C146.92 283.236 146.332 283.236 145.84 283.212C146.02 283.56 146.212 284.136 146.26 284.496C147.136 284.508 147.748 284.472 148.168 284.256C148.6 284.028 148.732 283.692 148.732 283.008V273.9Z" fill="#111111"/>
<path d="M118 165C118 159.477 122.477 155 128 155H162C167.523 155 172 159.477 172 165V165C172 170.523 167.523 175 162 175H128C122.477 175 118 170.523 118 165V165Z" fill="white" fill-opacity="0.2"/>
<rect x="133" y="155" width="39" height="20" rx="10" fill="url(#paint0_linear)"/>
<path d="M144.752 164.304V163.956V161.376H147.5V164.304H144.752ZM151.46 164.304H149V161.376H151.1V160.032H140.972V161.376H143.288V163.944V164.304H140.576V165.672H143.168C142.94 167.088 142.292 168.468 140.54 169.524C140.9 169.764 141.452 170.268 141.692 170.592C143.78 169.284 144.452 167.46 144.668 165.672H147.5V170.556H149V165.672H151.46V164.304ZM161.716 163.068V164.124H155.512V163.992V163.068H161.716ZM163.132 165.324V161.868H155.512V161.472C158.032 161.292 160.804 160.944 162.868 160.428L161.776 159.36C160.06 159.84 157.192 160.2 154.6 160.392L154.06 160.248V163.968C154.06 165.648 153.964 167.88 152.884 169.524C153.232 169.68 153.808 170.172 154.024 170.496C155.032 169.044 155.368 167.016 155.476 165.324H163.132ZM157.084 168.852V167.424H161.812V168.852H157.084ZM155.704 166.224V170.532H157.084V170.052H161.812V170.52H163.252V166.224H155.704Z" fill="#111111"/>
<path fill-rule="evenodd" clip-rule="evenodd" d="M338.023 37C330.291 37 324.023 43.268 324.023 51C324.023 58.732 330.291 65 338.023 65C345.755 65 352.023 58.732 352.023 51C352.023 43.268 345.755 37 338.023 37ZM336.023 45C336.023 43.8954 336.919 43 338.023 43C339.128 43 340.023 43.8954 340.023 45V49H344.023C345.128 49 346.023 49.8954 346.023 51C346.023 52.1046 345.128 53 344.023 53H340.023V57C340.023 58.1046 339.128 59 338.023 59C336.919 59 336.023 58.1046 336.023 57V53H332.023C330.919 53 330.023 52.1046 330.023 51C330.023 49.8954 330.919 49 332.023 49H336.023V45Z" fill="white" fill-opacity="0.6"/>
<path d="M221.768 42.5455H217.856L213.552 45.2216V48.8693L217.456 46.483H217.558V60H221.768V42.5455ZM232.845 60.4261C237.414 60.4347 240.218 57.0597 240.226 51.2983C240.235 45.571 237.414 42.3068 232.845 42.3068C228.277 42.3068 225.482 45.5625 225.473 51.2983C225.456 57.0426 228.277 60.4261 232.845 60.4261ZM232.845 56.9744C231.03 56.9744 229.794 55.1506 229.811 51.2983C229.82 47.5227 231.039 45.733 232.845 45.733C234.661 45.733 235.88 47.5227 235.888 51.2983C235.897 55.1506 234.669 56.9744 232.845 56.9744ZM249.861 60.4261C254.429 60.4347 257.233 57.0597 257.242 51.2983C257.25 45.571 254.429 42.3068 249.861 42.3068C245.293 42.3068 242.497 45.5625 242.489 51.2983C242.472 57.0426 245.293 60.4261 249.861 60.4261ZM249.861 56.9744C248.046 56.9744 246.81 55.1506 246.827 51.2983C246.835 47.5227 248.054 45.733 249.861 45.733C251.676 45.733 252.895 47.5227 252.904 51.2983C252.912 55.1506 251.685 56.9744 249.861 56.9744Z" fill="white"/>
<path fill-rule="evenodd" clip-rule="evenodd" d="M131.693 37C123.961 37 117.693 43.268 117.693 51C117.693 58.732 123.961 65 131.693 65C139.425 65 145.693 58.732 145.693 51C145.693 43.268 139.425 37 131.693 37ZM139.693 51C139.693 49.8954 138.798 49 137.693 49H125.693C124.589 49 123.693 49.8954 123.693 51C123.693 52.1046 124.589 53 125.693 53H137.693C138.798 53 139.693 52.1046 139.693 51Z" fill="white" fill-opacity="0.6"/>
<path fill-rule="evenodd" clip-rule="evenodd" d="M338.023 113C330.291 113 324.023 119.268 324.023 127C324.023 134.732 330.291 141 338.023 141C345.755 141 352.023 134.732 352.023 127C352.023 119.268 345.755 113 338.023 113ZM336.023 121C336.023 119.895 336.919 119 338.023 119C339.128 119 340.023 119.895 340.023 121V125H344.023C345.128 125 346.023 125.895 346.023 127C346.023 128.105 345.128 129 344.023 129H340.023V133C340.023 134.105 339.128 135 338.023 135C336.919 135 336.023 134.105 336.023 133V129H332.023C330.919 129 330.023 128.105 330.023 127C330.023 125.895 330.919 125 332.023 125H336.023V121Z" fill="white" fill-opacity="0.6"/>
<path d="M221.138 136H234.059V132.599H226.985V132.489L229.073 130.562C232.857 127.264 233.846 125.585 233.846 123.582C233.846 120.438 231.28 118.307 227.317 118.307C223.457 118.307 220.874 120.531 220.883 124.085H224.88C224.88 122.509 225.851 121.597 227.3 121.597C228.724 121.597 229.755 122.474 229.755 123.915C229.755 125.219 228.937 126.105 227.505 127.392L221.138 132.966V136ZM243.125 136.239C247.19 136.239 249.9 133.682 249.9 130.085C249.9 126.761 247.582 124.392 244.446 124.392C242.793 124.392 241.42 125.099 240.841 126.062H240.739L241.139 121.946H248.869V118.545H237.67L236.912 127.955L240.636 128.653C241.105 127.869 242.077 127.384 243.099 127.392C244.702 127.392 245.844 128.526 245.835 130.205C245.844 131.875 244.719 133 243.125 133C241.77 133 240.653 132.156 240.594 130.869H236.503C236.554 134.006 239.307 136.239 243.125 136.239Z" fill="white"/>
<path fill-rule="evenodd" clip-rule="evenodd" d="M131.693 113C123.961 113 117.693 119.268 117.693 127C117.693 134.732 123.961 141 131.693 141C139.425 141 145.693 134.732 145.693 127C145.693 119.268 139.425 113 131.693 113ZM139.693 127C139.693 125.895 138.798 125 137.693 125H125.693C124.589 125 123.693 125.895 123.693 127C123.693 128.105 124.589 129 125.693 129H137.693C138.798 129 139.693 128.105 139.693 127Z" fill="white" fill-opacity="0.6"/>
<path fill-rule="evenodd" clip-rule="evenodd" d="M338.023 227C330.291 227 324.023 233.268 324.023 241C324.023 248.732 330.291 255 338.023 255C345.755 255 352.023 248.732 352.023 241C352.023 233.268 345.755 227 338.023 227ZM336.023 235C336.023 233.895 336.919 233 338.023 233C339.128 233 340.023 233.895 340.023 235V239H344.023C345.128 239 346.023 239.895 346.023 241C346.023 242.105 345.128 243 344.023 243H340.023V247C340.023 248.105 339.128 249 338.023 249C336.919 249 336.023 248.105 336.023 247V243H332.023C330.919 243 330.023 242.105 330.023 241C330.023 239.895 330.919 239 332.023 239H336.023V235Z" fill="white" fill-opacity="0.6"/>
<path d="M219.683 247.102H228.112V250H232.143V247.102H234.231V243.778H232.143V232.545H226.834L219.683 243.812V247.102ZM228.197 243.778H223.876V243.642L228.061 237.011H228.197V243.778ZM243.662 250.426C248.23 250.435 251.034 247.06 251.043 241.298C251.051 235.571 248.23 232.307 243.662 232.307C239.094 232.307 236.298 235.562 236.29 241.298C236.273 247.043 239.094 250.426 243.662 250.426ZM243.662 246.974C241.846 246.974 240.611 245.151 240.628 241.298C240.636 237.523 241.855 235.733 243.662 235.733C245.477 235.733 246.696 237.523 246.704 241.298C246.713 245.151 245.486 246.974 243.662 246.974Z" fill="white"/>
<path fill-rule="evenodd" clip-rule="evenodd" d="M131.693 227C123.961 227 117.693 233.268 117.693 241C117.693 248.732 123.961 255 131.693 255C139.425 255 145.693 248.732 145.693 241C145.693 233.268 139.425 227 131.693 227ZM139.693 241C139.693 239.895 138.798 239 137.693 239H125.693C124.589 239 123.693 239.895 123.693 241C123.693 242.105 124.589 243 125.693 243H137.693C138.798 243 139.693 242.105 139.693 241Z" fill="white" fill-opacity="0.6"/>
<rect x="377" y="38" width="1" height="26" fill="white" fill-opacity="0.1"/>
<rect width="73" height="26" transform="translate(378 38)" fill="white" fill-opacity="0.1"/>
<path d="M411.692 52.786V53.787H407.844V52.786H411.692ZM407.844 55.503V54.476H411.692V55.503H407.844ZM406.934 56.738H407.844V56.257H411.692V56.699H412.654V52.045H406.934V56.738ZM407.584 48.847C407.818 49.315 408.039 49.952 408.13 50.342L408.754 50.147C408.663 49.757 408.416 49.133 408.182 48.678L407.584 48.847ZM411.107 50.342C411.341 49.965 411.601 49.406 411.848 48.886L411.172 48.665C411.042 49.081 410.795 49.718 410.587 50.147L411.107 50.342ZM412.433 50.563H410.093V48.379H412.433V50.563ZM407.09 48.379H409.365V50.563H407.09V48.379ZM408.689 45.22V46.052H410.99C411.354 46.611 411.809 47.157 412.303 47.651H407.207C407.688 47.092 408.13 46.455 408.455 45.818L407.61 45.571C407.116 46.494 406.349 47.378 405.543 48.028H404.425V45.077H403.489V48.028H402.111V48.951H403.489V53.111C402.904 53.345 402.358 53.566 401.929 53.722L402.254 54.684L406.063 53.007L405.829 52.136C405.361 52.331 404.88 52.539 404.425 52.721V48.951H405.569V48.418C405.725 48.574 405.894 48.769 405.972 48.873C406.089 48.782 406.206 48.678 406.323 48.574V51.304H413.252V48.509C413.343 48.587 413.447 48.665 413.538 48.73C413.694 48.496 413.993 48.171 414.175 48.002C413.213 47.404 412.108 46.312 411.497 45.22H408.689ZM420.87 47.313H417.997C418.01 46.572 418.023 45.818 418.023 45.051H417.074C417.074 45.818 417.074 46.572 417.061 47.313H415.241V48.262H417.035C416.931 51.512 416.541 54.385 414.929 56.088C415.163 56.231 415.514 56.543 415.657 56.751C417.412 54.853 417.854 51.746 417.971 48.262H419.934C419.843 53.241 419.726 55.009 419.427 55.373C419.336 55.555 419.206 55.594 418.998 55.581C418.764 55.581 418.205 55.581 417.607 55.529C417.776 55.802 417.867 56.218 417.893 56.504C418.465 56.543 419.063 56.543 419.414 56.491C419.804 56.452 420.038 56.335 420.272 55.997C420.675 55.438 420.766 53.553 420.87 47.807V47.313ZM422.846 54.671V47.417H425.368V54.671H422.846ZM421.936 46.481V56.543H422.846V55.594H425.368V56.452H426.33V46.481H421.936Z" fill="white" fill-opacity="0.6"/>
<path d="M461.98 55H464.152V51.875H467.262V50.125H464.152V48.75H467.605V47H461.98V55ZM469.42 55H475.561V53.2656H472.436V53.2187L473.186 52.5938C475.01 51.0742 475.475 50.2852 475.475 49.3594C475.475 47.8672 474.252 46.8906 472.334 46.8906C470.471 46.8906 469.26 47.9258 469.264 49.6094H471.326C471.322 48.9375 471.732 48.5625 472.334 48.5625C472.932 48.5625 473.357 48.9336 473.357 49.5469C473.357 50.1133 472.994 50.4805 472.404 50.9687L469.42 53.4375V55Z" fill="white" fill-opacity="0.8"/>
<rect x="451.5" y="38.5" width="34" height="25" stroke="white" stroke-opacity="0.1"/>
<rect x="377" y="76" width="1" height="26" fill="white" fill-opacity="0.1"/>
<rect width="73" height="26" transform="translate(378 76)" fill="white" fill-opacity="0.1"/>
<path d="M404.841 91.371C404.49 91.371 404.438 91.293 404.438 90.825V87.406L407.545 86.743L407.363 85.872L404.438 86.496V83.233H403.489V86.691L401.929 87.029L402.098 87.913L403.489 87.614V90.812C403.489 91.969 403.749 92.281 404.711 92.281H406.076C406.96 92.281 407.194 91.722 407.298 89.928C407.038 89.863 406.648 89.694 406.427 89.512C406.401 91.033 406.336 91.371 405.998 91.371H404.841ZM406.726 84.013V84.936H408.988C408.936 88.693 408.728 92.242 405.53 94.023C405.764 94.205 406.089 94.543 406.232 94.79C409.573 92.801 409.872 88.979 409.963 84.936H412.693C412.537 90.812 412.355 92.97 411.965 93.451C411.822 93.633 411.679 93.685 411.458 93.672C411.159 93.672 410.47 93.672 409.716 93.607C409.885 93.893 410.015 94.309 410.028 94.595C410.704 94.634 411.432 94.647 411.848 94.595C412.29 94.543 412.576 94.426 412.849 94.023C413.369 93.36 413.499 91.176 413.668 84.546C413.668 84.416 413.681 84.013 413.681 84.013H406.726ZM418.998 89.473L418.868 88.576L417.62 88.979V86.379H418.829V85.482H417.62V82.882H416.671V85.482H415.163V86.379H416.671V89.265C416.047 89.447 415.475 89.629 415.02 89.733L415.267 90.669C415.696 90.539 416.177 90.396 416.671 90.227V93.555C416.671 93.724 416.606 93.776 416.463 93.776C416.333 93.776 415.878 93.776 415.397 93.763C415.514 94.036 415.644 94.465 415.683 94.712C416.411 94.725 416.892 94.686 417.191 94.517C417.516 94.361 417.62 94.088 417.62 93.555V89.915L418.998 89.473ZM420.714 89.98V86.912H422.43V88.277C422.43 88.784 422.417 89.369 422.261 89.98H420.714ZM424.146 84.845C423.847 85.274 423.483 85.755 423.119 86.132H420.454C420.831 85.716 421.156 85.274 421.455 84.845H424.146ZM424.939 89.98H423.21C423.353 89.382 423.379 88.81 423.379 88.29V86.912H424.939V89.98ZM426.798 90.825V89.98H425.888V86.132H424.237C424.718 85.599 425.199 84.962 425.55 84.403L424.9 83.961L424.744 84.013H421.962C422.144 83.688 422.313 83.35 422.456 83.025L421.494 82.856C421.026 83.935 420.168 85.313 418.907 86.34C419.115 86.483 419.414 86.795 419.544 87.016C419.622 86.938 419.713 86.873 419.791 86.795V89.98H418.855V90.825H421.975C421.468 91.943 420.376 93.1 418.14 94.088C418.374 94.244 418.66 94.569 418.803 94.764C421 93.724 422.144 92.515 422.742 91.319C423.574 92.84 424.887 94.075 426.421 94.712C426.564 94.465 426.837 94.127 427.032 93.945C425.485 93.399 424.159 92.242 423.418 90.825H426.798Z" fill="white" fill-opacity="0.6"/>
<path d="M461.592 93H463.764V89.875H466.874V88.125H463.764V86.75H467.217V85H461.592V93ZM472.157 93.1094C474.114 93.1094 475.493 92.1133 475.485 90.7031C475.493 89.7227 474.836 89.0312 473.547 88.8906V88.8281C474.5 88.7266 475.196 88.1133 475.188 87.2187C475.196 85.8711 473.946 84.8906 472.172 84.8906C470.36 84.8906 469.071 85.9258 469.063 87.3906H471.141C471.149 86.9062 471.575 86.5625 472.172 86.5625C472.719 86.5625 473.102 86.8945 473.094 87.3594C473.102 87.8438 472.649 88.1875 472 88.1875H471.188V89.6875H472C472.704 89.6875 473.196 90.0312 473.188 90.5156C473.196 91.0117 472.774 91.3594 472.172 91.3594C471.547 91.3594 471.102 91.0273 471.094 90.5625H468.907C468.915 92.0547 470.262 93.1094 472.157 93.1094Z" fill="white" fill-opacity="0.8"/>
<rect x="451.5" y="76.5" width="34" height="25" stroke="white" stroke-opacity="0.1"/>
<rect x="377" y="114" width="1" height="26" fill="white" fill-opacity="0.1"/>
<rect width="72" height="26" transform="translate(378 114)" fill="white" fill-opacity="0.1"/>
<path d="M411.192 128.786V129.787H407.344V128.786H411.192ZM407.344 131.503V130.476H411.192V131.503H407.344ZM406.434 132.738H407.344V132.257H411.192V132.699H412.154V128.045H406.434V132.738ZM407.084 124.847C407.318 125.315 407.539 125.952 407.63 126.342L408.254 126.147C408.163 125.757 407.916 125.133 407.682 124.678L407.084 124.847ZM410.607 126.342C410.841 125.965 411.101 125.406 411.348 124.886L410.672 124.665C410.542 125.081 410.295 125.718 410.087 126.147L410.607 126.342ZM411.933 126.563H409.593V124.379H411.933V126.563ZM406.59 124.379H408.865V126.563H406.59V124.379ZM408.189 121.22V122.052H410.49C410.854 122.611 411.309 123.157 411.803 123.651H406.707C407.188 123.092 407.63 122.455 407.955 121.818L407.11 121.571C406.616 122.494 405.849 123.378 405.043 124.028H403.925V121.077H402.989V124.028H401.611V124.951H402.989V129.111C402.404 129.345 401.858 129.566 401.429 129.722L401.754 130.684L405.563 129.007L405.329 128.136C404.861 128.331 404.38 128.539 403.925 128.721V124.951H405.069V124.418C405.225 124.574 405.394 124.769 405.472 124.873C405.589 124.782 405.706 124.678 405.823 124.574V127.304H412.752V124.509C412.843 124.587 412.947 124.665 413.038 124.73C413.194 124.496 413.493 124.171 413.675 124.002C412.713 123.404 411.608 122.312 410.997 121.22H408.189ZM420.37 123.313H417.497C417.51 122.572 417.523 121.818 417.523 121.051H416.574C416.574 121.818 416.574 122.572 416.561 123.313H414.741V124.262H416.535C416.431 127.512 416.041 130.385 414.429 132.088C414.663 132.231 415.014 132.543 415.157 132.751C416.912 130.853 417.354 127.746 417.471 124.262H419.434C419.343 129.241 419.226 131.009 418.927 131.373C418.836 131.555 418.706 131.594 418.498 131.581C418.264 131.581 417.705 131.581 417.107 131.529C417.276 131.802 417.367 132.218 417.393 132.504C417.965 132.543 418.563 132.543 418.914 132.491C419.304 132.452 419.538 132.335 419.772 131.997C420.175 131.438 420.266 129.553 420.37 123.807V123.313ZM422.346 130.671V123.417H424.868V130.671H422.346ZM421.436 122.481V132.543H422.346V131.594H424.868V132.452H425.83V122.481H421.436Z" fill="white" fill-opacity="0.6"/>
<path d="M460.942 131H463.114V127.875H466.223V126.125H463.114V124.75H466.567V123H460.942V131ZM468.303 129.75H472.194V131H474.272V129.75H475.194V128.062H474.272V123H471.522L468.303 128.062V129.75ZM472.241 128.062H470.444V128L472.178 125.25H472.241V128.062Z" fill="white" fill-opacity="0.8"/>
<rect x="450.5" y="114.5" width="35" height="25" stroke="white" stroke-opacity="0.1"/>
<rect x="377" y="152" width="1" height="26" fill="white" fill-opacity="0.1"/>
<rect width="73" height="26" transform="translate(378 152)" fill="white" fill-opacity="0.1"/>
<path d="M404.841 167.371C404.49 167.371 404.438 167.293 404.438 166.825V163.406L407.545 162.743L407.363 161.872L404.438 162.496V159.233H403.489V162.691L401.929 163.029L402.098 163.913L403.489 163.614V166.812C403.489 167.969 403.749 168.281 404.711 168.281H406.076C406.96 168.281 407.194 167.722 407.298 165.928C407.038 165.863 406.648 165.694 406.427 165.512C406.401 167.033 406.336 167.371 405.998 167.371H404.841ZM406.726 160.013V160.936H408.988C408.936 164.693 408.728 168.242 405.53 170.023C405.764 170.205 406.089 170.543 406.232 170.79C409.573 168.801 409.872 164.979 409.963 160.936H412.693C412.537 166.812 412.355 168.97 411.965 169.451C411.822 169.633 411.679 169.685 411.458 169.672C411.159 169.672 410.47 169.672 409.716 169.607C409.885 169.893 410.015 170.309 410.028 170.595C410.704 170.634 411.432 170.647 411.848 170.595C412.29 170.543 412.576 170.426 412.849 170.023C413.369 169.36 413.499 167.176 413.668 160.546C413.668 160.416 413.681 160.013 413.681 160.013H406.726ZM418.998 165.473L418.868 164.576L417.62 164.979V162.379H418.829V161.482H417.62V158.882H416.671V161.482H415.163V162.379H416.671V165.265C416.047 165.447 415.475 165.629 415.02 165.733L415.267 166.669C415.696 166.539 416.177 166.396 416.671 166.227V169.555C416.671 169.724 416.606 169.776 416.463 169.776C416.333 169.776 415.878 169.776 415.397 169.763C415.514 170.036 415.644 170.465 415.683 170.712C416.411 170.725 416.892 170.686 417.191 170.517C417.516 170.361 417.62 170.088 417.62 169.555V165.915L418.998 165.473ZM420.714 165.98V162.912H422.43V164.277C422.43 164.784 422.417 165.369 422.261 165.98H420.714ZM424.146 160.845C423.847 161.274 423.483 161.755 423.119 162.132H420.454C420.831 161.716 421.156 161.274 421.455 160.845H424.146ZM424.939 165.98H423.21C423.353 165.382 423.379 164.81 423.379 164.29V162.912H424.939V165.98ZM426.798 166.825V165.98H425.888V162.132H424.237C424.718 161.599 425.199 160.962 425.55 160.403L424.9 159.961L424.744 160.013H421.962C422.144 159.688 422.313 159.35 422.456 159.025L421.494 158.856C421.026 159.935 420.168 161.313 418.907 162.34C419.115 162.483 419.414 162.795 419.544 163.016C419.622 162.938 419.713 162.873 419.791 162.795V165.98H418.855V166.825H421.975C421.468 167.943 420.376 169.1 418.14 170.088C418.374 170.244 418.66 170.569 418.803 170.764C421 169.724 422.144 168.515 422.742 167.319C423.574 168.84 424.887 170.075 426.421 170.712C426.564 170.465 426.837 170.127 427.032 169.945C425.485 169.399 424.159 168.242 423.418 166.825H426.798Z" fill="white" fill-opacity="0.6"/>
<path d="M461.625 169H463.796V165.875H466.906V164.125H463.796V162.75H467.25V161H461.625V169ZM472.267 169.109C474.216 169.109 475.49 167.926 475.486 166.25C475.49 164.73 474.427 163.656 473.001 163.656C472.189 163.656 471.533 164.016 471.283 164.5H471.236L471.392 162.734H474.986V161H469.611L469.298 165.406L471.205 165.781C471.388 165.391 471.806 165.156 472.267 165.156C472.931 165.156 473.396 165.613 473.392 166.312C473.396 167.012 472.931 167.469 472.267 167.469C471.693 167.469 471.22 167.117 471.205 166.562H469.095C469.107 168.055 470.423 169.109 472.267 169.109Z" fill="white" fill-opacity="0.8"/>
<rect x="451.5" y="152.5" width="34" height="25" stroke="white" stroke-opacity="0.1"/>
<rect x="377" y="190" width="1" height="26" fill="white" fill-opacity="0.1"/>
<rect width="73" height="26" transform="translate(378 190)" fill="white" fill-opacity="0.1"/>
<path d="M404.841 205.371C404.49 205.371 404.438 205.293 404.438 204.825V201.406L407.545 200.743L407.363 199.872L404.438 200.496V197.233H403.489V200.691L401.929 201.029L402.098 201.913L403.489 201.614V204.812C403.489 205.969 403.749 206.281 404.711 206.281H406.076C406.96 206.281 407.194 205.722 407.298 203.928C407.038 203.863 406.648 203.694 406.427 203.512C406.401 205.033 406.336 205.371 405.998 205.371H404.841ZM406.726 198.013V198.936H408.988C408.936 202.693 408.728 206.242 405.53 208.023C405.764 208.205 406.089 208.543 406.232 208.79C409.573 206.801 409.872 202.979 409.963 198.936H412.693C412.537 204.812 412.355 206.97 411.965 207.451C411.822 207.633 411.679 207.685 411.458 207.672C411.159 207.672 410.47 207.672 409.716 207.607C409.885 207.893 410.015 208.309 410.028 208.595C410.704 208.634 411.432 208.647 411.848 208.595C412.29 208.543 412.576 208.426 412.849 208.023C413.369 207.36 413.499 205.176 413.668 198.546C413.668 198.416 413.681 198.013 413.681 198.013H406.726ZM418.998 203.473L418.868 202.576L417.62 202.979V200.379H418.829V199.482H417.62V196.882H416.671V199.482H415.163V200.379H416.671V203.265C416.047 203.447 415.475 203.629 415.02 203.733L415.267 204.669C415.696 204.539 416.177 204.396 416.671 204.227V207.555C416.671 207.724 416.606 207.776 416.463 207.776C416.333 207.776 415.878 207.776 415.397 207.763C415.514 208.036 415.644 208.465 415.683 208.712C416.411 208.725 416.892 208.686 417.191 208.517C417.516 208.361 417.62 208.088 417.62 207.555V203.915L418.998 203.473ZM420.714 203.98V200.912H422.43V202.277C422.43 202.784 422.417 203.369 422.261 203.98H420.714ZM424.146 198.845C423.847 199.274 423.483 199.755 423.119 200.132H420.454C420.831 199.716 421.156 199.274 421.455 198.845H424.146ZM424.939 203.98H423.21C423.353 203.382 423.379 202.81 423.379 202.29V200.912H424.939V203.98ZM426.798 204.825V203.98H425.888V200.132H424.237C424.718 199.599 425.199 198.962 425.55 198.403L424.9 197.961L424.744 198.013H421.962C422.144 197.688 422.313 197.35 422.456 197.025L421.494 196.856C421.026 197.935 420.168 199.313 418.907 200.34C419.115 200.483 419.414 200.795 419.544 201.016C419.622 200.938 419.713 200.873 419.791 200.795V203.98H418.855V204.825H421.975C421.468 205.943 420.376 207.1 418.14 208.088C418.374 208.244 418.66 208.569 418.803 208.764C421 207.724 422.144 206.515 422.742 205.319C423.574 206.84 424.887 208.075 426.421 208.712C426.564 208.465 426.837 208.127 427.032 207.945C425.485 207.399 424.159 206.242 423.418 204.825H426.798Z" fill="white" fill-opacity="0.6"/>
<path d="M461.539 207H463.71V203.875H466.82V202.125H463.71V200.75H467.164V199H461.539V207ZM472.322 207.109C474.212 207.109 475.533 205.973 475.525 204.25C475.533 202.785 474.552 201.719 473.103 201.719C472.189 201.719 471.361 202.156 471.056 202.891H471.009C471.017 201.598 471.423 200.734 472.337 200.734C472.794 200.734 473.193 200.937 473.291 201.391H475.431C475.294 200.023 474.103 198.891 472.337 198.891C470.24 198.891 468.861 200.5 468.853 203.094C468.845 206 470.455 207.109 472.322 207.109ZM472.306 205.469C471.673 205.469 471.205 204.988 471.197 204.328C471.205 203.668 471.673 203.188 472.306 203.188C472.955 203.188 473.423 203.668 473.416 204.328C473.423 204.988 472.955 205.469 472.306 205.469Z" fill="white" fill-opacity="0.8"/>
<rect x="451.5" y="190.5" width="34" height="25" stroke="white" stroke-opacity="0.1"/>
<rect x="377" y="228" width="1" height="26" fill="white" fill-opacity="0.1"/>
<rect width="73" height="26" transform="translate(378 228)" fill="white" fill-opacity="0.1"/>
<path d="M411.692 242.786V243.787H407.844V242.786H411.692ZM407.844 245.503V244.476H411.692V245.503H407.844ZM406.934 246.738H407.844V246.257H411.692V246.699H412.654V242.045H406.934V246.738ZM407.584 238.847C407.818 239.315 408.039 239.952 408.13 240.342L408.754 240.147C408.663 239.757 408.416 239.133 408.182 238.678L407.584 238.847ZM411.107 240.342C411.341 239.965 411.601 239.406 411.848 238.886L411.172 238.665C411.042 239.081 410.795 239.718 410.587 240.147L411.107 240.342ZM412.433 240.563H410.093V238.379H412.433V240.563ZM407.09 238.379H409.365V240.563H407.09V238.379ZM408.689 235.22V236.052H410.99C411.354 236.611 411.809 237.157 412.303 237.651H407.207C407.688 237.092 408.13 236.455 408.455 235.818L407.61 235.571C407.116 236.494 406.349 237.378 405.543 238.028H404.425V235.077H403.489V238.028H402.111V238.951H403.489V243.111C402.904 243.345 402.358 243.566 401.929 243.722L402.254 244.684L406.063 243.007L405.829 242.136C405.361 242.331 404.88 242.539 404.425 242.721V238.951H405.569V238.418C405.725 238.574 405.894 238.769 405.972 238.873C406.089 238.782 406.206 238.678 406.323 238.574V241.304H413.252V238.509C413.343 238.587 413.447 238.665 413.538 238.73C413.694 238.496 413.993 238.171 414.175 238.002C413.213 237.404 412.108 236.312 411.497 235.22H408.689ZM420.87 237.313H417.997C418.01 236.572 418.023 235.818 418.023 235.051H417.074C417.074 235.818 417.074 236.572 417.061 237.313H415.241V238.262H417.035C416.931 241.512 416.541 244.385 414.929 246.088C415.163 246.231 415.514 246.543 415.657 246.751C417.412 244.853 417.854 241.746 417.971 238.262H419.934C419.843 243.241 419.726 245.009 419.427 245.373C419.336 245.555 419.206 245.594 418.998 245.581C418.764 245.581 418.205 245.581 417.607 245.529C417.776 245.802 417.867 246.218 417.893 246.504C418.465 246.543 419.063 246.543 419.414 246.491C419.804 246.452 420.038 246.335 420.272 245.997C420.675 245.438 420.766 243.553 420.87 237.807V237.313ZM422.846 244.671V237.417H425.368V244.671H422.846ZM421.936 236.481V246.543H422.846V245.594H425.368V246.452H426.33V236.481H421.936Z" fill="white" fill-opacity="0.6"/>
<path d="M461.947 245H464.119V241.875H467.228V240.125H464.119V238.75H467.572V237H461.947V245ZM469.746 245H471.98L475.136 238.734V237H469.199V238.734H472.886V238.781L469.746 245Z" fill="white" fill-opacity="0.8"/>
<rect x="451.5" y="228.5" width="34" height="25" stroke="white" stroke-opacity="0.1"/>
<rect x="377" y="266" width="1" height="26" fill="white" fill-opacity="0.1"/>
<rect width="72" height="26" transform="translate(378 266)" fill="white" fill-opacity="0.1"/>
<path d="M404.341 281.371C403.99 281.371 403.938 281.293 403.938 280.825V277.406L407.045 276.743L406.863 275.872L403.938 276.496V273.233H402.989V276.691L401.429 277.029L401.598 277.913L402.989 277.614V280.812C402.989 281.969 403.249 282.281 404.211 282.281H405.576C406.46 282.281 406.694 281.722 406.798 279.928C406.538 279.863 406.148 279.694 405.927 279.512C405.901 281.033 405.836 281.371 405.498 281.371H404.341ZM406.226 274.013V274.936H408.488C408.436 278.693 408.228 282.242 405.03 284.023C405.264 284.205 405.589 284.543 405.732 284.79C409.073 282.801 409.372 278.979 409.463 274.936H412.193C412.037 280.812 411.855 282.97 411.465 283.451C411.322 283.633 411.179 283.685 410.958 283.672C410.659 283.672 409.97 283.672 409.216 283.607C409.385 283.893 409.515 284.309 409.528 284.595C410.204 284.634 410.932 284.647 411.348 284.595C411.79 284.543 412.076 284.426 412.349 284.023C412.869 283.36 412.999 281.176 413.168 274.546C413.168 274.416 413.181 274.013 413.181 274.013H406.226ZM418.498 279.473L418.368 278.576L417.12 278.979V276.379H418.329V275.482H417.12V272.882H416.171V275.482H414.663V276.379H416.171V279.265C415.547 279.447 414.975 279.629 414.52 279.733L414.767 280.669C415.196 280.539 415.677 280.396 416.171 280.227V283.555C416.171 283.724 416.106 283.776 415.963 283.776C415.833 283.776 415.378 283.776 414.897 283.763C415.014 284.036 415.144 284.465 415.183 284.712C415.911 284.725 416.392 284.686 416.691 284.517C417.016 284.361 417.12 284.088 417.12 283.555V279.915L418.498 279.473ZM420.214 279.98V276.912H421.93V278.277C421.93 278.784 421.917 279.369 421.761 279.98H420.214ZM423.646 274.845C423.347 275.274 422.983 275.755 422.619 276.132H419.954C420.331 275.716 420.656 275.274 420.955 274.845H423.646ZM424.439 279.98H422.71C422.853 279.382 422.879 278.81 422.879 278.29V276.912H424.439V279.98ZM426.298 280.825V279.98H425.388V276.132H423.737C424.218 275.599 424.699 274.962 425.05 274.403L424.4 273.961L424.244 274.013H421.462C421.644 273.688 421.813 273.35 421.956 273.025L420.994 272.856C420.526 273.935 419.668 275.313 418.407 276.34C418.615 276.483 418.914 276.795 419.044 277.016C419.122 276.938 419.213 276.873 419.291 276.795V279.98H418.355V280.825H421.475C420.968 281.943 419.876 283.1 417.64 284.088C417.874 284.244 418.16 284.569 418.303 284.764C420.5 283.724 421.644 282.515 422.242 281.319C423.074 282.84 424.387 284.075 425.921 284.712C426.064 284.465 426.337 284.127 426.532 283.945C424.985 283.399 423.659 282.242 422.918 280.825H426.298Z" fill="white" fill-opacity="0.6"/>
<path d="M461.006 283H463.178V279.875H466.288V278.125H463.178V276.75H466.631V275H461.006V283ZM471.711 283.109C473.649 283.109 475.071 282.125 475.071 280.828C475.071 279.84 474.239 279.047 473.211 278.891V278.828C474.106 278.672 474.774 277.957 474.774 277.062C474.774 275.812 473.477 274.891 471.711 274.891C469.946 274.891 468.649 275.809 468.649 277.062C468.649 277.953 469.301 278.672 470.211 278.828V278.891C469.168 279.047 468.352 279.84 468.352 280.828C468.352 282.125 469.774 283.109 471.711 283.109ZM471.711 281.609C471.098 281.609 470.649 281.195 470.649 280.641C470.649 280.086 471.098 279.687 471.711 279.687C472.325 279.687 472.774 280.09 472.774 280.641C472.774 281.199 472.325 281.609 471.711 281.609ZM471.711 278.188C471.168 278.188 470.774 277.812 470.774 277.312C470.774 276.812 471.168 276.453 471.711 276.453C472.254 276.453 472.649 276.816 472.649 277.312C472.649 277.816 472.254 278.188 471.711 278.188Z" fill="white" fill-opacity="0.8"/>
<rect x="450.5" y="266.5" width="35" height="25" stroke="white" stroke-opacity="0.1"/>
<rect x="377" width="1" height="26" fill="white" fill-opacity="0.1"/>
<rect width="75" height="26" transform="translate(378)" fill="white" fill-opacity="0.1"/>
<path d="M412.692 14.786V15.787H408.844V14.786H412.692ZM408.844 17.503V16.476H412.692V17.503H408.844ZM407.934 18.738H408.844V18.257H412.692V18.699H413.654V14.045H407.934V18.738ZM408.584 10.847C408.818 11.315 409.039 11.952 409.13 12.342L409.754 12.147C409.663 11.757 409.416 11.133 409.182 10.678L408.584 10.847ZM412.107 12.342C412.341 11.965 412.601 11.406 412.848 10.886L412.172 10.665C412.042 11.081 411.795 11.718 411.587 12.147L412.107 12.342ZM413.433 12.563H411.093V10.379H413.433V12.563ZM408.09 10.379H410.365V12.563H408.09V10.379ZM409.689 7.22V8.052H411.99C412.354 8.611 412.809 9.157 413.303 9.651H408.207C408.688 9.092 409.13 8.455 409.455 7.818L408.61 7.571C408.116 8.494 407.349 9.378 406.543 10.028H405.425V7.077H404.489V10.028H403.111V10.951H404.489V15.111C403.904 15.345 403.358 15.566 402.929 15.722L403.254 16.684L407.063 15.007L406.829 14.136C406.361 14.331 405.88 14.539 405.425 14.721V10.951H406.569V10.418C406.725 10.574 406.894 10.769 406.972 10.873C407.089 10.782 407.206 10.678 407.323 10.574V13.304H414.252V10.509C414.343 10.587 414.447 10.665 414.538 10.73C414.694 10.496 414.993 10.171 415.175 10.002C414.213 9.404 413.108 8.312 412.497 7.22H409.689ZM421.87 9.313H418.997C419.01 8.572 419.023 7.818 419.023 7.051H418.074C418.074 7.818 418.074 8.572 418.061 9.313H416.241V10.262H418.035C417.931 13.512 417.541 16.385 415.929 18.088C416.163 18.231 416.514 18.543 416.657 18.751C418.412 16.853 418.854 13.746 418.971 10.262H420.934C420.843 15.241 420.726 17.009 420.427 17.373C420.336 17.555 420.206 17.594 419.998 17.581C419.764 17.581 419.205 17.581 418.607 17.529C418.776 17.802 418.867 18.218 418.893 18.504C419.465 18.543 420.063 18.543 420.414 18.491C420.804 18.452 421.038 18.335 421.272 17.997C421.675 17.438 421.766 15.553 421.87 9.807V9.313ZM423.846 16.671V9.417H426.368V16.671H423.846ZM422.936 8.481V18.543H423.846V17.594H426.368V18.452H427.33V8.481H422.936Z" fill="white" fill-opacity="0.6"/>
<path d="M463.527 17H465.699V13.875H468.809V12.125H465.699V10.75H469.152V9H463.527V17ZM474.889 9H472.889L470.92 10.2031V12.0469L472.67 11H472.717V17H474.889V9Z" fill="white" fill-opacity="0.8"/>
<rect x="453.5" y="0.5" width="32" height="25" stroke="white" stroke-opacity="0.1"/>
<defs>
<linearGradient id="paint0_linear" x1="172" y1="155" x2="155.758" y2="186.671" gradientUnits="userSpaceOnUse">
<stop stop-color="#0BF2F6"/>
<stop offset="1" stop-color="#13CFFF"/>
</linearGradient>
</defs>
</svg>
