<?xml version="1.0" encoding="UTF-8"?>
<!DOCTYPE svg PUBLIC "-//W3C//DTD SVG 1.1//EN" "http://www.w3.org/Graphics/SVG/1.1/DTD/svg11.dtd">
<svg version="1.1" xmlns="http://www.w3.org/2000/svg" xmlns:xlink="http://www.w3.org/1999/xlink" width="263" height="286" viewBox="0 0 263 286" fill="none">
<path d="M5.057 10.099H3.848V8.864H4.979V6.498C5.408 7.33 5.798 8.37 5.902 9.072L6.786 8.682V9.501C6.786 9.735 6.786 9.982 6.773 10.229C6.162 10.593 5.564 10.918 5.057 11.191V10.099ZM2.301 5.9H3.679V7.59H2.301V5.9ZM6.786 7.2C6.578 6.706 6.331 6.186 6.058 5.744L4.979 6.225V4.613H1.053V8.864H2.613V13.492L2.093 13.622V9.67H1.027V13.869L0.377 14.012L0.689 15.416C2.028 15.065 3.757 14.597 5.382 14.142L5.2 12.855C4.745 12.972 4.303 13.076 3.848 13.193V11.451H4.55L4.524 11.464L5.356 12.881C5.772 12.556 6.201 12.192 6.643 11.828C6.448 13.128 5.954 14.337 4.719 15.026C5.044 15.273 5.525 15.819 5.733 16.144C7.865 14.675 8.19 11.958 8.19 9.501V3.976H6.786V7.2ZM10.556 14.584C10.335 14.584 10.296 14.506 10.296 13.934V11.269C10.855 11.776 11.401 12.322 11.713 12.712L12.727 11.62C12.259 11.074 11.258 10.255 10.556 9.696L10.296 9.956V8.656L11.024 9.059C11.492 8.357 12.038 7.252 12.571 6.316L11.128 5.627C10.933 6.277 10.621 7.083 10.296 7.785V3.976H8.853V13.921C8.853 15.52 9.165 15.949 10.27 15.949H11.271C12.207 15.949 12.571 15.325 12.714 13.752C12.298 13.661 11.765 13.401 11.44 13.141C11.401 14.259 11.362 14.584 11.154 14.584H10.556ZM15.223 5.783H16.809V7.46H15.223V5.783ZM18.252 13.024L16.913 13.375V11.594H18.291V10.255H16.913V8.76H18.161V4.483H13.949V8.76H15.561V13.713L15.067 13.843V9.852H13.871V14.142C13.663 14.194 13.481 14.233 13.299 14.272L13.663 15.728C15.015 15.338 16.796 14.818 18.447 14.337L18.252 13.024ZM25.402 10.047V8.617H22.737V5.9C23.582 5.731 24.401 5.51 25.09 5.263L23.985 4.041C22.698 4.535 20.605 4.938 18.733 5.185C18.915 5.523 19.11 6.069 19.162 6.433C19.825 6.368 20.514 6.277 21.216 6.16V8.617H18.668V10.047H21.177C21.021 11.75 20.436 13.739 18.018 15.117C18.382 15.39 18.889 15.91 19.11 16.222C20.748 15.169 21.671 13.843 22.152 12.491C22.711 14.077 23.504 15.364 24.687 16.17C24.921 15.767 25.402 15.182 25.753 14.896C24.193 13.999 23.296 12.166 22.828 10.047H25.402ZM33.605 14.025H31.356V13.18H33.605V14.025ZM37.765 10.281H27.339V16.131H28.847V11.568H36.205V14.467C36.205 14.623 36.153 14.662 35.958 14.675C35.815 14.688 35.412 14.688 34.97 14.675V12.153H30.004V15.65H31.356V15.065H34.71C34.853 15.403 34.97 15.806 35.009 16.105C35.945 16.105 36.634 16.092 37.115 15.858C37.622 15.624 37.765 15.208 37.765 14.493V10.281ZM34.476 8.695H30.42V7.902H34.476V8.695ZM28.951 6.875V9.735H36.049V6.875H28.951ZM33.202 5.068V3.976H31.629V5.068H26.819V6.381H38.181V5.068H33.202ZM41.951 6.537H51.324V5.159H46.709V4.002H45.097V5.159H40.469V8.799C40.469 10.697 40.391 13.401 39.312 15.247C39.663 15.403 40.313 15.832 40.573 16.092C41.756 14.09 41.951 10.905 41.951 8.799V6.537ZM47.853 8.851V9.709H45.487V8.851H47.853ZM49.387 10.879V8.851H51.259V7.629H49.387V6.771H47.853V7.629H45.487V6.771H44.031V7.629H42.276V8.851H44.031V10.879H49.387ZM48.334 12.608C47.905 13.024 47.372 13.388 46.774 13.674C46.163 13.375 45.643 13.024 45.253 12.608H48.334ZM49.647 11.334L49.374 11.399H42.367V12.608H44.304L43.693 12.829C44.109 13.388 44.616 13.869 45.188 14.272C44.161 14.571 43.017 14.753 41.821 14.857C42.055 15.182 42.328 15.767 42.445 16.157C43.992 15.962 45.448 15.65 46.722 15.143C47.853 15.65 49.179 15.988 50.674 16.17C50.869 15.767 51.272 15.169 51.584 14.844C50.414 14.74 49.335 14.558 48.386 14.285C49.322 13.661 50.089 12.855 50.609 11.815L49.647 11.334Z" fill="white" fill-opacity="0.5"/>
<path d="M6.812 45.161V51.245H8.086V46.331H10.79V51.206H12.116V45.161H9.75C9.906 44.823 10.049 44.446 10.205 44.056H12.519V42.717H6.708V44.056H8.827C8.71 44.433 8.567 44.823 8.45 45.161H6.812ZM2.873 52.493V51.219H4.511V52.493H2.873ZM2.067 50.023C2.691 49.737 3.289 49.386 3.848 48.996C4.537 49.36 5.187 49.737 5.616 50.023H2.067ZM8.827 46.812C8.762 50.452 8.671 52.116 5.928 53.052V50.023H5.785L6.799 49.035C6.331 48.749 5.655 48.398 4.953 48.034C5.538 47.462 6.019 46.773 6.37 46.032L5.629 45.525H6.5V43.263H4.576C4.407 42.873 4.186 42.405 3.991 42.041L2.522 42.34C2.652 42.613 2.795 42.951 2.925 43.263H0.598V45.525H1.924V44.485H5.109V45.499H3.549C3.666 45.317 3.783 45.122 3.887 44.927L2.535 44.68C2.132 45.447 1.365 46.305 0.273 46.955C0.546 47.15 0.936 47.631 1.131 47.943C1.729 47.54 2.236 47.111 2.665 46.643H4.407C4.186 46.916 3.939 47.176 3.653 47.41C3.341 47.254 3.029 47.098 2.743 46.968L1.742 47.865L2.418 48.216C1.794 48.554 1.092 48.827 0.39 49.009C0.585 49.308 0.858 50.049 0.923 50.465C1.118 50.4 1.326 50.335 1.521 50.257V54.027H2.873V53.689H4.511V54.001H5.928V53.247C6.175 53.52 6.448 53.91 6.552 54.196C9.802 53.065 10.062 50.946 10.127 46.812H8.827ZM9.607 52.194C10.387 52.766 11.427 53.585 11.908 54.118L12.74 53.039C12.233 52.545 11.167 51.765 10.4 51.245L9.607 52.194ZM18.668 45.343C18.46 46.357 18.187 47.28 17.836 48.112C17.316 47.696 16.627 47.228 15.977 46.851C16.263 46.37 16.523 45.876 16.757 45.343H18.668ZM23.14 42.015H21.528V46.37C21.216 45.967 20.943 45.538 20.722 45.122L20.241 45.304C20.306 44.94 20.371 44.563 20.436 44.173L19.422 43.822L19.149 43.874H17.342C17.524 43.354 17.68 42.834 17.823 42.288L16.289 41.989C15.717 44.316 14.664 46.487 13.234 47.787C13.611 48.008 14.248 48.515 14.521 48.775C14.755 48.541 14.976 48.294 15.184 48.008C15.873 48.463 16.627 49.022 17.134 49.49C16.224 50.998 15.041 52.116 13.611 52.857C13.988 53.104 14.586 53.676 14.846 54.014C17.16 52.701 18.967 50.218 19.942 46.539C20.41 47.28 20.943 47.995 21.528 48.632V54.105H23.14V50.14C23.647 50.53 24.18 50.881 24.726 51.167C24.986 50.764 25.48 50.14 25.857 49.815C24.908 49.399 23.972 48.801 23.14 48.073V42.015ZM34.203 44.004C33.943 43.458 33.423 42.652 32.968 42.028L31.733 42.6C32.162 43.237 32.695 44.121 32.929 44.68L34.203 44.004ZM26.741 43.926H29.107V45.369H26.936C26.936 46.76 26.871 48.515 26.767 49.633H29.107C29.003 51.453 28.873 52.22 28.678 52.441C28.548 52.558 28.418 52.584 28.223 52.584C27.963 52.584 27.43 52.571 26.871 52.532C27.131 52.935 27.313 53.559 27.339 54.027C27.963 54.053 28.561 54.04 28.912 54.001C29.341 53.936 29.614 53.819 29.887 53.468C30.264 53.039 30.42 51.804 30.55 48.905C30.563 48.71 30.576 48.307 30.576 48.307H28.171C28.197 47.813 28.21 47.28 28.223 46.747H30.589V42.548H26.741V43.926ZM32.695 48.619V47.839H33.852V48.619H32.695ZM32.695 45.967H33.852V46.721H32.695V45.967ZM36.66 46.721H35.451V45.967H36.66V46.721ZM36.66 48.619H35.451V47.839H36.66V48.619ZM38.584 50.608H35.451V49.828H38.129V44.771H36.361C36.803 44.095 37.284 43.237 37.687 42.431L36.127 41.989C35.828 42.86 35.282 43.991 34.801 44.771H31.291V49.828H33.852V50.608H30.615V51.947H33.852V54.131H35.451V51.947H38.584V50.608ZM41.691 44.732C41.236 45.785 40.469 46.825 40.222 47.111C39.975 47.397 39.754 47.592 39.533 47.644C39.676 48.008 39.897 48.645 39.975 48.931C40.183 48.853 40.495 48.788 41.665 48.697C41.288 49.139 40.963 49.464 40.781 49.62C40.365 50.01 40.066 50.257 39.741 50.322C39.897 50.66 40.105 51.323 40.17 51.57C40.521 51.414 41.08 51.297 44.499 50.868C44.499 50.569 44.538 49.984 44.616 49.594L42.159 49.841C43.069 48.983 43.953 47.956 44.707 46.89L43.498 46.24C43.251 46.63 42.991 47.033 42.705 47.423L41.483 47.462C42.042 46.799 42.601 46.045 43.043 45.278L41.691 44.732ZM39.884 53.832C41.249 53.598 43.043 53.286 44.746 52.987L44.668 51.687C42.835 51.973 40.898 52.272 39.624 52.428L39.884 53.832ZM45.864 48.918C46.358 49.711 46.826 50.79 46.969 51.479L48.334 50.959C48.178 50.257 47.671 49.243 47.138 48.463L45.864 48.918ZM47.281 46.071C47.411 45.733 47.528 45.395 47.632 45.057L46.189 44.732C45.812 46.084 45.11 47.436 44.265 48.255C44.629 48.45 45.24 48.853 45.526 49.087C45.929 48.632 46.319 48.047 46.67 47.384H49.517C49.4 50.764 49.231 52.116 48.971 52.441C48.828 52.61 48.698 52.636 48.477 52.636C48.217 52.636 47.671 52.636 47.047 52.584C47.307 53 47.489 53.611 47.528 54.053C48.165 54.079 48.802 54.079 49.205 54.014C49.66 53.949 49.985 53.806 50.284 53.39C50.713 52.857 50.882 51.18 51.051 46.721C51.064 46.539 51.064 46.071 51.064 46.071H47.281ZM48.451 42.847V42.002H46.943V42.847H43.966V42.002H42.458V42.847H39.754V44.199H42.458V44.914H43.966V44.199H46.943V44.888H48.451V44.199H51.272V42.847H48.451Z" fill="white" fill-opacity="0.5"/>
<path d="M12.467 86.411C11.843 85.917 10.686 85.28 9.62 84.76C10.53 84.019 11.531 83.07 12.337 82.186L10.946 81.432C10.413 82.147 9.62 82.992 8.84 83.72C8.801 82.771 8.788 81.731 8.801 80.626H0.728V82.238H7.228C7.345 88.127 8.034 91.884 10.933 91.884C12.012 91.884 12.441 91.182 12.597 89.024C12.246 88.816 11.804 88.413 11.453 88.049C11.414 89.44 11.284 90.259 10.985 90.259C9.854 90.272 9.256 88.673 8.983 85.93C10.023 86.502 11.102 87.152 11.687 87.659L12.467 86.411ZM25.129 80.73H18.811V82.199H25.129V80.73ZM16.315 79.989C15.691 80.899 14.456 82.069 13.377 82.758C13.65 83.057 14.04 83.681 14.235 84.019C15.47 83.161 16.874 81.822 17.81 80.6L16.315 79.989ZM16.809 82.797C15.977 84.266 14.56 85.774 13.234 86.684C13.546 87.009 14.066 87.711 14.287 88.023C14.638 87.737 14.989 87.412 15.353 87.061V92.144H16.9V85.358C17.42 84.708 17.901 84.032 18.291 83.369L16.809 82.797ZM25.454 84.305H18.265V85.774H22.1V90.298C22.1 90.493 22.009 90.545 21.775 90.545C21.541 90.558 20.683 90.558 19.942 90.519C20.15 90.974 20.345 91.637 20.41 92.092C21.567 92.092 22.399 92.066 22.945 91.832C23.517 91.598 23.673 91.169 23.673 90.337V85.774H25.454V84.305ZM32.37 82.901H33.839V82.147H35.347V82.901H36.855V82.147H38.311V80.873H36.855V80.002H35.347V80.873H33.839V80.002H32.37V80.873H30.849V82.147H32.37V82.901ZM31.031 86.658C30.797 86.281 29.835 84.799 29.445 84.292V83.837H30.615V82.407H29.445V79.989H27.976V82.407H26.572V83.837H27.976V84.175C27.612 85.644 26.988 87.295 26.273 88.231C26.52 88.647 26.858 89.349 27.014 89.791C27.352 89.245 27.69 88.53 27.976 87.724V92.118H29.445V86.268C29.718 86.814 29.965 87.36 30.108 87.737L31.031 86.658ZM32.643 85.748H36.218V86.32H32.643V85.748ZM32.643 84.188H36.218V84.747H32.643V84.188ZM38.363 89.414V88.14H35.113C35.152 87.893 35.191 87.659 35.217 87.399H37.713V83.122H31.213V87.399H33.696C33.67 87.659 33.631 87.906 33.592 88.14H30.615V89.414H33.098C32.617 90.09 31.759 90.571 30.134 90.896C30.42 91.195 30.784 91.754 30.914 92.131C33.059 91.611 34.112 90.805 34.658 89.687C35.308 90.883 36.296 91.702 37.752 92.105C37.96 91.715 38.376 91.13 38.701 90.831C37.544 90.597 36.673 90.103 36.088 89.414H38.363ZM43.693 86.684H45.773V85.189H40.196V86.684H42.159V89.817C41.223 89.973 40.365 90.103 39.702 90.207L40.131 91.767C41.808 91.403 44.096 90.935 46.228 90.467L46.111 89.089C45.318 89.245 44.486 89.401 43.693 89.544V86.684ZM51.324 83.707V82.199H50.102L50.986 81.432C50.635 81.003 49.868 80.392 49.283 79.989L48.256 80.834C48.776 81.224 49.426 81.757 49.777 82.199H47.723C47.697 81.497 47.697 80.769 47.71 80.054H46.046C46.046 80.769 46.059 81.497 46.085 82.199H39.702V83.707H46.163C46.475 88.283 47.45 92.131 49.673 92.131C50.908 92.131 51.428 91.533 51.662 89.076C51.233 88.907 50.661 88.53 50.31 88.166C50.245 89.817 50.089 90.506 49.816 90.506C48.867 90.506 48.074 87.503 47.801 83.707H51.324Z" fill="white" fill-opacity="0.5"/>
<path d="M10.673 120.16V120.732H9.776V120.16H10.673ZM10.673 122.474H9.776V121.863H10.673V122.474ZM8.385 120.732H5.915V121.863H8.385V122.474H6.76V123.592H8.385V124.203H6.604V125.321H8.385V125.958H6.279V127.076H8.385V128.259H9.776V127.076H12.363V125.958H9.776V125.321H12.051V124.203H9.776V123.592H11.973V121.863H12.61V120.732H11.973V119.042H9.776V118.08H8.385V119.042H6.76V120.16H8.385V120.732ZM2.977 120.836C3.172 120.394 3.354 119.952 3.523 119.497V120.277H4.563C4.134 121.382 3.549 122.812 3.042 123.943L4.303 124.229L4.537 123.696H5.161C5.057 124.528 4.914 125.295 4.706 125.997C4.537 125.568 4.394 125.074 4.277 124.502L3.107 124.84C3.354 125.971 3.679 126.855 4.056 127.557C3.757 128.103 3.393 128.545 2.977 128.857V120.836ZM5.733 122.552L5.499 122.578H5.018C5.512 121.408 5.993 120.199 6.344 119.224L5.382 118.977L5.161 119.029H3.692C3.757 118.834 3.822 118.639 3.887 118.444L2.509 118.028C2.002 119.809 1.144 121.577 0.182 122.734C0.416 123.137 0.754 124.034 0.858 124.411C1.118 124.099 1.378 123.735 1.625 123.358V130.105H2.977V129.065C3.25 129.364 3.562 129.806 3.705 130.105C4.186 129.728 4.602 129.273 4.953 128.727C5.954 129.676 7.28 129.949 8.983 129.949H12.233C12.298 129.546 12.506 128.896 12.714 128.558C11.986 128.584 9.659 128.584 9.061 128.584C7.631 128.571 6.461 128.337 5.603 127.453C6.11 126.192 6.409 124.619 6.539 122.695L5.733 122.552ZM21.125 123.787H22.919V124.424H21.125V123.787ZM21.125 122.11H22.919V122.708H21.125V122.11ZM24.388 125.451V123.787H25.545V122.708H24.388V121.083H21.125V120.446H25.402V119.094H20.709V118.002H19.097V119.094H14.456V122.864C14.456 124.775 14.378 127.479 13.312 129.338C13.65 129.494 14.3 129.923 14.56 130.183C15.73 128.168 15.925 124.97 15.925 122.864V120.446H19.63V121.083H16.913V122.11H19.63V122.708H16.172V123.787H19.63V124.424H16.77V125.451H16.952L16.159 126.231C16.796 126.582 17.589 127.115 17.992 127.479L18.876 126.569C18.473 126.218 17.693 125.763 17.069 125.451H19.63V128.597C19.63 128.805 19.565 128.87 19.331 128.87C19.162 128.883 18.629 128.883 18.083 128.857C18.473 128.675 18.876 128.493 19.266 128.298L18.993 127.193C17.745 127.674 16.471 128.155 15.613 128.415L16.328 129.65C16.77 129.468 17.251 129.247 17.745 129.013C17.914 129.377 18.083 129.819 18.135 130.144C19.201 130.144 19.942 130.131 20.436 129.923C20.943 129.715 21.125 129.377 21.125 128.61V127.349C21.905 128.558 22.984 129.468 24.401 129.988C24.609 129.598 25.025 129.039 25.337 128.74C24.453 128.493 23.699 128.09 23.075 127.57C23.699 127.245 24.401 126.829 25.038 126.413L23.907 125.503C23.478 125.867 22.841 126.348 22.243 126.712C21.944 126.322 21.697 125.906 21.502 125.451H24.388Z" fill="white" fill-opacity="0.5"/>
<path d="M4.42 163.971H6.136V162.632H4.42V161.215H6.292V160.617C6.591 160.838 6.929 161.098 7.098 161.267C8.281 160.526 8.983 159.395 9.282 157.757H10.66C10.595 158.914 10.504 159.395 10.387 159.564C10.283 159.668 10.166 159.694 10.01 159.694C9.815 159.694 9.412 159.694 8.957 159.642C9.165 159.993 9.321 160.539 9.334 160.942C9.919 160.968 10.452 160.955 10.777 160.916C11.128 160.864 11.414 160.76 11.648 160.474C11.96 160.11 12.077 159.161 12.168 157.003C12.181 156.821 12.181 156.47 12.181 156.47H6.448V157.757H7.839C7.618 158.836 7.15 159.629 6.292 160.175V159.85H4.225V158.654H6.071V157.315H4.225V156.002H2.795V157.315H0.897V158.654H2.795V159.85H0.598V161.215H3.042V165.102C2.743 164.764 2.509 164.309 2.314 163.724C2.34 163.152 2.366 162.554 2.366 161.956L1.014 161.865C1.001 164.075 0.897 166.168 0.247 167.455C0.572 167.585 1.222 167.949 1.482 168.131C1.742 167.533 1.937 166.831 2.08 166.025C3.107 167.481 4.654 167.806 7.072 167.806H12.116C12.22 167.338 12.48 166.636 12.701 166.272C11.531 166.337 8.06 166.337 7.072 166.324C6.006 166.324 5.122 166.259 4.42 166.025V163.971ZM8.216 162.684H10.335V164.296H8.216V162.684ZM6.773 165.518H11.869V161.436H6.773V165.518ZM16.094 162.684C16.9 161.67 17.68 160.513 18.33 159.369L17.095 158.589C16.861 159.044 16.601 159.525 16.328 159.967L15.184 160.058C15.938 159.031 16.64 157.757 17.147 156.574L15.743 155.911C15.249 157.432 14.352 159.044 14.053 159.46C13.767 159.876 13.559 160.149 13.273 160.227C13.455 160.63 13.689 161.332 13.754 161.618C13.962 161.527 14.287 161.436 15.483 161.293C15.028 161.969 14.625 162.476 14.417 162.697C14.001 163.191 13.702 163.477 13.364 163.555C13.533 163.932 13.754 164.621 13.832 164.894C14.17 164.66 14.716 164.452 18.044 163.49C17.992 163.178 17.953 162.58 17.979 162.19L16.094 162.684ZM22.321 158.225C22.035 159.382 21.697 160.578 21.424 161.436H23.569C23.296 162.45 22.919 163.347 22.425 164.127C21.723 163.191 21.177 162.099 20.787 160.981C20.878 160.11 20.956 159.187 21.008 158.225H22.321ZM24.336 160.045L24.076 160.11H23.335C23.634 159.07 23.946 157.848 24.206 156.782H18.226V158.225H19.5C19.37 161.085 19.045 163.581 18.2 165.466L17.953 164.374C16.328 164.998 14.638 165.661 13.546 165.999L13.91 167.533C15.119 167.039 16.627 166.402 18.057 165.778C17.784 166.311 17.472 166.805 17.082 167.234C17.446 167.429 18.174 167.936 18.434 168.17C19.383 166.961 20.007 165.388 20.384 163.503C20.722 164.153 21.099 164.751 21.515 165.323C20.878 165.999 20.15 166.558 19.331 166.974C19.669 167.208 20.202 167.793 20.41 168.131C21.177 167.715 21.866 167.169 22.503 166.467C23.14 167.117 23.881 167.65 24.687 168.079C24.908 167.689 25.376 167.117 25.701 166.831C24.856 166.454 24.102 165.921 23.426 165.271C24.271 163.984 24.921 162.359 25.298 160.422L24.336 160.045ZM36.335 160.292V161.423H34.892V160.292H36.335ZM32.019 160.292H33.384V161.423H32.019V160.292ZM33.384 159.109H30.589V162.593H32.695C31.993 163.451 30.901 164.231 29.835 164.673C30.16 164.946 30.589 165.479 30.81 165.843C31.746 165.362 32.669 164.569 33.384 163.672V166.051H34.892V163.763C35.646 164.595 36.569 165.349 37.427 165.804C37.661 165.427 38.142 164.894 38.467 164.595C37.401 164.166 36.205 163.399 35.425 162.593H37.843V159.109H34.892V158.407H38.285V157.12H34.892V156.002H33.384V157.12H30.186V158.407H33.384V159.109ZM29.939 158.251C29.497 157.64 28.548 156.834 27.768 156.288L26.624 157.224C27.391 157.796 28.314 158.654 28.717 159.278L29.939 158.251ZM29.614 161.033H26.611V162.45H28.106V165.193C27.534 165.635 26.884 166.064 26.325 166.389L27.079 168.001C27.794 167.455 28.366 166.948 28.938 166.441C29.783 167.455 30.849 167.819 32.448 167.884C33.995 167.949 36.608 167.923 38.168 167.845C38.246 167.403 38.48 166.649 38.649 166.285C36.92 166.415 33.995 166.454 32.474 166.389C31.122 166.337 30.147 165.986 29.614 165.115V161.033ZM41.951 158.537H51.324V157.159H46.709V156.002H45.097V157.159H40.469V160.799C40.469 162.697 40.391 165.401 39.312 167.247C39.663 167.403 40.313 167.832 40.573 168.092C41.756 166.09 41.951 162.905 41.951 160.799V158.537ZM47.853 160.851V161.709H45.487V160.851H47.853ZM49.387 162.879V160.851H51.259V159.629H49.387V158.771H47.853V159.629H45.487V158.771H44.031V159.629H42.276V160.851H44.031V162.879H49.387ZM48.334 164.608C47.905 165.024 47.372 165.388 46.774 165.674C46.163 165.375 45.643 165.024 45.253 164.608H48.334ZM49.647 163.334L49.374 163.399H42.367V164.608H44.304L43.693 164.829C44.109 165.388 44.616 165.869 45.188 166.272C44.161 166.571 43.017 166.753 41.821 166.857C42.055 167.182 42.328 167.767 42.445 168.157C43.992 167.962 45.448 167.65 46.722 167.143C47.853 167.65 49.179 167.988 50.674 168.17C50.869 167.767 51.272 167.169 51.584 166.844C50.414 166.74 49.335 166.558 48.386 166.285C49.322 165.661 50.089 164.855 50.609 163.815L49.647 163.334Z" fill="white" fill-opacity="0.5"/>
<path d="M8.853 204.493C8.281 204.493 8.203 204.428 8.203 203.973V200.476H6.682C6.721 200.307 6.76 200.138 6.786 199.969H12.402V198.487H6.968C7.02 197.772 7.046 197.031 7.072 196.264H11.687V194.795H1.404V196.264H5.486C5.473 197.044 5.447 197.785 5.395 198.487H0.637V199.969H5.187C4.745 202.153 3.575 203.817 0.416 204.818C0.78 205.143 1.209 205.728 1.391 206.157C4.576 205.065 5.954 203.271 6.565 200.983V203.986C6.565 205.533 6.994 206.014 8.632 206.014H10.582C11.999 206.014 12.428 205.442 12.61 203.206C12.194 203.102 11.466 202.842 11.128 202.569C11.05 204.246 10.985 204.493 10.439 204.493H8.853ZM17.277 194.483L17.056 194.548H13.988V206.131H15.431V195.926H16.575C16.341 196.836 16.042 198.006 15.769 198.838C16.536 199.709 16.731 200.515 16.731 201.126C16.731 201.49 16.653 201.737 16.497 201.854C16.38 201.932 16.263 201.971 16.12 201.971C15.951 201.971 15.756 201.971 15.509 201.958C15.73 202.348 15.847 202.946 15.86 203.336C16.185 203.336 16.497 203.349 16.757 203.31C17.043 203.258 17.316 203.18 17.524 203.011C17.94 202.725 18.135 202.179 18.122 201.321C18.122 200.567 17.966 199.67 17.121 198.669C17.524 197.655 17.966 196.225 18.33 195.094L17.277 194.483ZM20.189 198.188H23.205V199.28H20.189V198.188ZM23.205 195.9V196.927H20.189V195.9H23.205ZM24.141 200.697C23.842 201.1 23.4 201.568 22.971 201.984C22.776 201.555 22.607 201.087 22.477 200.606H24.739V194.561H18.707V204.22C18.2 204.298 17.745 204.376 17.355 204.428L17.862 205.923C19.084 205.65 20.683 205.325 22.178 204.974L22.061 203.622C21.437 203.739 20.8 203.856 20.189 203.96V200.606H21.125C21.71 203.141 22.724 205.078 24.635 206.092C24.843 205.676 25.298 205.091 25.636 204.779C24.791 204.402 24.115 203.817 23.595 203.076C24.154 202.647 24.791 202.088 25.35 201.555L24.141 200.697ZM31.616 201.828V204.428H29.861L30.927 203.973C30.732 203.375 30.225 202.491 29.731 201.828H31.616ZM30.147 197.863C31.083 197.083 31.889 196.238 32.448 195.458C33.02 196.238 33.878 197.083 34.84 197.863H30.147ZM35.048 201.828C34.762 202.517 34.242 203.466 33.813 204.077L34.658 204.428H33.241V201.828H37.245V200.502H33.241V199.215H35.724V198.539C36.374 199.007 37.05 199.436 37.7 199.774C37.986 199.293 38.337 198.773 38.727 198.383C36.673 197.551 34.58 195.913 33.176 193.95H31.577C30.615 195.51 28.535 197.46 26.325 198.539C26.663 198.864 27.092 199.423 27.287 199.787C27.95 199.436 28.613 199.02 29.224 198.578V199.215H31.616V200.502H27.664V201.828H29.653L28.47 202.335C28.925 202.972 29.354 203.843 29.549 204.428H27.014V205.754H38.012V204.428H35.074C35.529 203.882 36.036 203.089 36.53 202.374L35.048 201.828ZM50.687 195.237C50.31 194.912 49.582 194.431 49.049 194.119L48.152 194.925C48.672 195.276 49.4 195.809 49.764 196.147L50.687 195.237ZM42.848 203.557V201.698H44.395V200.32H42.848V199.046H44.2V197.668H40.82C41.041 197.356 41.275 197.044 41.483 196.693H44.395V195.224H42.25C42.367 194.964 42.471 194.691 42.562 194.444L41.21 194.028C40.82 195.172 40.118 196.264 39.351 196.979C39.572 197.343 39.949 198.162 40.066 198.5C40.196 198.37 40.326 198.24 40.456 198.097V199.046H41.47V200.32H39.767V201.698H41.47V203.687C41.47 204.376 41.028 204.857 40.755 205.065C40.963 205.286 41.34 205.793 41.47 206.092C41.73 205.819 42.172 205.533 44.707 204.038C44.59 203.726 44.421 203.128 44.382 202.699L42.848 203.557ZM50.18 200.437C49.803 201.087 49.309 201.685 48.724 202.231C48.607 201.698 48.477 201.087 48.373 200.45L51.389 199.878L51.168 198.552L48.191 199.098C48.139 198.695 48.1 198.292 48.061 197.876L51.064 197.395L50.817 196.043L47.97 196.485C47.931 195.653 47.918 194.795 47.931 193.95H46.449C46.449 194.86 46.475 195.796 46.527 196.706L44.772 196.979L45.032 198.357L46.618 198.11C46.657 198.526 46.696 198.942 46.748 199.358L44.499 199.761L44.746 201.126L46.93 200.723C47.086 201.633 47.268 202.465 47.489 203.193C46.54 203.83 45.461 204.337 44.343 204.714C44.707 205.065 45.084 205.572 45.279 205.962C46.241 205.572 47.177 205.117 48.022 204.545C48.516 205.507 49.14 206.092 49.933 206.092C50.947 206.092 51.324 205.663 51.571 204.09C51.259 203.934 50.804 203.609 50.518 203.258C50.453 204.298 50.336 204.636 50.089 204.636C49.79 204.636 49.478 204.272 49.205 203.661C50.102 202.907 50.882 202.01 51.48 200.996L50.18 200.437Z" fill="white" fill-opacity="0.5"/>
<path d="M12.714 237.254C12.09 236.851 10.998 236.318 9.984 235.876C10.816 235.096 11.492 234.186 11.973 233.133L10.881 232.561L10.595 232.626H5.512V234.03H9.581C8.463 235.434 6.578 236.552 4.641 237.124C4.953 237.449 5.369 238.047 5.564 238.45C6.695 238.047 7.787 237.527 8.775 236.838C9.893 237.371 11.167 238.034 11.804 238.502L12.714 237.254ZM3.081 238.775C3.991 237.787 4.862 236.617 5.577 235.473L4.225 234.602C4.004 235.044 3.731 235.499 3.445 235.928L2.223 236.019C2.938 235.005 3.653 233.783 4.16 232.613L2.704 231.937C2.236 233.419 1.339 235.018 1.053 235.434C0.767 235.863 0.533 236.123 0.273 236.201C0.442 236.591 0.689 237.345 0.767 237.631C0.988 237.527 1.313 237.449 2.483 237.306C2.041 237.878 1.651 238.333 1.456 238.528C1.014 238.996 0.715 239.269 0.351 239.347C0.533 239.75 0.78 240.491 0.858 240.79C1.209 240.595 1.755 240.439 4.966 239.802C4.94 239.477 4.966 238.866 5.018 238.45L3.081 238.775ZM4.849 240.985C3.211 241.375 1.547 241.791 0.416 241.986L0.715 243.533C1.95 243.195 3.536 242.766 5.018 242.324L4.849 240.985ZM9.516 240.023H11.908V238.619H5.629V240.023H7.956V242.415H4.849V243.845H12.558V242.415H9.516V240.023ZM16.64 240.114C15.392 240.387 14.17 240.66 13.299 240.816L13.546 242.012C14.508 241.791 15.652 241.518 16.757 241.258L16.64 240.114ZM20.085 235.954C20.657 235.395 21.216 234.784 21.697 234.108C22.243 234.745 22.867 235.369 23.53 235.954H20.085ZM19.877 237.254H23.881V236.253C24.284 236.591 24.674 236.877 25.064 237.137C25.207 236.708 25.506 235.993 25.766 235.603C24.609 234.979 23.335 233.913 22.477 232.925C22.594 232.717 22.711 232.509 22.802 232.301L21.463 231.833C20.657 233.484 19.214 234.992 17.693 235.915C17.784 234.771 17.862 233.523 17.914 232.457H13.624V233.757H16.562C16.484 235.239 16.367 236.838 16.224 237.995H15.21C15.301 236.955 15.392 235.733 15.444 234.706L14.131 234.628C14.079 236.084 13.949 238.021 13.793 239.191H17.147C17.03 241.466 16.874 242.402 16.64 242.662C16.51 242.792 16.393 242.818 16.185 242.818C15.951 242.818 15.405 242.805 14.82 242.753C15.041 243.104 15.184 243.611 15.21 243.988C15.834 244.014 16.445 244.014 16.796 243.975C17.212 243.923 17.511 243.819 17.784 243.481C18.174 243.039 18.343 241.765 18.499 238.541C18.512 238.372 18.525 237.982 18.525 237.982H17.524C17.589 237.397 17.654 236.669 17.706 235.915C17.966 236.214 18.421 236.864 18.59 237.163C19.032 236.864 19.448 236.526 19.877 236.149V237.254ZM22.958 240.985C22.88 240.14 22.646 238.905 22.412 237.93L21.242 238.099C21.437 239.061 21.658 240.335 21.723 241.167L22.958 240.985ZM20.93 241.18C20.8 240.361 20.501 239.113 20.176 238.151L19.006 238.463C19.279 239.425 19.591 240.699 19.682 241.531L20.93 241.18ZM24.037 238.008C23.738 239.321 23.114 241.076 22.568 242.259H18.681V243.559H25.415V242.259H23.868C24.401 241.141 24.973 239.62 25.441 238.307L24.037 238.008ZM29.107 232.028C28.483 233.874 27.417 235.707 26.299 236.89C26.559 237.28 26.975 238.125 27.118 238.502C27.352 238.229 27.586 237.943 27.82 237.631V244.118H29.25V235.33C29.731 234.407 30.173 233.445 30.511 232.496L29.107 232.028ZM32.279 241.856H36.127V242.584H32.279V241.856ZM36.127 236.513V237.228H32.279V236.513H36.127ZM36.127 240.049V240.79H32.279V240.049H36.127ZM36.127 239.009H32.279V238.294H36.127V239.009ZM37.557 242.584V235.382H34.554C34.632 235.109 34.697 234.823 34.775 234.498H38.246V233.172H35.048C35.113 232.795 35.191 232.431 35.243 232.067L33.605 232.015C33.579 232.379 33.54 232.756 33.501 233.172H30.368V234.498H33.319C33.267 234.81 33.215 235.109 33.163 235.382H30.914V242.584H29.796V243.884H38.545V242.584H37.557ZM42.107 232.028C41.444 233.887 40.326 235.733 39.156 236.903C39.416 237.267 39.832 238.125 39.975 238.502C40.274 238.19 40.573 237.839 40.859 237.462V244.105H42.328V235.174C42.809 234.303 43.238 233.393 43.576 232.496L42.107 232.028ZM49.257 240.413V242.155H45.526V240.413H49.257ZM44.018 244.131H45.526V243.585H49.257V244.066H50.83V239.009H44.018V244.131ZM48.724 234.667C48.594 235.239 48.334 235.993 48.126 236.513L48.815 236.643H45.708L46.397 236.461C46.319 235.98 46.098 235.252 45.825 234.667H48.724ZM49.556 236.643C49.777 236.175 50.024 235.525 50.284 234.849L49.257 234.667H51.363V233.289H48.113V232.002H46.527V233.289H43.433V234.667H45.266L44.421 234.862C44.668 235.421 44.863 236.123 44.941 236.643H42.952V238.06H51.623V236.643H49.556ZM58.968 239.984V238.736C59.046 238.814 59.098 238.879 59.15 238.931C59.358 238.645 59.566 238.333 59.748 237.995C59.982 238.931 60.268 239.789 60.632 240.556C60.06 241.362 59.306 242.012 58.344 242.519C58.045 242.298 57.668 242.064 57.265 241.83C57.59 241.323 57.811 240.712 57.954 239.984H58.968ZM55.237 239.984H56.498C56.381 240.452 56.212 240.842 56.004 241.167C55.627 240.985 55.25 240.829 54.86 240.673L55.237 239.984ZM62.231 235.759C62.088 236.903 61.854 237.93 61.529 238.814C61.178 237.878 60.918 236.851 60.736 235.759H62.231ZM64.558 235.759V234.329H61.1C61.269 233.64 61.412 232.925 61.516 232.197L59.956 231.989C59.644 234.303 59.02 236.513 57.915 237.839C58.201 238.034 58.669 238.437 58.968 238.736H55.874L56.186 238.112L55.627 237.995H56.459V236.422C56.966 236.825 57.512 237.28 57.798 237.553L58.617 236.487C58.331 236.292 57.408 235.746 56.784 235.395H58.916V234.173H57.681C57.993 233.77 58.396 233.224 58.799 232.665L57.499 232.145C57.291 232.639 56.927 233.328 56.628 233.796L57.486 234.173H56.459V231.989H55.042V234.173H53.95L54.782 233.809C54.678 233.354 54.34 232.691 54.002 232.197L52.884 232.665C53.157 233.133 53.443 233.731 53.56 234.173H52.572V235.395H54.6C53.976 236.071 53.105 236.695 52.312 237.02C52.598 237.293 52.923 237.8 53.092 238.138C53.742 237.774 54.444 237.228 55.042 236.63V237.878L54.756 237.813C54.626 238.099 54.47 238.411 54.314 238.736H52.429V239.984H53.664C53.339 240.608 53.014 241.193 52.728 241.648L54.08 242.064L54.223 241.817C54.47 241.921 54.717 242.038 54.951 242.168C54.34 242.519 53.534 242.727 52.481 242.87C52.728 243.182 53.001 243.702 53.092 244.144C54.483 243.858 55.523 243.481 56.29 242.909C56.823 243.247 57.291 243.585 57.642 243.884L58.227 243.286C58.435 243.598 58.63 243.949 58.721 244.17C59.852 243.598 60.749 242.896 61.464 242.038C62.049 242.883 62.764 243.572 63.648 244.105C63.882 243.676 64.363 243.078 64.714 242.766C63.765 242.272 63.011 241.531 62.413 240.608C63.115 239.295 63.557 237.683 63.83 235.759H64.558Z" fill="white" fill-opacity="0.5"/>
<path d="M9.23 271.926H3.718V271.393H9.23V271.926ZM9.23 273.408H3.718V272.862H9.23V273.408ZM10.777 270.405H2.236V274.396H10.777V270.405ZM10.036 277.763C9.802 278.231 9.503 278.66 9.152 279.037C8.801 278.66 8.502 278.231 8.281 277.763H10.036ZM3.146 279.31H4.836V279.817C4.264 279.869 3.692 279.908 3.146 279.947V279.31ZM3.146 277.698H4.836V278.244H3.146V277.698ZM4.836 276.099V276.619H3.146V276.099H4.836ZM10.946 276.528L10.686 276.58H6.643V277.763H7.839L6.981 277.997C7.293 278.712 7.696 279.362 8.164 279.921C7.618 280.324 6.981 280.636 6.318 280.857V276.099H12.272V274.877H0.715V276.099H1.729V280.051C1.326 280.09 0.936 280.103 0.598 280.129L0.715 281.455C1.859 281.351 3.341 281.221 4.836 281.078V282.131H6.318V281.078C6.578 281.39 6.864 281.819 7.007 282.118C7.813 281.819 8.554 281.416 9.217 280.909C9.906 281.442 10.712 281.845 11.635 282.118C11.843 281.754 12.246 281.195 12.545 280.909C11.687 280.701 10.907 280.376 10.257 279.947C10.985 279.128 11.544 278.114 11.895 276.892L10.946 276.528ZM20.605 280.025H18.356V279.18H20.605V280.025ZM24.765 276.281H14.339V282.131H15.847V277.568H23.205V280.467C23.205 280.623 23.153 280.662 22.958 280.675C22.815 280.688 22.412 280.688 21.97 280.675V278.153H17.004V281.65H18.356V281.065H21.71C21.853 281.403 21.97 281.806 22.009 282.105C22.945 282.105 23.634 282.092 24.115 281.858C24.622 281.624 24.765 281.208 24.765 280.493V276.281ZM21.476 274.695H17.42V273.902H21.476V274.695ZM15.951 272.875V275.735H23.049V272.875H15.951ZM20.202 271.068V269.976H18.629V271.068H13.819V272.381H25.181V271.068H20.202ZM31.421 270.288C31.33 272.004 31.512 277.906 26.325 280.779C26.845 281.143 27.352 281.611 27.625 282.014C30.368 280.337 31.733 277.828 32.435 275.488C33.163 277.88 34.619 280.558 37.557 282.014C37.804 281.598 38.272 281.065 38.753 280.701C33.904 278.426 33.254 272.823 33.15 271.029C33.163 270.756 33.176 270.496 33.189 270.288H31.421ZM44.317 275.722L43.121 276.06V273.967H44.2V272.498H43.121V270.002H41.704V272.498H41.093C41.171 271.978 41.236 271.471 41.288 270.951L40.001 270.73C39.884 272.264 39.663 273.889 39.26 274.916C39.546 275.085 40.118 275.436 40.352 275.631C40.534 275.163 40.69 274.604 40.833 273.967H41.704V276.45C40.82 276.697 40.027 276.905 39.377 277.048L39.754 278.517C40.352 278.361 41.002 278.153 41.704 277.945V282.144H43.121V277.516C43.602 277.373 44.057 277.217 44.525 277.087L44.317 275.722ZM46.631 272.004C46.813 271.432 46.982 270.847 47.112 270.249L45.708 269.989C45.318 271.9 44.603 273.759 43.576 274.89C43.888 275.085 44.499 275.514 44.746 275.761C45.253 275.137 45.708 274.331 46.085 273.434H46.748C46.176 275.319 45.162 277.243 43.875 278.257C44.278 278.478 44.772 278.829 45.058 279.128C46.371 277.88 47.463 275.553 48.035 273.434H48.646C47.996 276.476 46.696 279.427 44.616 280.922C45.045 281.143 45.578 281.52 45.877 281.819C47.97 280.09 49.309 276.71 49.946 273.434H50.011C49.803 278.101 49.569 279.869 49.244 280.285C49.088 280.48 48.958 280.532 48.763 280.532C48.516 280.532 48.087 280.532 47.606 280.48C47.84 280.909 47.996 281.546 48.035 281.988C48.594 282.014 49.14 282.014 49.504 281.949C49.933 281.858 50.219 281.715 50.518 281.273C51.012 280.623 51.246 278.504 51.493 272.706C51.506 272.524 51.519 272.004 51.519 272.004H46.631ZM62.803 275.826C63.999 275.826 64.402 275.345 64.571 273.681C64.155 273.59 63.518 273.343 63.206 273.109C63.154 274.24 63.063 274.435 62.647 274.435H61.23C60.736 274.435 60.658 274.383 60.658 273.915V273.148C61.789 272.81 62.998 272.394 63.986 271.926L62.998 270.808C62.387 271.146 61.529 271.549 60.658 271.887V270.028H59.124V273.941C59.124 275.371 59.488 275.826 61.009 275.826H62.803ZM54.626 278.517V277.75H56.576V278.517H54.626ZM56.576 275.93V276.606H54.626V275.93H56.576ZM58.097 274.656H53.196V282.118H54.626V279.661H56.576V280.532C56.576 280.688 56.524 280.727 56.368 280.727C56.199 280.74 55.679 280.753 55.224 280.727C55.406 281.091 55.64 281.689 55.718 282.092C56.498 282.092 57.096 282.079 57.538 281.832C57.967 281.611 58.097 281.234 58.097 280.558V274.656ZM56.147 271.341C56.355 271.679 56.563 272.043 56.758 272.407L55.029 272.485C55.354 271.796 55.705 271.016 56.004 270.262L54.392 269.937C54.171 270.73 53.807 271.731 53.443 272.55C53.079 272.563 52.741 272.576 52.429 272.576L52.559 274.045C53.885 273.967 55.653 273.863 57.369 273.746C57.473 273.993 57.551 274.227 57.603 274.435L59.02 273.863C58.773 273.018 58.084 271.783 57.447 270.86L56.147 271.341ZM61.243 280.688C60.736 280.688 60.645 280.623 60.645 280.168V279.128C61.828 278.764 63.115 278.296 64.116 277.75L63.089 276.619C62.465 277.035 61.568 277.464 60.645 277.841V276.086H59.124V280.168C59.124 281.598 59.501 282.04 61.022 282.04H62.868C64.116 282.04 64.506 281.533 64.675 279.7C64.272 279.596 63.648 279.362 63.323 279.128C63.258 280.441 63.167 280.688 62.725 280.688H61.243ZM71.63 272.693V270.015H69.979V272.693H66.001V274.279H69.914C69.693 276.554 68.822 279.18 65.598 280.935C65.975 281.221 66.56 281.806 66.807 282.196C70.46 280.129 71.37 276.97 71.578 274.279H75.218C75.01 278.14 74.75 279.843 74.36 280.246C74.178 280.415 74.022 280.454 73.749 280.454C73.411 280.454 72.644 280.454 71.825 280.389C72.124 280.831 72.332 281.52 72.358 281.988C73.151 282.027 73.957 282.027 74.438 281.962C74.997 281.884 75.374 281.741 75.764 281.234C76.336 280.558 76.596 278.608 76.856 273.434C76.882 273.226 76.895 272.693 76.895 272.693H71.63ZM81.107 270.028C80.483 271.874 79.417 273.707 78.299 274.89C78.559 275.28 78.975 276.125 79.118 276.502C79.352 276.229 79.586 275.943 79.82 275.631V282.118H81.25V273.33C81.731 272.407 82.173 271.445 82.511 270.496L81.107 270.028ZM84.279 279.856H88.127V280.584H84.279V279.856ZM88.127 274.513V275.228H84.279V274.513H88.127ZM88.127 278.049V278.79H84.279V278.049H88.127ZM88.127 277.009H84.279V276.294H88.127V277.009ZM89.557 280.584V273.382H86.554C86.632 273.109 86.697 272.823 86.775 272.498H90.246V271.172H87.048C87.113 270.795 87.191 270.431 87.243 270.067L85.605 270.015C85.579 270.379 85.54 270.756 85.501 271.172H82.368V272.498H85.319C85.267 272.81 85.215 273.109 85.163 273.382H82.914V280.584H81.796V281.884H90.545V280.584H89.557Z" fill="white" fill-opacity="0.5"/>
<path d="M118 86C118 80.4772 122.477 76 128 76H162C167.523 76 172 80.4772 172 86V86C172 91.5228 167.523 96 162 96H128C122.477 96 118 91.5228 118 86V86Z" fill="white" fill-opacity="0.2"/>
<rect x="118" y="76" width="40" height="20" rx="10" fill="white" fill-opacity="0.5"/>
<path d="M132.908 80.336C132.668 81.02 132.188 81.932 131.792 82.544L132.968 83C133.4 82.46 133.94 81.632 134.408 80.84L132.908 80.336ZM134.996 87.224V85.88H131.66V84.344H134.624V83H129.212L130.196 82.472C129.956 81.896 129.44 81.068 128.924 80.444L127.748 81.044C128.192 81.632 128.66 82.424 128.888 83H127.388V84.344H130.196V85.88H127.028V87.224H130.064C129.776 88.388 128.948 89.612 126.548 90.476C126.872 90.752 127.34 91.268 127.544 91.58C129.536 90.74 130.592 89.636 131.132 88.496C131.852 89.912 132.896 90.956 134.42 91.544C134.624 91.148 135.056 90.572 135.38 90.272C133.724 89.768 132.62 88.676 131.96 87.224H134.996ZM141.184 82.196C140.884 81.644 140.2 80.888 139.624 80.36L138.508 81.068C139.06 81.644 139.732 82.448 139.984 82.988L141.184 82.196ZM138.328 91.532H139.756V83.216H138.328V91.532ZM146.836 85.604V84.248H145.468V82.7H143.992V84.248H140.38V85.604H143.116C142.324 86.66 141.136 87.656 139.84 88.316C140.14 88.556 140.608 89.072 140.812 89.372C142.036 88.676 143.14 87.752 143.992 86.66V88.964C143.992 89.144 143.92 89.192 143.716 89.204C143.512 89.204 142.828 89.204 142.216 89.168C142.408 89.564 142.612 90.152 142.672 90.56C143.632 90.56 144.34 90.524 144.82 90.308C145.324 90.092 145.468 89.732 145.468 89V85.604H146.836ZM148.732 80.9H141.652V82.22H147.328V89.984C147.328 90.164 147.268 90.224 147.088 90.236C146.92 90.236 146.332 90.236 145.84 90.212C146.02 90.56 146.212 91.136 146.26 91.496C147.136 91.508 147.748 91.472 148.168 91.256C148.6 91.028 148.732 90.692 148.732 90.008V80.9Z" fill="#111111"/>
<path d="M118 200C118 194.477 122.477 190 128 190H162C167.523 190 172 194.477 172 200V200C172 205.523 167.523 210 162 210H128C122.477 210 118 205.523 118 200V200Z" fill="white" fill-opacity="0.2"/>
<rect x="118" y="190" width="40" height="20" rx="10" fill="white" fill-opacity="0.5"/>
<path d="M132.908 194.336C132.668 195.02 132.188 195.932 131.792 196.544L132.968 197C133.4 196.46 133.94 195.632 134.408 194.84L132.908 194.336ZM134.996 201.224V199.88H131.66V198.344H134.624V197H129.212L130.196 196.472C129.956 195.896 129.44 195.068 128.924 194.444L127.748 195.044C128.192 195.632 128.66 196.424 128.888 197H127.388V198.344H130.196V199.88H127.028V201.224H130.064C129.776 202.388 128.948 203.612 126.548 204.476C126.872 204.752 127.34 205.268 127.544 205.58C129.536 204.74 130.592 203.636 131.132 202.496C131.852 203.912 132.896 204.956 134.42 205.544C134.624 205.148 135.056 204.572 135.38 204.272C133.724 203.768 132.62 202.676 131.96 201.224H134.996ZM141.184 196.196C140.884 195.644 140.2 194.888 139.624 194.36L138.508 195.068C139.06 195.644 139.732 196.448 139.984 196.988L141.184 196.196ZM138.328 205.532H139.756V197.216H138.328V205.532ZM146.836 199.604V198.248H145.468V196.7H143.992V198.248H140.38V199.604H143.116C142.324 200.66 141.136 201.656 139.84 202.316C140.14 202.556 140.608 203.072 140.812 203.372C142.036 202.676 143.14 201.752 143.992 200.66V202.964C143.992 203.144 143.92 203.192 143.716 203.204C143.512 203.204 142.828 203.204 142.216 203.168C142.408 203.564 142.612 204.152 142.672 204.56C143.632 204.56 144.34 204.524 144.82 204.308C145.324 204.092 145.468 203.732 145.468 203V199.604H146.836ZM148.732 194.9H141.652V196.22H147.328V203.984C147.328 204.164 147.268 204.224 147.088 204.236C146.92 204.236 146.332 204.236 145.84 204.212C146.02 204.56 146.212 205.136 146.26 205.496C147.136 205.508 147.748 205.472 148.168 205.256C148.6 205.028 148.732 204.692 148.732 204.008V194.9Z" fill="#111111"/>
<path d="M118 276C118 270.477 122.477 266 128 266H162C167.523 266 172 270.477 172 276V276C172 281.523 167.523 286 162 286H128C122.477 286 118 281.523 118 276V276Z" fill="white" fill-opacity="0.2"/>
<rect x="118" y="266" width="40" height="20" rx="10" fill="white" fill-opacity="0.5"/>
<path d="M132.908 270.336C132.668 271.02 132.188 271.932 131.792 272.544L132.968 273C133.4 272.46 133.94 271.632 134.408 270.84L132.908 270.336ZM134.996 277.224V275.88H131.66V274.344H134.624V273H129.212L130.196 272.472C129.956 271.896 129.44 271.068 128.924 270.444L127.748 271.044C128.192 271.632 128.66 272.424 128.888 273H127.388V274.344H130.196V275.88H127.028V277.224H130.064C129.776 278.388 128.948 279.612 126.548 280.476C126.872 280.752 127.34 281.268 127.544 281.58C129.536 280.74 130.592 279.636 131.132 278.496C131.852 279.912 132.896 280.956 134.42 281.544C134.624 281.148 135.056 280.572 135.38 280.272C133.724 279.768 132.62 278.676 131.96 277.224H134.996ZM141.184 272.196C140.884 271.644 140.2 270.888 139.624 270.36L138.508 271.068C139.06 271.644 139.732 272.448 139.984 272.988L141.184 272.196ZM138.328 281.532H139.756V273.216H138.328V281.532ZM146.836 275.604V274.248H145.468V272.7H143.992V274.248H140.38V275.604H143.116C142.324 276.66 141.136 277.656 139.84 278.316C140.14 278.556 140.608 279.072 140.812 279.372C142.036 278.676 143.14 277.752 143.992 276.66V278.964C143.992 279.144 143.92 279.192 143.716 279.204C143.512 279.204 142.828 279.204 142.216 279.168C142.408 279.564 142.612 280.152 142.672 280.56C143.632 280.56 144.34 280.524 144.82 280.308C145.324 280.092 145.468 279.732 145.468 279V275.604H146.836ZM148.732 270.9H141.652V272.22H147.328V279.984C147.328 280.164 147.268 280.224 147.088 280.236C146.92 280.236 146.332 280.236 145.84 280.212C146.02 280.56 146.212 281.136 146.26 281.496C147.136 281.508 147.748 281.472 148.168 281.256C148.6 281.028 148.732 280.692 148.732 280.008V270.9Z" fill="#111111"/>
<path d="M118 162C118 156.477 122.477 152 128 152H162C167.523 152 172 156.477 172 162V162C172 167.523 167.523 172 162 172H128C122.477 172 118 167.523 118 162V162Z" fill="white" fill-opacity="0.2"/>
<rect x="133" y="152" width="39" height="20" rx="10" fill="url(#paint0_linear)"/>
<path d="M144.752 161.304V160.956V158.376H147.5V161.304H144.752ZM151.46 161.304H149V158.376H151.1V157.032H140.972V158.376H143.288V160.944V161.304H140.576V162.672H143.168C142.94 164.088 142.292 165.468 140.54 166.524C140.9 166.764 141.452 167.268 141.692 167.592C143.78 166.284 144.452 164.46 144.668 162.672H147.5V167.556H149V162.672H151.46V161.304ZM161.716 160.068V161.124H155.512V160.992V160.068H161.716ZM163.132 162.324V158.868H155.512V158.472C158.032 158.292 160.804 157.944 162.868 157.428L161.776 156.36C160.06 156.84 157.192 157.2 154.6 157.392L154.06 157.248V160.968C154.06 162.648 153.964 164.88 152.884 166.524C153.232 166.68 153.808 167.172 154.024 167.496C155.032 166.044 155.368 164.016 155.476 162.324H163.132ZM157.084 165.852V164.424H161.812V165.852H157.084ZM155.704 163.224V167.532H157.084V167.052H161.812V167.52H163.252V163.224H155.704Z" fill="#111111"/>
<path fill-rule="evenodd" clip-rule="evenodd" d="M248.023 34C240.291 34 234.023 40.268 234.023 48C234.023 55.732 240.291 62 248.023 62C255.755 62 262.023 55.732 262.023 48C262.023 40.268 255.755 34 248.023 34ZM246.023 42C246.023 40.8954 246.919 40 248.023 40C249.128 40 250.023 40.8954 250.023 42V46H254.023C255.128 46 256.023 46.8954 256.023 48C256.023 49.1046 255.128 50 254.023 50H250.023V54C250.023 55.1046 249.128 56 248.023 56C246.919 56 246.023 55.1046 246.023 54V50H242.023C240.919 50 240.023 49.1046 240.023 48C240.023 46.8954 240.919 46 242.023 46H246.023V42Z" fill="white" fill-opacity="0.6"/>
<path d="M176.768 39.5455H172.856L168.552 42.2216V45.8693L172.456 43.483H172.558V57H176.768V39.5455ZM187.845 57.4261C192.414 57.4347 195.218 54.0597 195.226 48.2983C195.235 42.571 192.414 39.3068 187.845 39.3068C183.277 39.3068 180.482 42.5625 180.473 48.2983C180.456 54.0426 183.277 57.4261 187.845 57.4261ZM187.845 53.9744C186.03 53.9744 184.794 52.1506 184.811 48.2983C184.82 44.5227 186.039 42.733 187.845 42.733C189.661 42.733 190.88 44.5227 190.888 48.2983C190.897 52.1506 189.669 53.9744 187.845 53.9744ZM204.861 57.4261C209.429 57.4347 212.233 54.0597 212.242 48.2983C212.25 42.571 209.429 39.3068 204.861 39.3068C200.293 39.3068 197.497 42.5625 197.489 48.2983C197.472 54.0426 200.293 57.4261 204.861 57.4261ZM204.861 53.9744C203.046 53.9744 201.81 52.1506 201.827 48.2983C201.835 44.5227 203.054 42.733 204.861 42.733C206.676 42.733 207.895 44.5227 207.904 48.2983C207.912 52.1506 206.685 53.9744 204.861 53.9744Z" fill="white"/>
<path fill-rule="evenodd" clip-rule="evenodd" d="M131.693 34C123.961 34 117.693 40.268 117.693 48C117.693 55.732 123.961 62 131.693 62C139.425 62 145.693 55.732 145.693 48C145.693 40.268 139.425 34 131.693 34ZM139.693 48C139.693 46.8954 138.798 46 137.693 46H125.693C124.589 46 123.693 46.8954 123.693 48C123.693 49.1046 124.589 50 125.693 50H137.693C138.798 50 139.693 49.1046 139.693 48Z" fill="white" fill-opacity="0.6"/>
<path fill-rule="evenodd" clip-rule="evenodd" d="M248.023 110C240.291 110 234.023 116.268 234.023 124C234.023 131.732 240.291 138 248.023 138C255.755 138 262.023 131.732 262.023 124C262.023 116.268 255.755 110 248.023 110ZM246.023 118C246.023 116.895 246.919 116 248.023 116C249.128 116 250.023 116.895 250.023 118V122H254.023C255.128 122 256.023 122.895 256.023 124C256.023 125.105 255.128 126 254.023 126H250.023V130C250.023 131.105 249.128 132 248.023 132C246.919 132 246.023 131.105 246.023 130V126H242.023C240.919 126 240.023 125.105 240.023 124C240.023 122.895 240.919 122 242.023 122H246.023V118Z" fill="white" fill-opacity="0.6"/>
<path d="M176.138 133H189.059V129.599H181.985V129.489L184.073 127.562C187.857 124.264 188.846 122.585 188.846 120.582C188.846 117.438 186.28 115.307 182.317 115.307C178.457 115.307 175.874 117.531 175.883 121.085H179.88C179.88 119.509 180.851 118.597 182.3 118.597C183.724 118.597 184.755 119.474 184.755 120.915C184.755 122.219 183.937 123.105 182.505 124.392L176.138 129.966V133ZM198.125 133.239C202.19 133.239 204.9 130.682 204.9 127.085C204.9 123.761 202.582 121.392 199.446 121.392C197.793 121.392 196.42 122.099 195.841 123.062H195.739L196.139 118.946H203.869V115.545H192.67L191.912 124.955L195.636 125.653C196.105 124.869 197.077 124.384 198.099 124.392C199.702 124.392 200.844 125.526 200.835 127.205C200.844 128.875 199.719 130 198.125 130C196.77 130 195.653 129.156 195.594 127.869H191.503C191.554 131.006 194.307 133.239 198.125 133.239Z" fill="white"/>
<path fill-rule="evenodd" clip-rule="evenodd" d="M131.693 110C123.961 110 117.693 116.268 117.693 124C117.693 131.732 123.961 138 131.693 138C139.425 138 145.693 131.732 145.693 124C145.693 116.268 139.425 110 131.693 110ZM139.693 124C139.693 122.895 138.798 122 137.693 122H125.693C124.589 122 123.693 122.895 123.693 124C123.693 125.105 124.589 126 125.693 126H137.693C138.798 126 139.693 125.105 139.693 124Z" fill="white" fill-opacity="0.6"/>
<path fill-rule="evenodd" clip-rule="evenodd" d="M248.023 224C240.291 224 234.023 230.268 234.023 238C234.023 245.732 240.291 252 248.023 252C255.755 252 262.023 245.732 262.023 238C262.023 230.268 255.755 224 248.023 224ZM246.023 232C246.023 230.895 246.919 230 248.023 230C249.128 230 250.023 230.895 250.023 232V236H254.023C255.128 236 256.023 236.895 256.023 238C256.023 239.105 255.128 240 254.023 240H250.023V244C250.023 245.105 249.128 246 248.023 246C246.919 246 246.023 245.105 246.023 244V240H242.023C240.919 240 240.023 239.105 240.023 238C240.023 236.895 240.919 236 242.023 236H246.023V232Z" fill="white" fill-opacity="0.6"/>
<path d="M174.683 244.102H183.112V247H187.143V244.102H189.231V240.778H187.143V229.545H181.834L174.683 240.812V244.102ZM183.197 240.778H178.876V240.642L183.061 234.011H183.197V240.778ZM198.662 247.426C203.23 247.435 206.034 244.06 206.043 238.298C206.051 232.571 203.23 229.307 198.662 229.307C194.094 229.307 191.298 232.562 191.29 238.298C191.273 244.043 194.094 247.426 198.662 247.426ZM198.662 243.974C196.846 243.974 195.611 242.151 195.628 238.298C195.636 234.523 196.855 232.733 198.662 232.733C200.477 232.733 201.696 234.523 201.704 238.298C201.713 242.151 200.486 243.974 198.662 243.974Z" fill="white"/>
<path fill-rule="evenodd" clip-rule="evenodd" d="M131.693 224C123.961 224 117.693 230.268 117.693 238C117.693 245.732 123.961 252 131.693 252C139.425 252 145.693 245.732 145.693 238C145.693 230.268 139.425 224 131.693 224ZM139.693 238C139.693 236.895 138.798 236 137.693 236H125.693C124.589 236 123.693 236.895 123.693 238C123.693 239.105 124.589 240 125.693 240H137.693C138.798 240 139.693 239.105 139.693 238Z" fill="white" fill-opacity="0.6"/>
<defs>
<linearGradient id="paint0_linear" x1="172" y1="152" x2="155.758" y2="183.671" gradientUnits="userSpaceOnUse">
<stop stop-color="#0BF2F6"/>
<stop offset="1" stop-color="#13CFFF"/>
</linearGradient>
</defs>
</svg>
