<?xml version="1.0" encoding="UTF-8"?>
<!DOCTYPE svg PUBLIC "-//W3C//DTD SVG 1.1//EN" "http://www.w3.org/Graphics/SVG/1.1/DTD/svg11.dtd">
<svg version="1.1" xmlns="http://www.w3.org/2000/svg" xmlns:xlink="http://www.w3.org/1999/xlink" x="0" y="0" width="75" height="75" viewBox="0, 0, 75, 75">
  <defs>
    <linearGradient id="Gradient_1" gradientUnits="userSpaceOnUse" x1="0" y1="0" x2="74.292" y2="74.215">
      <stop offset="0" stop-color="#47F3D4"/>
      <stop offset="1" stop-color="#5ABEE1"/>
    </linearGradient>
  </defs>
  <g id="Diamond-LP-(Website)">
    <g>
      <path d="M10.22,45.24 L14.176,45.24 L15.789,41.284 L23.248,41.284 L24.861,45.24 L28.918,45.24 L21.358,27.474 L17.78,27.474 z M17.175,37.856 L19.519,32.136 L21.862,37.856 z" fill="#49EDD5"/>
      <path d="M31.64,45.24 L38.519,45.24 C44.063,45.24 47.894,41.384 47.894,36.42 L47.894,36.37 C47.894,31.405 44.063,27.6 38.519,27.6 L31.64,27.6 z M38.519,31.103 C41.695,31.103 43.837,33.295 43.837,36.42 L43.837,36.47 C43.837,39.595 41.695,41.737 38.519,41.737 L35.521,41.737 L35.521,31.103 z" fill="#49EDD5"/>
      <path d="M57.369,45.492 C61.174,45.492 63.845,43.526 63.845,40.024 L63.845,39.973 C63.845,36.899 61.829,35.614 58.251,34.681 C55.202,33.9 54.446,33.522 54.446,32.363 L54.446,32.312 C54.446,31.456 55.227,30.775 56.714,30.775 C58.201,30.775 59.738,31.43 61.3,32.514 L63.316,29.591 C61.527,28.154 59.335,27.348 56.764,27.348 C53.161,27.348 50.59,29.465 50.59,32.665 L50.59,32.716 C50.59,36.218 52.883,37.201 56.437,38.108 C59.385,38.864 59.99,39.368 59.99,40.351 L59.99,40.402 C59.99,41.435 59.032,42.065 57.445,42.065 C55.429,42.065 53.765,41.233 52.178,39.923 L49.885,42.67 C52.001,44.56 54.698,45.492 57.369,45.492 z" fill="#49EDD5"/>
    </g>
    <path d="M37.146,0 C16.682,0 0,16.665 0,37.107 C0,57.55 16.682,74.215 37.146,74.215 C57.61,74.215 74.292,57.55 74.292,37.107 C74.292,16.665 57.672,0 37.146,0 z M5.023,37.107 C5.023,19.39 19.472,4.956 37.208,4.956 C44.711,4.956 51.657,7.558 57.114,11.894 L14.883,60.152 C8.806,54.329 5.023,46.152 5.023,37.107 L5.023,37.107 z M37.146,69.259 C30.262,69.259 23.937,67.091 18.666,63.436 L60.711,15.363 C66.044,21.125 69.269,28.744 69.269,37.17 C69.331,54.825 54.882,69.259 37.146,69.259 L37.146,69.259 z" fill="url(#Gradient_1)" id="Fill-2"/>
  </g>
</svg>
