<?xml version="1.0" encoding="UTF-8"?>
<svg width="35px" height="8px" viewBox="0 0 35 8" version="1.1" xmlns="http://www.w3.org/2000/svg" xmlns:xlink="http://www.w3.org/1999/xlink">
    <g id="Checkout-(Website)" stroke="none" stroke-width="1" fill="none" fill-rule="evenodd">
        <g id="Checkout_var3_Monthly" transform="translate(-595.000000, -649.000000)" fill-rule="nonzero" fill="#0071B2">
            <g id="Group-7" transform="translate(410.000000, 636.000000)">
                <g id="amex" transform="translate(185.000000, 13.000000)">
                    <path d="M9.047677,0.000756 L9.047677,7.724515 C8.057011,5.148824 7.066293,2.573075 6.076617,0 L3.497689,0 C2.475678,2.658898 1.45752,5.307679 0.42775,7.986695 L2.24824,7.986695 C2.473387,7.385291 2.69317,6.798366 2.915089,6.205568 L6.581687,6.205568 C6.808239,6.809705 7.030938,7.403782 7.244994,7.974717 L10.679504,7.976453 L10.679504,1.555803 C11.53354,3.699237 12.387577,5.842555 13.242811,7.988839 L14.748595,7.988839 C15.606329,5.836799 16.459428,3.696446 17.312683,1.555687 L17.312683,7.980582 L18.980241,7.980582 L18.980241,0.001737 L16.185336,0.001737 C15.4911,1.820542 14.801445,3.627369 14.078675,5.52095 C13.294515,3.622717 12.545502,1.809494 11.79904,0.002492 L9.047677,0.000756 Z M4.690827,1.251911 C4.690827,1.251911 5.763762,4.159557 5.917626,4.576929 L3.460644,4.576929 C3.86522,3.474249 4.690827,1.251911 4.690827,1.251911 L4.690827,1.251911 Z M32.208103,0.015507 C31.481427,0.882463 30.744859,1.761223 29.989806,2.662078 C29.295204,1.748954 28.62846,0.872462 27.981346,0.021787 L19.992445,0.021787 L19.992445,8.001737 L27.76703,8.001737 C28.476679,7.145363 29.213821,6.255788 29.972467,5.34028 C30.706536,6.258347 31.42009,7.150771 32.100476,8.001737 L34.285398,8.001737 C33.182679,6.642982 32.13078,5.346851 31.057013,4.023798 C32.17858,2.679056 33.273696,1.365947 34.400002,0.015507 L32.208103,0.015507 L32.208103,0.015507 Z M25.593438,6.450291 L21.517213,6.450291 L21.517213,4.796678 L25.445979,4.796678 L25.445979,3.192257 L21.524086,3.192257 L21.524086,1.662844 L25.587086,1.662844 L25.587086,0.208788 C26.627061,1.479742 27.666463,2.750057 28.726485,4.045607 C27.671201,5.288244 26.632528,6.511344 25.593438,7.734851 L25.593438,6.450291 L25.593438,6.450291 Z"></path>
                </g>
            </g>
        </g>
    </g>
</svg>