<?xml version="1.0" encoding="UTF-8"?>
<!DOCTYPE svg PUBLIC "-//W3C//DTD SVG 1.1//EN" "http://www.w3.org/Graphics/SVG/1.1/DTD/svg11.dtd">
<svg version="1.1" xmlns="http://www.w3.org/2000/svg" xmlns:xlink="http://www.w3.org/1999/xlink" x="0" y="0" width="7.9" height="7.857" viewBox="0, 0, 7.9, 7.857">
  <g id="Layer_1">
    <path d="M7.082,-0 L7.432,0.012 L7.68,0.177 C7.973,0.47 7.973,0.945 7.68,1.238 L5.011,3.907 L7.68,6.577 C7.973,6.87 7.973,7.345 7.68,7.638 C7.387,7.93 6.913,7.93 6.62,7.638 L3.95,4.968 L1.28,7.637 C0.987,7.93 0.513,7.93 0.22,7.638 C-0.073,7.345 -0.073,6.87 0.22,6.577 L2.889,3.907 L0.22,1.237 C-0.073,0.945 -0.073,0.47 0.22,0.177 C0.496,-0.011 0.342,0.049 0.682,0 L1.032,0.012 L1.28,0.177 L3.95,2.846 L6.62,0.177 C6.896,-0.011 6.742,0.049 7.082,0 z" fill="#ffffff"/>
  </g>
</svg>
