<?xml version="1.0" encoding="UTF-8"?>
<!DOCTYPE svg PUBLIC "-//W3C//DTD SVG 1.1//EN" "http://www.w3.org/Graphics/SVG/1.1/DTD/svg11.dtd">
<svg version="1.1" xmlns="http://www.w3.org/2000/svg" xmlns:xlink="http://www.w3.org/1999/xlink" x="0" y="0" width="13.5" height="13.457" viewBox="0, 0, 13.5, 13.457">
  <g id="Layer_1">
    <path d="M12.682,0 L13.032,0.012 L13.28,0.177 C13.573,0.47 13.573,0.945 13.28,1.238 L7.811,6.707 L13.28,12.177 C13.573,12.47 13.573,12.945 13.28,13.238 C12.987,13.53 12.513,13.53 12.22,13.238 L6.75,7.768 L1.28,13.238 C0.987,13.53 0.513,13.53 0.22,13.238 C-0.073,12.945 -0.073,12.47 0.22,12.177 L5.689,6.707 L0.22,1.238 C-0.073,0.945 -0.073,0.47 0.22,0.177 C0.496,-0.011 0.342,0.049 0.682,0 L1.032,0.012 L1.28,0.177 L6.75,5.646 L12.22,0.177 C12.496,-0.011 12.342,0.049 12.682,0 z" fill="#FFFFFF"/>
  </g>
</svg>
