<?xml version="1.0" encoding="UTF-8"?>
<svg width="51px" height="10px" viewBox="0 0 51 10" version="1.1" xmlns="http://www.w3.org/2000/svg" xmlns:xlink="http://www.w3.org/1999/xlink">
    <g id="Checkout-(Website)" stroke="none" stroke-width="1" fill="none" fill-rule="evenodd">
        <g id="Checkout_var3_Monthly" transform="translate(-671.000000, -648.000000)" fill-rule="nonzero">
            <g id="Group-7" transform="translate(410.000000, 636.000000)">
                <g id="disc" transform="translate(261.000000, 12.000000)">
                    <path d="M0,0.981110882 L0,8.99443807 L2.24704869,8.99443807 C3.44189824,8.99443807 4.30450646,8.70807091 5.06195573,8.06939474 C5.96205541,7.31276625 6.49425115,6.17256057 6.49425115,4.99334703 C6.49425115,2.62841864 4.75470871,0.981110882 2.25893623,0.981110882 L0,0.981110882 Z M4.05669711,7.00070344 C3.57296592,7.44434036 2.94506029,7.63783168 1.95077478,7.63783168 L1.53775918,7.63783168 L1.53775918,2.33895561 L1.95077478,2.33895561 C2.94506029,2.33895561 3.54827643,2.51944432 4.05669711,2.98691937 C4.58889285,3.46832579 4.90894184,4.21411876 4.90894184,4.98158275 C4.90894184,5.75090427 4.58889285,6.51960661 4.05669711,7.00070344 L4.05669711,7.00070344 Z M7.20232143,0.981110882 L8.74129984,0.981110882 L8.74129984,8.99443807 L7.20232143,8.99443807 L7.20232143,0.981110882 Z M14.7734612,6.55582818 C14.7734612,8.10716424 13.6514609,9.18700064 12.0524352,9.18700064 C10.8813607,9.18700064 10.0297256,8.71859683 9.32074091,7.66166981 L10.3150264,6.6892598 C10.6695188,7.38520941 11.2605426,7.7579511 11.9945216,7.7579511 C12.6812553,7.7579511 13.1893711,7.27685426 13.1893711,6.62765216 C13.1893711,6.29113205 13.0354428,6.00259778 12.7281958,5.79858053 C12.573353,5.70168007 12.2667156,5.55803211 11.6641091,5.34225059 C10.2190117,4.81378707 9.72308821,4.2487924 9.72308821,3.14480829 C9.72308821,1.83309189 10.7877845,0.848608021 12.1838077,0.848608021 C13.0488544,0.848608021 13.8404422,1.14921615 14.5021816,1.73712019 L13.6968774,2.80797859 C13.2960541,2.35133906 12.9171771,2.15908608 12.4560017,2.15908608 C11.7927383,2.15908608 11.3096168,2.5423537 11.3096168,3.04728866 C11.3096168,3.48009006 11.5805916,3.70918379 12.5041615,4.05622983 C14.2546771,4.70636069 14.7734612,5.28281005 14.7734612,6.55582818 L14.7734612,6.55582818 Z M19.459588,0.800003 C20.1216322,0.800003 20.6772982,0.944270133 21.352754,1.29224493 L21.352754,3.1311865 C20.7129608,2.49560619 20.1572948,2.22967171 19.4233158,2.22967171 C17.9797424,2.22967171 16.8449402,3.44324931 16.8449402,4.98158275 C16.8449402,6.60443321 17.9449943,7.74587724 19.4949458,7.74587724 C20.1926526,7.74587724 20.7373455,7.49356455 21.352754,6.86820058 L21.352754,8.70807091 C20.6529135,9.0427335 20.0856648,9.17492678 19.4233158,9.17492678 C17.0799476,9.17492678 15.2590213,7.34867824 15.2590213,4.99334703 C15.2590213,2.66340187 17.1281073,0.800003 19.459588,0.800003 L19.459588,0.800003 Z M36.7357668,0.981110882 L38.4039841,0.981110882 L34.9956148,9.20000325 L34.1677547,9.20000325 L30.8194327,0.981110882 L32.5007567,0.981110882 L34.6045454,6.3635752 L36.7357668,0.981110882 L36.7357668,0.981110882 Z M43.4644158,0.981110882 L43.4644158,2.33895561 L40.6376212,2.33895561 L40.6376212,4.11752789 L43.3601712,4.11752789 L43.3601712,5.47475345 L40.6376212,5.47475345 L40.6376212,7.63783168 L43.4644158,7.63783168 L43.4644158,8.99443807 L39.099862,8.99443807 L39.099862,0.981110882 L43.4644158,0.981110882 Z M49.5575389,3.34696803 C49.5575389,1.84671368 48.5400879,0.981110882 46.7654925,0.981110882 L44.4833908,0.981110882 L44.4833908,8.99443807 L46.0205403,8.99443807 L46.0205403,5.77536157 L46.2214092,5.77536157 L48.3514114,8.99443807 L50.2439677,8.99443807 L47.7600828,5.61840141 C48.9192697,5.37909133 49.5575389,4.57385783 49.5575389,3.34696803 L49.5575389,3.34696803 Z M46.470133,4.6704487 L46.0205403,4.6704487 L46.0205403,2.2432935 L46.4945177,2.2432935 C47.4528358,2.2432935 47.9740584,2.65132801 47.9740584,3.43086587 C47.9740584,4.23671854 47.4528358,4.6704487 46.470133,4.6704487 L46.470133,4.6704487 Z" id="Fill-1" fill="#1A1918"></path>
                    <circle id="Oval-157" fill="#F58220" cx="26.2936296" cy="5.00000313" r="4.20000013"></circle>
                </g>
            </g>
        </g>
    </g>
</svg>