<?xml version="1.0" encoding="UTF-8"?>
<!DOCTYPE svg PUBLIC "-//W3C//DTD SVG 1.1//EN" "http://www.w3.org/Graphics/SVG/1.1/DTD/svg11.dtd">
<svg version="1.1" xmlns="http://www.w3.org/2000/svg" xmlns:xlink="http://www.w3.org/1999/xlink" x="0" y="0" width="25.975" height="36.84" viewBox="0, 0, 25.975, 36.84">
  <g id="Horizon-LP-(Website)">
    <g>
      <path d="M1.717,36.706 L3.411,36.706 L3.411,28.846 L2.241,28.846 L0,29.515 L0.357,30.92 L1.717,30.585 z" fill="#FFFFFF"/>
      <path d="M7.904,36.84 C9.643,36.84 10.714,35.758 10.714,34.287 L10.714,34.264 C10.714,32.815 9.677,32.258 8.618,32.079 L10.591,30.195 L10.591,28.902 L5.318,28.902 L5.318,30.374 L8.384,30.374 L6.522,32.246 L6.789,33.339 L7.503,33.339 C8.462,33.339 9.03,33.696 9.03,34.331 L9.03,34.354 C9.03,34.933 8.573,35.301 7.927,35.301 C7.135,35.301 6.578,34.967 6.042,34.365 L4.861,35.491 C5.53,36.282 6.5,36.84 7.904,36.84 z" fill="#FFFFFF"/>
      <path d="M15.087,36.706 L16.211,36.706 L16.211,33.327 L17.662,35.53 L17.692,35.53 L19.158,33.305 L19.158,36.706 L20.297,36.706 L20.297,31.496 L19.061,31.496 L17.692,33.699 L16.322,31.496 L15.087,31.496 z" fill="#FFFFFF"/>
      <path d="M21.547,36.706 L24.025,36.706 C25.201,36.706 25.975,36.23 25.975,35.277 L25.975,35.262 C25.975,34.562 25.603,34.213 25,33.982 C25.373,33.773 25.685,33.446 25.685,32.858 L25.685,32.843 C25.685,32.486 25.566,32.196 25.328,31.957 C25.03,31.66 24.561,31.496 23.966,31.496 L21.547,31.496 z M24.546,33.052 C24.546,33.439 24.226,33.602 23.72,33.602 L22.663,33.602 L22.663,32.501 L23.795,32.501 C24.278,32.501 24.546,32.694 24.546,33.037 z M24.837,35.121 L24.837,35.135 C24.837,35.522 24.532,35.701 24.025,35.701 L22.663,35.701 L22.663,34.555 L23.988,34.555 C24.576,34.555 24.837,34.771 24.837,35.121 z" fill="#FFFFFF"/>
    </g>
    <g id="Page-1">
      <g id="Fill-1">
        <path d="M22.756,12.399 C22.03,12.399 21.529,12.883 21.529,13.652 L21.529,19.123 L4.447,19.123 L4.447,13.652 C4.447,12.911 3.972,12.399 3.219,12.399 C2.466,12.399 1.991,12.883 1.991,13.652 L1.991,20.378 C1.991,21.119 2.466,21.631 3.219,21.631 L22.756,21.631 C23.482,21.631 23.984,21.147 23.984,20.378 L23.984,13.652 C23.984,12.912 23.482,12.399 22.756,12.399 L22.756,12.399 z" fill="#FFFFFF"/>
        <path d="M22.756,12.399 C22.03,12.399 21.529,12.883 21.529,13.652 L21.529,19.123 L4.447,19.123 L4.447,13.652 C4.447,12.911 3.972,12.399 3.219,12.399 C2.466,12.399 1.991,12.883 1.991,13.652 L1.991,20.378 C1.991,21.119 2.466,21.631 3.219,21.631 L22.756,21.631 C23.482,21.631 23.984,21.147 23.984,20.378 L23.984,13.652 C23.984,12.912 23.482,12.399 22.756,12.399 L22.756,12.399 z" fill-opacity="0" stroke="#FFFFFF" stroke-width="0.5"/>
      </g>
      <g id="Fill-2">
        <path d="M12.988,1 C12.262,1 11.76,1.484 11.76,2.253 L11.76,11.372 L10.42,10.004 C9.946,9.52 9.193,9.52 8.717,10.004 C8.243,10.489 8.243,11.258 8.717,11.743 L12.122,15.219 C12.373,15.476 12.736,15.59 12.988,15.59 C13.351,15.59 13.601,15.477 13.853,15.219 L17.258,11.743 C17.732,11.259 17.732,10.49 17.258,10.004 C16.784,9.52 16.03,9.52 15.555,10.004 L14.215,11.486 L14.215,2.254 C14.215,1.627 13.601,1 12.988,1 L12.988,1 z" fill="#FFFFFF"/>
        <path d="M12.988,1 C12.262,1 11.76,1.484 11.76,2.253 L11.76,11.372 L10.42,10.004 C9.946,9.52 9.193,9.52 8.717,10.004 C8.243,10.489 8.243,11.258 8.717,11.743 L12.122,15.219 C12.373,15.476 12.736,15.59 12.988,15.59 C13.351,15.59 13.601,15.477 13.853,15.219 L17.258,11.743 C17.732,11.259 17.732,10.49 17.258,10.004 C16.784,9.52 16.03,9.52 15.555,10.004 L14.215,11.486 L14.215,2.254 C14.215,1.627 13.601,1 12.988,1 L12.988,1 z" fill-opacity="0" stroke="#FFFFFF" stroke-width="0.5"/>
      </g>
    </g>
  </g>
</svg>
