<?xml version="1.0" encoding="UTF-8"?>
<!DOCTYPE svg PUBLIC "-//W3C//DTD SVG 1.1//EN" "http://www.w3.org/Graphics/SVG/1.1/DTD/svg11.dtd">
<svg version="1.1" xmlns="http://www.w3.org/2000/svg" xmlns:xlink="http://www.w3.org/1999/xlink" x="0" y="0" width="11.5" height="11.457" viewBox="0, 0, 11.5, 11.457">
  <g id="Layer_1">
    <path d="M5.682,0 L6.032,0.012 L6.28,0.177 L11.28,5.177 L11.434,5.408 C11.442,5.416 11.44,5.412 11.442,5.421 C11.447,5.428 11.445,5.423 11.445,5.435 L11.5,5.707 L11.445,5.979 C11.445,5.991 11.447,5.987 11.442,5.994 C11.44,6.002 11.442,5.998 11.434,6.006 L11.28,6.238 L6.28,11.238 C5.987,11.53 5.513,11.53 5.22,11.238 C4.927,10.945 4.927,10.47 5.22,10.177 L8.939,6.457 L0.75,6.457 C0.336,6.457 0,6.121 0,5.707 C0,5.293 0.336,4.957 0.75,4.957 L8.939,4.957 L5.22,1.238 C4.927,0.945 4.927,0.47 5.22,0.177 C5.496,-0.011 5.342,0.049 5.682,0 z" fill="#00F3A2"/>
  </g>
</svg>
