<?xml version="1.0" encoding="UTF-8"?>
<!DOCTYPE svg PUBLIC "-//W3C//DTD SVG 1.1//EN" "http://www.w3.org/Graphics/SVG/1.1/DTD/svg11.dtd">
<svg version="1.1" xmlns="http://www.w3.org/2000/svg" xmlns:xlink="http://www.w3.org/1999/xlink" x="0" y="0" width="11.5" height="11.5" viewBox="0, 0, 11.5, 11.5">
  <g id="Layer_1">
    <g>
      <path d="M5.75,0 C6.164,0 6.5,0.336 6.5,0.75 L6.5,8.939 L10.22,5.22 C10.513,4.927 10.987,4.927 11.28,5.22 C11.573,5.513 11.573,5.987 11.28,6.28 L6.28,11.28 L6.049,11.434 C6.041,11.442 6.045,11.44 6.037,11.442 C6.029,11.447 6.034,11.445 6.022,11.445 L5.75,11.5 L5.478,11.445 C5.466,11.445 5.471,11.447 5.463,11.442 C5.455,11.44 5.459,11.442 5.451,11.434 L5.22,11.28 L0.22,6.28 C-0.073,5.987 -0.073,5.513 0.22,5.22 C0.513,4.927 0.987,4.927 1.28,5.22 L5,8.939 L5,0.75 C5,0.336 5.336,0 5.75,0 z" fill="#13CFFF"/>
    </g>
  </g>
</svg>
