<?xml version="1.0" encoding="UTF-8"?>
<!DOCTYPE svg PUBLIC "-//W3C//DTD SVG 1.1//EN" "http://www.w3.org/Graphics/SVG/1.1/DTD/svg11.dtd">
<svg version="1.1" xmlns="http://www.w3.org/2000/svg" xmlns:xlink="http://www.w3.org/1999/xlink" x="0" y="0" width="14.935" height="14.935" viewBox="0, 0, 14.935, 14.935">
  <g id="Layer_1">
    <g>
      <path d="M0.75,14.185 L14.185,0.75" fill="#000000"/>
      <path d="M13.655,0.22 C13.948,-0.073 14.422,-0.073 14.715,0.22 C15.008,0.513 15.008,0.987 14.715,1.28 L1.28,14.715 C0.987,15.008 0.513,15.008 0.22,14.715 C-0.073,14.422 -0.073,13.948 0.22,13.655 L13.655,0.22 z" fill="#FFFFFF"/>
    </g>
    <g>
      <path d="M14.185,14.185 L0.75,0.75" fill="#000000"/>
      <path d="M1.28,0.22 C0.987,-0.073 0.513,-0.073 0.22,0.22 C-0.073,0.513 -0.073,0.987 0.22,1.28 L13.655,14.715 C13.948,15.008 14.422,15.008 14.715,14.715 C15.008,14.422 15.008,13.948 14.715,13.655 L1.28,0.22 z" fill="#FFFFFF"/>
    </g>
  </g>
</svg>
