<?xml version="1.0" encoding="UTF-8"?>
<!DOCTYPE svg PUBLIC "-//W3C//DTD SVG 1.1//EN" "http://www.w3.org/Graphics/SVG/1.1/DTD/svg11.dtd">
<svg version="1.1" xmlns="http://www.w3.org/2000/svg" xmlns:xlink="http://www.w3.org/1999/xlink" x="0" y="0" width="12" height="8" viewBox="0, 0, 12, 8">
  <g id="Pro-LP-(Website)">
    <g id="Fill-2">
      <path d="M0.119,4.065 C0.119,3.48 0.509,3.075 1.13,3.075 L8.481,3.075 L7.378,1.995 C6.988,1.613 6.988,1.006 7.378,0.622 C7.768,0.24 8.388,0.24 8.78,0.622 L11.582,3.367 C11.789,3.569 11.881,3.862 11.881,4.065 C11.881,4.358 11.789,4.56 11.582,4.763 L8.78,7.508 C8.389,7.89 7.769,7.89 7.378,7.508 C6.988,7.125 6.988,6.518 7.378,6.135 L8.572,5.055 L1.13,5.055 C0.624,5.055 0.119,4.56 0.119,4.065 L0.119,4.065 z" fill="#54D1DD"/>
      <path d="M0.119,4.065 C0.119,3.48 0.509,3.075 1.13,3.075 L8.481,3.075 L7.378,1.995 C6.988,1.613 6.988,1.006 7.378,0.622 C7.768,0.24 8.388,0.24 8.78,0.622 L11.582,3.367 C11.789,3.569 11.881,3.862 11.881,4.065 C11.881,4.358 11.789,4.56 11.582,4.763 L8.78,7.508 C8.389,7.89 7.769,7.89 7.378,7.508 C6.988,7.125 6.988,6.518 7.378,6.135 L8.572,5.055 L1.13,5.055 C0.624,5.055 0.119,4.56 0.119,4.065 L0.119,4.065 z" fill-opacity="0" stroke="#FFFFFF" stroke-width="0.2"/>
    </g>
  </g>
</svg>
