<?xml version="1.0" encoding="UTF-8"?>
<!DOCTYPE svg PUBLIC "-//W3C//DTD SVG 1.1//EN" "http://www.w3.org/Graphics/SVG/1.1/DTD/svg11.dtd">
<svg version="1.1" xmlns="http://www.w3.org/2000/svg" xmlns:xlink="http://www.w3.org/1999/xlink" x="0" y="0" width="19.25" height="18.75" viewBox="0, 0, 19.25, 18.75">
  <g id="Layer_1">
    <path d="M8,0 C12.418,0 16,3.582 16,8 C15.915,9.683 15.584,11.522 14.334,12.773 L19.03,17.469 C19.323,17.763 19.323,18.237 19.03,18.53 C18.737,18.823 18.263,18.823 17.97,18.53 L13.273,13.834 C12.012,15.468 9.916,15.807 8,16 C3.582,16 0,12.418 0,8 C0,3.582 3.582,0 8,0 z M8,1.5 C4.41,1.5 1.5,4.41 1.5,8 C1.5,11.59 4.41,14.5 8,14.5 C11.59,14.5 14.5,11.59 14.5,8 C14.5,4.41 11.59,1.5 8,1.5 z" fill="#FFFFFF"/>
  </g>
</svg>
