<?xml version="1.0" encoding="UTF-8"?>
<!DOCTYPE svg PUBLIC "-//W3C//DTD SVG 1.1//EN" "http://www.w3.org/Graphics/SVG/1.1/DTD/svg11.dtd">
<svg version="1.1" xmlns="http://www.w3.org/2000/svg" xmlns:xlink="http://www.w3.org/1999/xlink" x="0" y="0" width="68" height="68" viewBox="0, 0, 68, 68">
  <defs>
    <linearGradient id="Gradient_1" gradientUnits="userSpaceOnUse" x1="189" y1="1079.5" x2="256.5" y2="1147" gradientTransform="matrix(1, 0, 0, 1, -189, -1079)">
      <stop offset="0" stop-color="#47F3D4"/>
      <stop offset="1" stop-color="#5ABEE1"/>
    </linearGradient>
  </defs>
  <g id="Diamond-LP-(Website)">
    <path d="M65.625,11.75 C65.625,6.579 61.421,2.375 56.25,2.375 L44.821,2.375 C41.353,1.165 37.629,0.5 33.75,0.5 C29.871,0.5 26.147,1.165 22.678,2.375 L11.25,2.375 C6.079,2.375 1.875,6.579 1.875,11.75 L1.875,23.178 C0.665,26.647 0,30.371 0,34.25 C0,38.129 0.665,41.853 1.875,45.321 L1.875,56.75 C1.875,61.921 6.079,66.125 11.25,66.125 L22.678,66.125 C26.147,67.335 29.871,68 33.75,68 C37.629,68 41.353,67.335 44.821,66.125 L56.25,66.125 C61.421,66.125 65.625,61.921 65.625,56.75 L65.625,45.321 C66.835,41.853 67.5,38.129 67.5,34.25 C67.5,30.371 66.835,26.647 65.625,23.178 L65.625,11.75 z M56.25,6.125 C59.353,6.125 61.875,8.647 61.875,11.75 L61.875,15.62 C61.4,14.908 60.899,14.22 60.375,13.546 C60.299,13.423 60.211,13.303 60.105,13.194 C60.1,13.189 60.094,13.186 60.091,13.183 C58.532,11.237 56.763,9.468 54.817,7.906 C54.812,7.9 54.809,7.895 54.806,7.892 C54.697,7.783 54.577,7.698 54.454,7.622 C53.783,7.098 53.092,6.597 52.38,6.125 L56.25,6.125 z M33.75,53 C23.411,53 15,44.589 15,34.25 C15,23.911 23.411,15.5 33.75,15.5 C44.089,15.5 52.5,23.911 52.5,34.25 C52.5,44.589 44.089,53 33.75,53 z M56.233,54.081 C55.404,55.019 54.519,55.903 53.581,56.732 L48.267,51.418 C49.222,50.609 50.11,49.722 50.918,48.767 L56.233,54.081 z M19.231,51.421 L13.916,56.735 C12.979,55.906 12.094,55.021 11.265,54.084 L16.579,48.769 C17.391,49.725 18.276,50.609 19.231,51.421 z M11.268,14.419 C12.097,13.481 12.982,12.597 13.919,11.767 L19.234,17.082 C18.279,17.89 17.391,18.778 16.582,19.733 L11.268,14.419 z M50.921,19.733 C50.113,18.778 49.225,17.891 48.27,17.082 L53.584,11.767 C54.522,12.597 55.407,13.481 56.236,14.419 L50.921,19.733 z M33.75,4.25 C39.993,4.25 45.794,6.168 50.602,9.444 L45.17,14.876 C41.821,12.892 37.916,11.75 33.75,11.75 C29.584,11.75 25.678,12.892 22.33,14.876 L16.898,9.444 C21.706,6.168 27.507,4.25 33.75,4.25 L33.75,4.25 z M5.625,11.75 C5.625,8.647 8.147,6.125 11.25,6.125 L15.12,6.125 C14.408,6.596 13.72,7.1 13.046,7.622 C12.923,7.698 12.803,7.786 12.694,7.891 C12.689,7.897 12.686,7.903 12.683,7.906 C10.737,9.464 8.968,11.234 7.409,13.182 C7.403,13.188 7.398,13.191 7.395,13.194 C7.286,13.302 7.201,13.42 7.125,13.545 C6.601,14.219 6.1,14.908 5.625,15.62 L5.625,11.75 z M3.75,34.25 C3.75,28.006 5.669,22.205 8.944,17.398 L14.376,22.829 C12.393,26.178 11.25,30.083 11.25,34.25 C11.25,38.416 12.393,42.321 14.376,45.67 L8.944,51.102 C5.669,46.294 3.75,40.493 3.75,34.25 L3.75,34.25 z M11.25,62.375 C8.147,62.375 5.625,59.852 5.625,56.75 L5.625,52.879 C6.1,53.591 6.601,54.28 7.125,54.954 C7.201,55.077 7.289,55.197 7.395,55.305 C7.4,55.311 7.406,55.314 7.409,55.317 C8.968,57.262 10.737,59.032 12.683,60.593 C12.688,60.599 12.691,60.605 12.694,60.608 C12.803,60.716 12.923,60.801 13.046,60.877 C13.717,61.402 14.408,61.903 15.12,62.375 L11.25,62.375 z M33.75,64.25 C27.507,64.25 21.706,62.331 16.898,59.055 L22.33,53.624 C25.678,55.607 29.584,56.75 33.75,56.75 C37.916,56.75 41.822,55.607 45.17,53.624 L50.602,59.055 C45.794,62.331 39.993,64.25 33.75,64.25 L33.75,64.25 z M61.875,56.75 C61.875,59.852 59.353,62.375 56.25,62.375 L52.38,62.375 C53.092,61.903 53.78,61.399 54.454,60.877 C54.577,60.801 54.697,60.713 54.806,60.608 C54.811,60.602 54.814,60.596 54.817,60.593 C56.763,59.035 58.532,57.265 60.091,55.317 C60.097,55.311 60.102,55.308 60.105,55.305 C60.214,55.197 60.299,55.08 60.375,54.954 C60.899,54.28 61.4,53.591 61.875,52.879 L61.875,56.75 z M58.556,51.101 L53.124,45.669 C55.107,42.321 56.25,38.416 56.25,34.249 C56.25,30.083 55.107,26.178 53.124,22.829 L58.556,17.397 C61.831,22.205 63.75,28.006 63.75,34.249 C63.75,40.492 61.831,46.293 58.556,51.101 L58.556,51.101 z" fill="url(#Gradient_1)" id="Page-1"/>
  </g>
</svg>
