<?xml version="1.0" encoding="UTF-8"?>
<!DOCTYPE svg PUBLIC "-//W3C//DTD SVG 1.1//EN" "http://www.w3.org/Graphics/SVG/1.1/DTD/svg11.dtd">
<svg version="1.1" xmlns="http://www.w3.org/2000/svg" xmlns:xlink="http://www.w3.org/1999/xlink" x="0" y="0" width="71.06" height="69.875" viewBox="0, 0, 71.06, 69.875">
  <defs>
    <linearGradient id="Gradient_1" gradientUnits="userSpaceOnUse" x1="0.171" y1="-0.17" x2="68.045" y2="67.331" gradientTransform="matrix(0, -1, 1, 0, 1.17, 69.045)">
      <stop offset="0" stop-color="#47F3D4"/>
      <stop offset="1" stop-color="#5ABEE1"/>
    </linearGradient>
    <linearGradient id="Gradient_2" gradientUnits="userSpaceOnUse" x1="5.01" y1="44.864" x2="22.765" y2="62.514" gradientTransform="matrix(0, -1, 1, 0, 1.17, 69.045)">
      <stop offset="0" stop-color="#47F3D4"/>
      <stop offset="1" stop-color="#5ABEE1"/>
    </linearGradient>
    <linearGradient id="Gradient_3" gradientUnits="userSpaceOnUse" x1="-0.03" y1="31.733" x2="32.693" y2="64.499" gradientTransform="matrix(1, 0, 0, 1, 6.455, 1.032)">
      <stop offset="0" stop-color="#47F3D4"/>
      <stop offset="1" stop-color="#5ABEE1"/>
    </linearGradient>
    <linearGradient id="Gradient_4" gradientUnits="userSpaceOnUse" x1="29.946" y1="0.763" x2="63.606" y2="34.476" gradientTransform="matrix(1, 0, 0, 1, 6.455, 1.032)">
      <stop offset="0" stop-color="#47F3D4"/>
      <stop offset="1" stop-color="#5ABEE1"/>
    </linearGradient>
    <linearGradient id="Gradient_5" gradientUnits="userSpaceOnUse" x1="37.322" y1="7.398" x2="56.982" y2="27.086" gradientTransform="matrix(1, 0, 0, 1, 6.455, 1.032)">
      <stop offset="0" stop-color="#47F3D4"/>
      <stop offset="1" stop-color="#5ABEE1"/>
    </linearGradient>
    <linearGradient id="Gradient_6" gradientUnits="userSpaceOnUse" x1="24.497" y1="26.697" x2="37.71" y2="39.929" gradientTransform="matrix(1, 0, 0, 1, 6.455, 1.032)">
      <stop offset="0" stop-color="#47F3D4"/>
      <stop offset="1" stop-color="#5ABEE1"/>
    </linearGradient>
    <linearGradient id="Gradient_7" gradientUnits="userSpaceOnUse" x1="35.296" y1="31.75" x2="41.816" y2="36.374" gradientTransform="matrix(1, 0, 0, 1, 6.455, 1.032)">
      <stop offset="0" stop-color="#47F3D4"/>
      <stop offset="1" stop-color="#5ABEE1"/>
    </linearGradient>
    <linearGradient id="Gradient_8" gradientUnits="userSpaceOnUse" x1="28.057" y1="22.595" x2="32.674" y2="29.124" gradientTransform="matrix(1, 0, 0, 1, 6.455, 1.032)">
      <stop offset="0" stop-color="#47F3D4"/>
      <stop offset="1" stop-color="#5ABEE1"/>
    </linearGradient>
  </defs>
  <g id="Diamond-LP-(Website)">
    <g id="screw-driver-tools-equipment-repair-fitting-32b3bf33dbb889bd">
      <g id="path16757">
        <path d="M1.377,17.935 C1.952,20.348 3.176,22.603 4.985,24.426 C4.986,24.428 4.988,24.429 4.989,24.431 C8.761,28.215 14.346,29.324 19.302,27.5 L42.142,50.463 C40.325,55.452 41.432,61.07 45.203,64.862 C50.525,70.212 59.189,70.212 64.51,64.862 C69.832,59.512 69.832,50.805 64.51,45.455 C60.737,41.67 55.146,40.555 50.189,42.381 L27.358,19.423 C29.174,14.435 28.063,8.811 24.292,5.019 C20.666,1.375 15.305,0.079 10.428,1.669 C10.051,1.791 9.764,2.102 9.672,2.49 C9.579,2.878 9.694,3.286 9.975,3.567 L18.275,11.908 L17.631,17.734 L11.841,18.377 L3.55,10.045 C3.27,9.765 2.865,9.651 2.481,9.744 C2.097,9.837 1.788,10.123 1.666,10.501 C0.876,12.95 0.801,15.522 1.377,17.935 L1.377,17.935 z M3.585,17.403 C3.281,16.128 3.594,14.794 3.741,13.472 L10.619,20.383 C10.863,20.629 11.205,20.751 11.548,20.714 L18.786,19.905 C19.315,19.846 19.732,19.427 19.791,18.895 L20.595,11.613 C20.633,11.269 20.514,10.925 20.271,10.68 L13.383,3.755 C16.775,3.377 20.211,4.151 22.683,6.636 C25.999,9.971 26.939,14.998 25.056,19.315 C24.867,19.747 24.961,20.25 25.292,20.584 L49.038,44.459 C49.37,44.792 49.871,44.886 50.3,44.696 C54.591,42.804 59.585,43.746 62.902,47.072 C67.354,51.548 67.354,58.769 62.902,63.245 C58.45,67.721 51.264,67.721 46.812,63.245 C43.496,59.911 42.556,54.884 44.439,50.566 C44.626,50.136 44.533,49.635 44.204,49.302 L20.457,25.427 C20.125,25.094 19.624,25 19.195,25.19 C14.905,27.082 9.91,26.136 6.593,22.809 C5.087,21.289 4.064,19.412 3.585,17.403 L3.585,17.403 z" fill="url(#Gradient_1)"/>
        <path d="M1.377,17.935 C1.952,20.348 3.176,22.603 4.985,24.426 C4.986,24.428 4.988,24.429 4.989,24.431 C8.761,28.215 14.346,29.324 19.302,27.5 L42.142,50.463 C40.325,55.452 41.432,61.07 45.203,64.862 C50.525,70.212 59.189,70.212 64.51,64.862 C69.832,59.512 69.832,50.805 64.51,45.455 C60.737,41.67 55.146,40.555 50.189,42.381 L27.358,19.423 C29.174,14.435 28.063,8.811 24.292,5.019 C20.666,1.375 15.305,0.079 10.428,1.669 C10.051,1.791 9.764,2.102 9.672,2.49 C9.579,2.878 9.694,3.286 9.975,3.567 L18.275,11.908 L17.631,17.734 L11.841,18.377 L3.55,10.045 C3.27,9.765 2.865,9.651 2.481,9.744 C2.097,9.837 1.788,10.123 1.666,10.501 C0.876,12.95 0.801,15.522 1.377,17.935 L1.377,17.935 z M3.585,17.403 C3.281,16.128 3.594,14.794 3.741,13.472 L10.619,20.383 C10.863,20.629 11.205,20.751 11.548,20.714 L18.786,19.905 C19.315,19.846 19.732,19.427 19.791,18.895 L20.595,11.613 C20.633,11.269 20.514,10.925 20.271,10.68 L13.383,3.755 C16.775,3.377 20.211,4.151 22.683,6.636 C25.999,9.971 26.939,14.998 25.056,19.315 C24.867,19.747 24.961,20.25 25.292,20.584 L49.038,44.459 C49.37,44.792 49.871,44.886 50.3,44.696 C54.591,42.804 59.585,43.746 62.902,47.072 C67.354,51.548 67.354,58.769 62.902,63.245 C58.45,67.721 51.264,67.721 46.812,63.245 C43.496,59.911 42.556,54.884 44.439,50.566 C44.626,50.136 44.533,49.635 44.204,49.302 L20.457,25.427 C20.125,25.094 19.624,25 19.195,25.19 C14.905,27.082 9.91,26.136 6.593,22.809 C5.087,21.289 4.064,19.412 3.585,17.403 L3.585,17.403 z" fill-opacity="0" stroke="#51D9DB" stroke-width="1.125"/>
      </g>
      <g id="path16761">
        <path d="M46.073,56.937 C45.969,57.332 46.081,57.752 46.368,58.041 L51.992,63.7 C52.279,63.989 52.698,64.102 53.091,63.996 L60.78,61.923 C61.172,61.818 61.478,61.51 61.584,61.116 L63.645,53.383 C63.751,52.988 63.639,52.565 63.351,52.276 L57.723,46.616 C57.436,46.326 57.016,46.213 56.624,46.32 L48.939,48.393 C48.546,48.499 48.238,48.809 48.134,49.205 L46.073,56.937 L46.073,56.937 z M48.437,56.892 L50.158,50.432 L56.577,48.705 L61.277,53.428 L59.555,59.887 L53.136,61.615 L48.437,56.892 L48.437,56.892 z" fill="url(#Gradient_2)"/>
        <path d="M46.073,56.937 C45.969,57.332 46.081,57.752 46.368,58.041 L51.992,63.7 C52.279,63.989 52.698,64.102 53.091,63.996 L60.78,61.923 C61.172,61.818 61.478,61.51 61.584,61.116 L63.645,53.383 C63.751,52.988 63.639,52.565 63.351,52.276 L57.723,46.616 C57.436,46.326 57.016,46.213 56.624,46.32 L48.939,48.393 C48.546,48.499 48.238,48.809 48.134,49.205 L46.073,56.937 L46.073,56.937 z M48.437,56.892 L50.158,50.432 L56.577,48.705 L61.277,53.428 L59.555,59.887 L53.136,61.615 L48.437,56.892 L48.437,56.892 z" fill-opacity="0" stroke="#51D9DB" stroke-width="1.125"/>
      </g>
    </g>
    <g id="screw-driver-tools-equipment-3ab40b831bd32716">
      <g id="path16777">
        <path d="M34.323,32.765 L13.766,53.351 L10.322,53.351 L6.424,61.152 L10.797,65.531 L18.587,61.632 L18.587,58.178 L39.148,37.592 L37.541,35.983 L16.314,57.236 L16.314,60.223 L11.245,62.761 L9.19,60.703 L11.724,55.627 L14.707,55.627 L35.934,34.374 z" fill="url(#Gradient_3)"/>
        <path d="M34.323,32.765 L13.766,53.351 L10.322,53.351 L6.424,61.152 L10.797,65.531 L18.587,61.632 L18.587,58.178 L39.148,37.592 L37.541,35.983 L16.314,57.236 L16.314,60.223 L11.245,62.761 L9.19,60.703 L11.724,55.627 L14.707,55.627 L35.934,34.374 z" fill-opacity="0" stroke="#51D9DB" stroke-width="1.125"/>
      </g>
      <g id="path16767">
        <path d="M61.64,1.794 C59.894,1.794 58.148,2.46 56.819,3.79 L36.733,23.91 C36.29,24.354 36.29,25.074 36.733,25.519 L46.375,35.174 C46.818,35.618 47.538,35.618 47.981,35.174 L68.068,15.055 C70.725,12.394 70.725,8.06 68.068,5.4 L66.461,3.79 C65.132,2.46 63.386,1.794 61.64,1.794 L61.64,1.794 z M61.64,4.053 C62.798,4.053 63.956,4.501 64.854,5.4 L66.461,7.009 C68.255,8.806 68.255,11.648 66.461,13.446 L47.178,32.76 L39.144,24.714 L58.426,5.4 C59.323,4.501 60.482,4.053 61.64,4.053 L61.64,4.053 z" fill="url(#Gradient_4)"/>
        <path d="M61.64,1.794 C59.894,1.794 58.148,2.46 56.819,3.79 L36.733,23.91 C36.29,24.354 36.29,25.074 36.733,25.519 L46.375,35.174 C46.818,35.618 47.538,35.618 47.981,35.174 L68.068,15.055 C70.725,12.394 70.725,8.06 68.068,5.4 L66.461,3.79 C65.132,2.46 63.386,1.794 61.64,1.794 L61.64,1.794 z M61.64,4.053 C62.798,4.053 63.956,4.501 64.854,5.4 L66.461,7.009 C68.255,8.806 68.255,11.648 66.461,13.446 L47.178,32.76 L39.144,24.714 L58.426,5.4 C59.323,4.501 60.482,4.053 61.64,4.053 L61.64,4.053 z" fill-opacity="0" stroke="#51D9DB" stroke-width="1.125"/>
      </g>
      <g id="rect16769">
        <path d="M44.768,27.125 C46.089,28.448 48.268,28.448 49.589,27.125 L62.446,14.25 C63.767,12.926 63.767,10.745 62.446,9.422 C61.124,8.098 58.946,8.098 57.624,9.422 L44.768,22.297 C43.446,23.62 43.446,25.801 44.768,27.125 z M46.375,25.515 C45.916,25.056 45.916,24.366 46.375,23.906 L59.231,11.031 C59.691,10.572 60.379,10.572 60.839,11.031 C61.298,11.491 61.298,12.181 60.839,12.641 L47.982,25.515 C47.523,25.975 46.834,25.975 46.375,25.515 L46.375,25.515 z" fill="url(#Gradient_5)"/>
        <path d="M44.768,27.125 C46.089,28.448 48.268,28.448 49.589,27.125 L62.446,14.25 C63.767,12.926 63.767,10.745 62.446,9.422 C61.124,8.098 58.946,8.098 57.624,9.422 L44.768,22.297 C43.446,23.62 43.446,25.801 44.768,27.125 z M46.375,25.515 C45.916,25.056 45.916,24.366 46.375,23.906 L59.231,11.031 C59.691,10.572 60.379,10.572 60.839,11.031 C61.298,11.491 61.298,12.181 60.839,12.641 L47.982,25.515 C47.523,25.975 46.834,25.975 46.375,25.515 L46.375,25.515 z" fill-opacity="0" stroke="#51D9DB" stroke-width="1.125"/>
      </g>
      <g id="rect16771">
        <path d="M38.406,39.978 C39.715,41.289 41.874,41.289 43.183,39.978 C44.492,38.667 44.492,36.505 43.183,35.194 L36.711,28.712 C35.401,27.401 33.243,27.401 31.933,28.712 C30.624,30.023 30.624,32.185 31.933,33.496 L38.406,39.978 L38.406,39.978 z M40.013,38.368 L33.54,31.887 C33.094,31.44 33.094,30.769 33.54,30.322 C33.987,29.874 34.657,29.874 35.104,30.321 L41.576,36.803 C42.022,37.25 42.022,37.921 41.576,38.368 C41.129,38.816 40.459,38.816 40.013,38.368 L40.013,38.368 z" fill="url(#Gradient_6)"/>
        <path d="M38.406,39.978 C39.715,41.289 41.874,41.289 43.183,39.978 C44.492,38.667 44.492,36.505 43.183,35.194 L36.711,28.712 C35.401,27.401 33.243,27.401 31.933,28.712 C30.624,30.023 30.624,32.185 31.933,33.496 L38.406,39.978 L38.406,39.978 z M40.013,38.368 L33.54,31.887 C33.094,31.44 33.094,30.769 33.54,30.322 C33.987,29.874 34.657,29.874 35.104,30.321 L41.576,36.803 C42.022,37.25 42.022,37.921 41.576,38.368 C41.129,38.816 40.459,38.816 40.013,38.368 L40.013,38.368 z" fill-opacity="0" stroke="#51D9DB" stroke-width="1.125"/>
      </g>
      <g id="path16773">
        <path d="M43.308,37.324 C43.7,37.168 43.973,36.808 44.018,36.388 C44.084,35.835 44.409,35.397 44.9,35.184 C45.39,34.971 45.998,35.024 46.507,35.36 C47.031,35.706 47.737,35.561 48.082,35.036 C48.428,34.511 48.284,33.805 47.759,33.458 C46.637,32.719 45.22,32.565 43.996,33.097 C42.771,33.629 41.921,34.785 41.761,36.114 C41.709,36.498 41.856,36.882 42.15,37.133 C42.471,37.407 42.917,37.481 43.308,37.324 z" fill="url(#Gradient_7)"/>
        <path d="M43.308,37.324 C43.7,37.168 43.973,36.808 44.018,36.388 C44.084,35.835 44.409,35.397 44.9,35.184 C45.39,34.971 45.998,35.024 46.507,35.36 C47.031,35.706 47.737,35.561 48.082,35.036 C48.428,34.511 48.284,33.805 47.759,33.458 C46.637,32.719 45.22,32.565 43.996,33.097 C42.771,33.629 41.921,34.785 41.761,36.114 C41.709,36.498 41.856,36.882 42.15,37.133 C42.471,37.407 42.917,37.481 43.308,37.324 z" fill-opacity="0" stroke="#51D9DB" stroke-width="1.125"/>
      </g>
      <g id="path16775">
        <path d="M34.783,29.756 C34.51,29.435 34.436,28.988 34.592,28.596 C34.748,28.204 35.108,27.93 35.527,27.885 C36.08,27.819 36.514,27.49 36.726,26.999 C36.939,26.508 36.889,25.903 36.554,25.393 C36.208,24.868 36.353,24.161 36.877,23.815 C37.401,23.469 38.107,23.614 38.453,24.139 C39.191,25.262 39.344,26.681 38.814,27.907 C38.283,29.134 37.127,29.985 35.8,30.145 C35.417,30.197 35.034,30.05 34.783,29.756 L34.783,29.756 z" fill="url(#Gradient_8)"/>
        <path d="M34.783,29.756 C34.51,29.435 34.436,28.988 34.592,28.596 C34.748,28.204 35.108,27.93 35.527,27.885 C36.08,27.819 36.514,27.49 36.726,26.999 C36.939,26.508 36.889,25.903 36.554,25.393 C36.208,24.868 36.353,24.161 36.877,23.815 C37.401,23.469 38.107,23.614 38.453,24.139 C39.191,25.262 39.344,26.681 38.814,27.907 C38.283,29.134 37.127,29.985 35.8,30.145 C35.417,30.197 35.034,30.05 34.783,29.756 L34.783,29.756 z" fill-opacity="0" stroke="#51D9DB" stroke-width="1.125"/>
      </g>
    </g>
  </g>
</svg>
