<?xml version="1.0" encoding="UTF-8"?>
<!DOCTYPE svg PUBLIC "-//W3C//DTD SVG 1.1//EN" "http://www.w3.org/Graphics/SVG/1.1/DTD/svg11.dtd">
<svg version="1.1" xmlns="http://www.w3.org/2000/svg" xmlns:xlink="http://www.w3.org/1999/xlink" x="0" y="0" width="52" height="73" viewBox="0, 0, 52, 73">
  <defs>
    <linearGradient id="Gradient_1" gradientUnits="userSpaceOnUse" x1="0" y1="0" x2="50" y2="71" gradientTransform="matrix(1, 0, 0, 1, 1, 1)">
      <stop offset="0" stop-color="#47F3D4"/>
      <stop offset="1" stop-color="#5ABEE1"/>
    </linearGradient>
  </defs>
  <g id="Diamond-LP-(Website)">
    <g id="Page-1">
      <path d="M1.001,62.015 L1.001,37.16 C1.001,31.654 5.479,27.175 11.004,27.175 L36.952,27.175 C36.934,27.035 36.928,26.895 36.928,26.749 L36.928,20.075 C36.928,14.062 32.035,9.174 26,9.174 C21.704,9.174 17.975,11.65 16.19,15.264 C15.189,17.29 12.731,18.125 10.705,17.127 C8.674,16.128 7.837,13.676 8.838,11.65 C11.952,5.35 18.467,1 26,1 C36.559,1 45.123,9.542 45.123,20.076 L45.123,26.749 C45.123,27.176 45.059,27.59 44.936,27.981 C48.501,29.505 51,33.049 51,37.16 L51,62.016 C51,67.522 46.516,72 40.997,72 L11.003,72 C5.478,72 1,67.522 1,62.016 L1.001,62.015 z M45.147,62.015 L45.147,37.16 C45.147,34.871 43.286,33.014 40.997,33.014 L11.004,33.014 C8.715,33.014 6.854,34.871 6.854,37.16 L6.854,62.015 C6.854,64.304 8.715,66.161 11.004,66.161 L40.997,66.161 C43.286,66.161 45.147,64.304 45.147,62.015 z" fill="url(#Gradient_1)"/>
      <path d="M1.001,62.015 L1.001,37.16 C1.001,31.654 5.479,27.175 11.004,27.175 L36.952,27.175 C36.934,27.035 36.928,26.895 36.928,26.749 L36.928,20.075 C36.928,14.062 32.035,9.174 26,9.174 C21.704,9.174 17.975,11.65 16.19,15.264 C15.189,17.29 12.731,18.125 10.705,17.127 C8.674,16.128 7.837,13.676 8.838,11.65 C11.952,5.35 18.467,1 26,1 C36.559,1 45.123,9.542 45.123,20.076 L45.123,26.749 C45.123,27.176 45.059,27.59 44.936,27.981 C48.501,29.505 51,33.049 51,37.16 L51,62.016 C51,67.522 46.516,72 40.997,72 L11.003,72 C5.478,72 1,67.522 1,62.016 L1.001,62.015 z M45.147,62.015 L45.147,37.16 C45.147,34.871 43.286,33.014 40.997,33.014 L11.004,33.014 C8.715,33.014 6.854,34.871 6.854,37.16 L6.854,62.015 C6.854,64.304 8.715,66.161 11.004,66.161 L40.997,66.161 C43.286,66.161 45.147,64.304 45.147,62.015 z" fill-opacity="0" stroke="#FFFFFF" stroke-width="2"/>
    </g>
    <path d="M23.57,56.044 L23.57,48.98 C22.609,48.147 22,46.911 22,45.534 C22,43.034 24.016,41 26.5,41 C28.984,41 31,43.034 31,45.534 C31,46.911 30.391,48.147 29.43,48.98 L29.43,56.044 C29.43,57.676 28.117,59 26.5,59 C24.883,59 23.57,57.676 23.57,56.044 z" fill="#49EDD5" id="Path"/>
  </g>
</svg>
