<?xml version="1.0" encoding="UTF-8"?>
<svg width="32px" height="11px" viewBox="0 0 32 11" version="1.1" xmlns="http://www.w3.org/2000/svg" xmlns:xlink="http://www.w3.org/1999/xlink">
    <g id="Checkout-(Website)" stroke="none" stroke-width="1" fill="none" fill-rule="evenodd">
        <g id="Checkout_var3_Monthly" transform="translate(-428.000000, -648.000000)" fill-rule="nonzero" fill="#152F94">
            <g id="Group-7" transform="translate(410.000000, 636.000000)">
                <g id="visa" transform="translate(18.000000, 12.000000)">
                    <path d="M12.611774,0.170991 L11.026487,9.983154 L13.560435,9.983154 L15.145239,0.170991 L12.611774,0.170991 L12.611774,0.170991 Z M22.382881,6.776836 C22.392058,5.658634 21.71679,4.810926 20.254674,4.111023 C19.36929,3.656014 18.825887,3.354606 18.832166,2.894284 C18.833132,2.486128 19.291523,2.049474 20.283655,2.049474 C21.112526,2.036432 21.712442,2.227227 22.18001,2.426716 L22.407515,2.538778 L22.750462,0.41202 C22.249566,0.214946 21.461753,0 20.480246,0 C17.97528,0 16.21224,1.331699 16.197267,3.238197 C16.181327,4.64863 17.455546,5.435477 18.416282,5.904011 C19.403584,6.38462 19.735422,6.692307 19.731558,7.121716 C19.724313,7.779112 18.943262,8.080037 18.214861,8.080037 C17.200509,8.080037 16.661453,7.931748 15.828236,7.565616 L15.502677,7.409116 L15.148137,9.605429 C15.738876,9.878821 16.834376,10.115986 17.970933,10.128545 C20.632882,10.128545 22.362594,8.813268 22.382881,6.776836 L22.382881,6.776836 L22.382881,6.776836 Z M22.201263,9.986535 L24.862246,9.986535 C24.862246,9.986535 25.296485,8.777041 25.395023,8.511378 C25.68532,8.511378 28.270951,8.516208 28.639982,8.516208 C28.715817,8.858673 28.948635,9.986535 28.948635,9.986535 L31.299999,9.986535 L29.249559,0.180651 L27.29186,0.180651 C26.684215,0.180651 26.229689,0.35454 25.964026,0.994065 L22.201263,9.986535 L22.201263,9.986535 Z M27.641087,3.671954 C27.641087,3.671954 28.127493,6.013657 28.227479,6.50441 L26.123907,6.50441 C26.334023,5.940238 27.133428,3.761796 27.133428,3.761796 C27.118455,3.787397 27.342095,3.193276 27.470097,2.825211 L27.641087,3.671954 L27.641087,3.671954 Z M7.596046,9.973011 L11.58583,0.179202 L8.901179,0.179202 L6.42133,6.868611 L6.155667,5.508896 L5.267867,1.000344 C5.114748,0.378691 4.6694,0.194176 4.119234,0.17244 L0.033812,0.17244 L0,0.375793 C0.994065,0.629864 1.88283,0.99648 2.661466,1.451972 L4.914776,9.97446 L7.596046,9.973011 L7.596046,9.973011 Z"></path>
                </g>
            </g>
        </g>
    </g>
</svg>